<?xml version="1.0" encoding="utf-8" ?>
<svg xmlns="http://www.w3.org/2000/svg" xmlns:xlink="http://www.w3.org/1999/xlink" width="1024" height="1024">
	<path fill="#2F1C1C" d="M408.836 17.7057C432.675 15.7233 457.643 18.1804 481.043 22.8622C540.401 34.738 594.407 70.0588 633.817 115.347Q643.939 126.877 652.836 139.378C656.525 144.474 660.013 150.055 664.026 154.889C666.869 158.314 670.894 159.467 674.739 161.399C682.378 165.236 686.723 170.504 691.397 177.528Q693.089 177.848 694.768 178.232Q696.447 178.616 698.11 179.063Q699.773 179.51 701.418 180.02Q703.062 180.53 704.687 181.102Q706.311 181.674 707.913 182.306Q709.515 182.939 711.091 183.632Q712.668 184.325 714.217 185.077Q715.766 185.83 717.286 186.64Q718.805 187.45 720.293 188.317Q721.781 189.184 723.235 190.107Q724.689 191.03 726.107 192.008Q727.525 192.985 728.905 194.015Q730.285 195.045 731.625 196.127Q732.965 197.209 734.263 198.341Q735.561 199.472 736.815 200.652Q738.069 201.832 739.278 203.059C772.222 236.134 784.64 290.988 784.498 336.305C790.7 336.309 797.132 337.49 803.208 338.701C837.235 345.486 870.524 362.72 898.004 383.61C922.958 402.58 944.127 427.471 948.344 459.504C951.874 486.316 940.799 513.398 924.596 534.274C881.772 589.448 804.723 613.3 738.104 621.667C739.398 627.118 741.243 632.48 742.684 637.903Q746.924 653.843 749.381 670.154C751.845 687.018 753.957 712.59 748.549 728.778C746.95 733.562 744.629 737.402 741.634 741.433C747.252 751.306 757.857 769.454 754.803 780.867C751.563 792.974 733.888 803.014 723.606 808.657C729.206 818.846 729.641 829.442 728.111 840.667C727.921 842.059 727.038 846.102 727.418 847.386C727.674 848.251 731.012 850.649 731.774 851.963C734.526 856.706 722.165 892.036 719.801 899.464Q723.732 899.27 727.664 899.428Q731.596 899.585 735.499 900.092Q739.402 900.6 743.244 901.453Q747.086 902.307 750.836 903.499C766.149 908.485 779.257 918.312 786.61 932.886C791.278 942.139 794.742 956.022 791.159 966.121C788.615 973.294 782.867 977.247 776.354 980.459C728.49 1004.06 619.703 989.769 570.262 972.985C561.532 970.022 550.001 965.981 545.826 956.946C540.656 945.754 547.042 924.436 550.918 913.545C553.303 906.842 556.927 900.275 557.008 893.023C557.089 885.849 554.163 859.772 556.223 855.035C557.928 851.117 562.554 849.569 566.182 848.018C555.301 850.084 543.841 850.649 532.794 851.244C512.103 852.359 491.587 852.525 470.875 852.476C455.421 852.443 439.937 851.282 424.537 850.103C424.006 853.268 423.607 856.466 423.153 859.644C424.382 860.389 426.089 861.406 426.813 862.683C427.734 864.309 427.327 866.322 426.952 868.037C425.838 873.14 423.487 878.252 421.556 883.089C417.103 894.246 412.185 905.204 407.773 916.38C410.233 917.503 412.583 919.004 414.729 920.643C427.531 930.417 435.065 945.621 437.042 961.436C438.008 969.165 437.985 978.019 432.84 984.373C421.578 998.283 397.511 1003.37 380.775 1005.36C341.278 1010.06 268.955 1000.72 237.498 975.523C230.714 970.089 225.979 963.911 225.079 954.957C223.33 937.544 230.494 920.224 237.73 904.806C239.402 901.245 242.26 897.912 243.389 894.183C245.318 887.811 244.979 876.135 245.264 869.242C245.54 862.549 244.961 841.057 248.835 836.703C251.267 833.969 255.097 833.222 258.552 832.897C259.449 825.999 260.967 819.223 262.391 812.419C255.969 808.853 249.241 805.849 242.86 802.193C232.758 796.405 214.998 785.721 212.038 773.522C209.42 762.73 227.903 733.852 233.973 723.785Q232.313 721.013 230.971 718.074Q230.297 716.548 229.778 714.963Q229.258 713.378 228.897 711.75Q228.537 710.121 228.339 708.465Q228.141 706.809 228.107 705.141C227.788 685.537 239.417 655.72 246.431 637.142C238.976 635.852 231.4 635.146 223.922 633.94C203.631 630.667 183.43 626.037 164.187 618.732C134.421 607.433 105.077 588.916 91.7347 558.779C82.1004 537.018 82.8322 514.664 91.4394 492.73C104.505 459.434 134.099 433.698 163.377 414.534C172.181 408.771 181.505 402.989 191.176 398.803C175.688 380.568 161.753 361.797 157.111 337.728C154.313 323.219 154.516 305.991 163.203 293.354C167.885 286.543 174.706 282.35 182.82 280.946C201.562 277.705 218.221 283.216 233.629 294.036C232.411 282.499 231.796 263.687 233.399 252.38C219.335 259.015 203.811 264.391 188.334 266.165C174.831 267.712 159.208 266.936 148.154 258.057C142.836 253.786 138.506 247.736 137.941 240.771C137.21 231.758 141.51 226.965 148.906 222.606C158.054 217.214 166.113 212.743 173.345 204.779C185.178 191.747 192.039 174.963 200.656 159.819C213.434 137.361 227.44 115.83 244.359 96.2351C288.54 45.0662 342.227 22.4947 408.836 17.7057Z"/>
	<path fill="#73659E" d="M279.554 639.02C286.202 638.142 292.863 636.785 299.167 634.456C301.07 633.753 303.296 633.076 304.19 631.152C302.307 629.354 271.648 627.748 266.74 627.276C237.879 624.502 207.945 619.645 180.247 610.88C151.031 601.635 119.763 586.096 105.218 557.683C96.2082 540.081 95.2827 521.065 101.427 502.369C117.542 453.336 172.71 421.063 216.212 399.122C233.268 390.519 250.371 385.61 269.024 391.831C290.362 398.946 306.479 415.39 316.353 435.283C323.1 448.878 327.138 465.071 322.045 479.889C319.906 486.113 316.285 491.436 311.654 496.083C296.013 511.778 262.99 526.659 241.69 533.197C230.961 536.491 216.392 538.818 206.651 543.615L206.893 544.566C207.395 544.988 207.843 545.357 208.436 545.647C218.801 550.7 240.443 546.792 250.917 543.097C252.419 545.065 253.939 546.637 255.784 548.281C251.984 551.919 248.164 555.247 243.804 558.201C239.136 561.364 233.588 564.21 229.561 568.157C229.496 568.22 229.429 568.281 229.363 568.344C242.787 567.082 255.197 561.545 264.403 551.525C268.5 545.966 271.192 540.84 273.341 534.282C280.391 530.831 287.286 527.232 294.05 523.244C295.8 539.35 300.077 559.944 313.496 570.662C317.218 573.635 320.805 574.841 325.485 575.285C337.899 608.462 361.566 639.739 394.31 654.815C404.113 659.328 413.544 661.785 424.247 659.608C446.917 679.625 475.69 692.194 505.054 698.583C521.152 702.086 537.427 704.338 553.476 708.182C560.904 710.164 582.854 719.182 587.523 718.686C594.71 717.922 602.357 713.158 608.532 709.557Q619.058 703.367 628.588 695.732C632.776 692.322 636.858 688.216 641.369 685.303C645.767 682.462 652.07 681.587 657.004 679.717C673.239 673.564 688.534 662.245 700.395 649.743C706.511 643.297 712.51 635.842 716.717 627.988C718.335 624.969 720.707 616.344 722.706 614.516L723.815 615.754L723.556 615.069C726.372 619.87 727.582 626.246 729.039 631.578C735.387 654.811 743.979 698.289 737.902 721.413C734.747 733.418 725.743 740.201 715.42 746.118C696.129 757.177 674.174 763.634 652.805 769.255C554.73 795.053 433.693 792.836 336.308 765.959C312.528 759.396 288.104 750.366 267.177 737.126C258.248 731.611 248.147 723.548 243.687 713.762C242.247 710.603 241.577 707.558 241.558 704.079C241.466 687.449 253.745 654.931 259.831 638.45C266.302 639.399 273.028 639.108 279.554 639.02Z"/>
	<path fill="#615281" d="M273.341 534.282C280.391 530.831 287.286 527.232 294.05 523.244C295.8 539.35 300.077 559.944 313.496 570.662C317.218 573.635 320.805 574.841 325.485 575.285C337.899 608.462 361.566 639.739 394.31 654.815C404.113 659.328 413.544 661.785 424.247 659.608C446.917 679.625 475.69 692.194 505.054 698.583C521.152 702.086 537.427 704.338 553.476 708.182C550.662 709.4 548.431 709.339 545.43 709.294C535.262 709.143 525.23 708.867 515.125 707.628C445.419 699.077 379.795 662.404 332.479 610.998C321.128 598.665 310.395 585.38 299.941 572.286C295.065 566.177 290.562 558.873 284.987 553.465C281.058 549.653 269.714 551.355 264.403 551.525C268.5 545.966 271.192 540.84 273.341 534.282Z"/>
	<path fill="#615281" d="M259.831 638.45C266.302 639.399 273.028 639.108 279.554 639.02Q274.298 671.938 270.482 705.053Q269.199 716.067 268.144 727.105C267.825 730.351 267.818 733.961 267.177 737.126C258.248 731.611 248.147 723.548 243.687 713.762C242.247 710.603 241.577 707.558 241.558 704.079C241.466 687.449 253.745 654.931 259.831 638.45Z"/>
	<path fill="#FEF7E6" d="M730.743 361.652C759.292 399.417 767.814 446.876 764.793 493.315C761.505 487.286 755.812 477.935 749.537 474.751L748.351 474.85C747.608 476.235 747.869 477.422 748.087 478.96C748.948 485.021 750.739 491.017 752.042 496.997Q753.652 504.459 754.548 512.04Q755.443 519.62 755.617 527.252C755.936 544.634 753.395 562.34 746.082 578.237C742.326 586.399 737.343 594.757 730.56 600.771Q730.75 598.866 730.839 596.953Q730.929 595.041 730.918 593.126Q730.908 591.212 730.797 589.3Q730.686 587.389 730.476 585.486Q730.265 583.583 729.955 581.693Q729.645 579.804 729.237 577.934Q728.829 576.063 728.323 574.216Q727.818 572.37 727.216 570.552L726.94 571.279C723.362 580.895 722.182 591.259 718.499 600.911C707 631.041 680.921 656.451 652.019 669.974Q650.352 670.762 648.664 671.504C648.579 667.591 648.233 664.294 646.813 660.591C629.595 679.961 618.176 692.035 594.017 703.866C591.469 705.077 588.872 705.904 586.189 706.752C572.5 701.253 558.689 696.45 544.263 693.279C534.218 691.071 523.971 689.732 513.852 687.899C482.509 682.221 453.381 669.774 429.266 648.629C420.39 640.847 412.416 632.023 404.176 623.584C404.801 633.316 407.469 641.234 412.794 649.384C403.658 646.87 395.303 643.154 387.347 637.984C361.075 620.913 342.755 593.454 333.642 563.766C330.682 554.125 328.787 544.148 326.722 534.285C322.718 543.518 321.331 553.189 320.92 563.181C308.34 550.979 305.446 534.304 303.88 517.54C311.246 512.692 318.697 508.002 324.533 501.28C335.985 488.091 338.018 472.794 336.902 455.981C342.376 453.489 347.612 450.718 352.848 447.768C366.383 438.009 375.643 428.041 383.207 413.059C392.411 427.778 406.257 435.663 422.859 439.493Q424.413 439.859 425.978 440.172C418.256 445.958 410.094 458.658 408.873 468.415C408.265 473.273 409.358 477.906 412.51 481.71C418.462 488.896 428.891 491.199 437.755 491.834Q440.097 491.998 442.441 492.121C447.91 499.372 455.148 503.076 464.08 504.325C464.351 504.363 464.626 504.372 464.9 504.396C474.241 503.567 484.23 503.575 493.58 504.373L498.996 503.854C492.595 513.875 485.929 528.38 488.841 540.598Q488.952 541.061 489.087 541.518Q489.223 541.974 489.382 542.423Q489.54 542.872 489.722 543.312Q489.904 543.752 490.109 544.182Q490.314 544.612 490.54 545.031Q490.767 545.45 491.015 545.856Q491.263 546.263 491.532 546.656Q491.802 547.049 492.091 547.427Q492.38 547.806 492.688 548.168Q492.997 548.531 493.324 548.878Q493.65 549.224 493.995 549.553Q494.339 549.881 494.701 550.192Q495.062 550.502 495.439 550.793Q495.815 551.085 496.207 551.356Q496.598 551.627 497.003 551.878Q497.408 552.128 497.826 552.357C507.848 557.895 521.608 553.931 531.7 550.732C545.074 546.493 558.016 541.46 572.137 540.274C579.805 539.63 587.594 540.242 595.222 541.154C607.141 542.579 624.843 547.807 635.757 540.972C635.994 540.823 636.236 540.681 636.472 540.531C641.283 537.491 643.804 532.305 644.924 526.864C647.866 512.581 644.125 494.992 638.027 481.972C656.578 485.743 678.517 485.597 694.948 474.859C699.242 472.052 702.868 468.434 703.885 463.264Q704.129 462.034 704.311 460.794C712.231 459.679 721.168 457.719 726.363 451.033Q726.861 450.395 727.293 449.711Q727.725 449.026 728.085 448.301Q728.446 447.577 728.732 446.82Q729.018 446.063 729.227 445.281Q729.436 444.499 729.564 443.7Q729.693 442.901 729.741 442.093Q729.789 441.285 729.756 440.476Q729.723 439.667 729.608 438.866C727.904 426.807 716.11 417.028 707 410.253C719.261 401.725 727.587 391.079 730.201 376.043C731.037 371.237 731.114 366.503 730.743 361.652Z"/>
	<path fill="#F6D1B1" d="M352.848 447.768C351.814 454.849 350.72 461.947 350.478 469.108C349.228 506.117 360.487 546.202 382.618 576.047C396.385 594.613 414.093 609.754 433.869 621.595C439.007 624.671 445.307 626.463 450.123 629.815C454.253 632.691 457.413 637.561 461.077 641.084Q465.235 645.075 469.698 648.721Q474.161 652.367 478.901 655.645Q483.641 658.924 488.627 661.813Q493.613 664.703 498.814 667.186Q510.616 672.985 523.083 677.169C537.76 682.177 585.706 694.201 594.017 703.866C591.469 705.077 588.872 705.904 586.189 706.752C572.5 701.253 558.689 696.45 544.263 693.279C534.218 691.071 523.971 689.732 513.852 687.899C482.509 682.221 453.381 669.774 429.266 648.629C420.39 640.847 412.416 632.023 404.176 623.584C404.801 633.316 407.469 641.234 412.794 649.384C403.658 646.87 395.303 643.154 387.347 637.984C361.075 620.913 342.755 593.454 333.642 563.766C330.682 554.125 328.787 544.148 326.722 534.285C322.718 543.518 321.331 553.189 320.92 563.181C308.34 550.979 305.446 534.304 303.88 517.54C311.246 512.692 318.697 508.002 324.533 501.28C335.985 488.091 338.018 472.794 336.902 455.981C342.376 453.489 347.612 450.718 352.848 447.768Z"/>
	<path fill="#160E0E" d="M464.9 504.396C474.241 503.567 484.23 503.575 493.58 504.373C484.319 506.095 474.16 506.088 464.9 504.396Z"/>
	<path fill="#2F1C1C" d="M578.505 569.194Q583.154 568.874 587.813 568.989C591.109 569.055 595.839 568.949 598.264 571.469C598.343 572.362 598.528 572.391 597.933 573.157C595.145 576.748 584.504 577.917 580.119 578.384C575.258 579.086 569.918 579.347 565.03 578.845C562.89 578.625 560.38 578.419 558.932 576.65L559.046 575.533C562.837 571.203 573.014 569.798 578.505 569.194Z"/>
	<path fill="#D05049" d="M166.965 227.337C193.962 208.528 205.414 176.714 221.944 149.57C240.099 119.757 262.86 91.1305 291.295 70.5169C340.632 34.7499 407.457 24.2867 466.848 33.7849C541.729 45.7603 601.508 91.0525 645.176 151.48Q641.645 150.598 638.094 149.796C568.705 134.234 490.027 141.438 424.503 169.051C403.155 178.047 383.548 189.452 364.007 201.82C360.575 197.811 356.834 194.461 351.588 193.063C344.098 191.067 337.773 193.598 331.395 197.279C329.995 195.373 328.432 193.47 326.66 191.897C323.005 188.652 318.502 186.813 313.575 187.228C303.924 188.04 296.867 195.559 291.115 202.576C286.475 202.589 282.501 202.856 278.138 204.728C261.303 211.949 252.699 234.035 246.558 249.87Q247.403 243.734 248.574 237.651Q249.745 231.569 251.24 225.557Q252.734 219.546 254.547 213.623Q256.359 207.7 258.486 201.882Q260.612 196.064 263.046 190.368Q265.479 184.672 268.214 179.114Q270.948 173.556 273.975 168.151Q277.002 162.747 280.313 157.512C285.711 148.851 292.263 140.949 297.525 132.203C279.528 142.139 265.516 158.059 255.454 175.71C246.554 195.754 239.731 215.17 235.802 236.823C216.655 247.121 186.702 258.633 165.029 252.308C160.096 250.868 154.152 248.181 151.74 243.38C150.887 241.682 150.145 239.32 150.57 237.441C153.073 233.603 162.677 229.852 166.965 227.337Z"/>
	<path fill="#814239" d="M255.454 175.71C246.554 195.754 239.731 215.17 235.802 236.823C216.655 247.121 186.702 258.633 165.029 252.308C160.096 250.868 154.152 248.181 151.74 243.38C150.887 241.682 150.145 239.32 150.57 237.441C153.073 233.603 162.677 229.852 166.965 227.337C167.757 227.807 168.568 228.182 169.478 228.357C184.509 231.239 224.187 206.357 235.907 195.587C240.573 191.3 250.921 178.69 254.722 176.174C254.963 176.014 255.21 175.865 255.454 175.71Z"/>
	<defs>
		<linearGradient id="gradient_0" gradientUnits="userSpaceOnUse" x1="585.34833" y1="441.17566" x2="485.32123" y2="210.49048">
			<stop offset="0" stop-color="#FCB59B"/>
			<stop offset="1" stop-color="#FAD7B0"/>
		</linearGradient>
	</defs>
	<path fill="url(#gradient_0)" d="M530.652 206.671C548.739 204.368 566.348 203.756 584.562 204.213C584.445 204.927 584.343 205.627 584.267 206.346C583.622 212.415 583.799 219.446 587.975 224.315C593.864 231.182 606.996 231.372 615.344 232.957C627.317 235.23 638.746 239.956 649.664 245.26C656.876 248.764 670.527 259.678 677.145 260.08C681.241 260.329 683.898 258.1 686.845 255.633C695.242 280.234 698.026 303.733 696.101 329.667C695.114 330.159 694.126 330.656 693.171 331.209C691.206 332.346 688.511 333.874 687.907 336.178C690.49 339.39 705.108 336.949 714.537 348.356C719.564 353.213 721.638 360.689 721.766 367.511Q721.783 368.505 721.753 369.499Q721.722 370.492 721.643 371.483Q721.565 372.474 721.439 373.461Q721.313 374.447 721.14 375.426Q720.967 376.405 720.747 377.374Q720.527 378.344 720.26 379.302Q719.994 380.259 719.682 381.203Q719.369 382.147 719.012 383.075Q718.655 384.003 718.254 384.912Q717.852 385.822 717.408 386.711Q716.963 387.6 716.476 388.467Q715.99 389.334 715.462 390.176Q714.934 391.019 714.366 391.835Q713.798 392.651 713.192 393.439Q712.585 394.227 711.942 394.984Q711.298 395.742 710.619 396.468C710.225 396.882 709.809 397.276 709.397 397.672C706.173 400.485 702.903 403.166 699.07 405.117Q694.534 402.922 689.97 400.785C684.286 398.47 678.501 396.58 672.632 394.807C667.985 393.934 663.347 393.051 658.665 392.381C657.464 385.455 655.559 379.665 652.3 373.441C665.193 366.893 674.369 356.289 678.933 342.507C685.373 323.057 682.344 299.123 673.061 281.073C666.187 267.705 655.43 255.969 640.802 251.27Q639.834 250.958 638.853 250.694Q637.871 250.43 636.877 250.216Q635.883 250.001 634.88 249.837Q633.877 249.672 632.867 249.558Q631.857 249.443 630.842 249.379Q629.828 249.315 628.811 249.302Q627.794 249.289 626.779 249.327Q625.763 249.364 624.75 249.452Q623.737 249.54 622.73 249.679Q621.723 249.817 620.724 250.006Q619.725 250.194 618.737 250.432Q617.748 250.67 616.773 250.957Q615.798 251.245 614.838 251.58Q613.879 251.915 612.937 252.298Q611.995 252.681 611.073 253.11Q610.152 253.539 609.253 254.014C596.463 260.706 588.261 273.265 584.078 286.764C577.746 307.194 579.624 328.683 587.727 348.278C581.144 350.507 573.884 353.132 570.228 359.596C569.922 360.137 569.755 360.679 569.576 361.27L569.942 362.085C574.177 362.364 582.383 358.991 586.949 357.915C604.434 353.797 625.696 357.293 638.047 371.377Q638.717 372.147 639.349 372.948Q639.981 373.749 640.573 374.58Q641.166 375.411 641.717 376.269Q642.268 377.128 642.777 378.012Q643.286 378.897 643.752 379.805Q644.217 380.713 644.638 381.643Q645.059 382.572 645.434 383.521Q645.809 384.47 646.138 385.436Q646.467 386.402 646.748 387.383Q647.03 388.364 647.263 389.357Q647.497 390.35 647.682 391.354Q647.867 392.357 648.003 393.369Q648.139 394.38 648.226 395.397Q648.313 396.413 648.35 397.433Q648.388 398.453 648.376 399.473Q648.364 400.493 648.302 401.512Q648.19 403.075 648.021 404.633C646.119 415.472 640.532 424.45 631.493 430.805C618.92 439.644 601.894 441.488 587.065 438.764C573.799 436.327 560.192 429.693 551.652 419.008C548.356 415.164 545.766 410.317 545.277 405.227C544.551 397.656 549.042 392.056 553.478 386.516C551.819 386.882 550.156 387.259 548.544 387.802C542.57 389.813 539.761 393.925 537.083 399.299C499.237 396.918 464.746 409.335 434.896 431.887C429.637 431.472 424.461 430.785 419.377 429.326C404.772 425.136 394.454 415.993 387.168 402.845C395.498 375.108 391.23 345.939 384.867 318.318C383.167 310.938 379.662 301.954 379.734 294.398C379.795 288.02 388.472 262.717 390.645 254.593C397.907 249.174 406.109 244.808 414.078 240.535C412.316 247.636 411.283 254.836 411.802 262.165C412.179 267.5 413.134 274.665 417.533 278.229C419.535 279.851 422.377 280.602 424.922 280.192C429.851 279.398 442.073 267.154 447.094 263.319Q453.77 258.203 460.954 253.828Q468.138 249.453 475.748 245.869Q482.219 242.868 488.953 240.517Q495.687 238.166 502.619 236.487C509.283 234.845 516.839 233.712 523.128 230.996C525.617 229.92 528.122 227.77 529.622 225.522C533.347 219.94 531.95 212.785 530.652 206.671Z"/>
	<path fill="#F4A38F" d="M672.632 394.807C672.826 392.436 667.717 384.282 667.965 379.601C668.46 370.265 673.703 360.207 680.809 354.218C692.094 344.707 701.391 347.274 714.537 348.356C719.564 353.213 721.638 360.689 721.766 367.511Q721.783 368.505 721.753 369.499Q721.722 370.492 721.643 371.483Q721.565 372.474 721.439 373.461Q721.313 374.447 721.14 375.426Q720.967 376.405 720.747 377.374Q720.527 378.344 720.26 379.302Q719.994 380.259 719.682 381.203Q719.369 382.147 719.012 383.075Q718.655 384.003 718.254 384.912Q717.852 385.822 717.408 386.711Q716.963 387.6 716.476 388.467Q715.99 389.334 715.462 390.176Q714.934 391.019 714.366 391.835Q713.798 392.651 713.192 393.439Q712.585 394.227 711.942 394.984Q711.298 395.742 710.619 396.468C710.225 396.882 709.809 397.276 709.397 397.672C706.173 400.485 702.903 403.166 699.07 405.117Q694.534 402.922 689.97 400.785C684.286 398.47 678.501 396.58 672.632 394.807Z"/>
	<path fill="#F6D1B1" d="M689.97 400.785C690.71 399.922 691.252 399.461 692.391 399.175C696.52 398.141 705.609 395.511 709.397 397.672C706.173 400.485 702.903 403.166 699.07 405.117Q694.534 402.922 689.97 400.785Z"/>
	<path fill="#F4A38F" d="M551.652 419.008C551.752 419.031 551.851 419.056 551.952 419.077C556.623 420.086 561.071 423.123 565.411 425.125C572.558 428.42 581.881 430.547 589.675 431.209C607.192 432.696 624.481 428.415 637.485 416.094C640.961 412.799 643.607 408.192 647.263 405.229C647.513 405.026 647.769 404.831 648.021 404.633C646.119 415.472 640.532 424.45 631.493 430.805C618.92 439.644 601.894 441.488 587.065 438.764C573.799 436.327 560.192 429.693 551.652 419.008Z"/>
	<path fill="#2F1C1C" d="M495.765 256.661C495.835 256.649 495.904 256.633 495.975 256.625C508.822 255.27 521.01 258.149 531.418 265.934C545.759 276.659 553.832 294.17 556.238 311.589C558.979 331.437 555.499 352.888 543.049 369.02C532.531 382.648 518.407 389.246 501.619 391.365C488.449 392.16 476.463 389.796 465.645 381.912C451.557 371.646 443.465 355.333 440.978 338.333Q440.717 336.46 440.547 334.576Q440.377 332.693 440.299 330.803Q440.22 328.913 440.234 327.022Q440.247 325.131 440.352 323.243Q440.458 321.354 440.654 319.473Q440.851 317.592 441.139 315.723Q441.427 313.854 441.805 312.001Q442.183 310.148 442.651 308.315Q443.119 306.483 443.675 304.675Q444.231 302.867 444.874 301.089Q445.517 299.31 446.246 297.565Q446.974 295.82 447.787 294.112Q448.599 292.404 449.494 290.738Q450.388 289.072 451.362 287.451Q452.337 285.83 453.388 284.258Q454.44 282.686 455.567 281.167C465.368 268.099 479.514 258.986 495.765 256.661Z"/>
	<path fill="#FEF7E6" d="M498.316 266.675C507.719 265.405 517.923 268.635 525.531 274.103C537.84 282.95 544.659 297.597 546.963 312.267C549.585 328.963 547.635 347.079 537.433 361.011C528.451 373.28 516.183 379.107 501.473 381.466C489.86 382.005 479.463 380.427 469.935 373.269C458.889 364.971 452.522 351.906 450.605 338.416C448.085 320.685 452.182 302.166 463.016 287.773C471.772 276.14 483.876 268.688 498.316 266.675Z"/>
	<path fill="#2F1C1C" d="M514.368 306.607C516.817 306.727 518.94 307.005 521.184 308.053C526.651 310.608 530.353 315.465 532.358 321.066C535.2 329.008 534.981 338.477 531.118 346.057C528.042 352.09 523.803 355.586 517.462 357.674C513.523 357.793 510.152 357.277 506.746 355.162C501.34 351.805 498.141 345.649 496.917 339.543C495.268 331.318 496.749 321.807 501.61 314.873C504.844 310.259 508.861 307.634 514.368 306.607Z"/>
	<path fill="#FEF7E6" d="M520.897 322.823C522.566 323.461 523.901 324.237 524.923 325.728Q525.135 326.032 525.315 326.355Q525.495 326.679 525.641 327.02Q525.787 327.36 525.898 327.713Q526.008 328.067 526.082 328.43Q526.156 328.793 526.193 329.161Q526.229 329.53 526.228 329.9Q526.227 330.271 526.188 330.639Q526.149 331.008 526.073 331.37C525.515 334.084 524.17 335.482 521.972 337.04C520.447 336.575 518.955 336.083 517.876 334.835C516.659 333.428 516.142 331.457 516.386 329.625C516.775 326.701 518.6 324.513 520.897 322.823Z"/>
	<path fill="#F4A38F" d="M422.452 372.201C430.426 371.794 438.033 372.17 445.318 375.765C451.44 378.785 457.523 384.465 459.544 391.106C461.205 396.565 459.923 402.629 457.078 407.47C452.67 414.973 444.553 419.186 436.378 421.266Q435.383 421.468 434.377 421.61C425.599 422.894 415.848 420.52 408.74 415.185C403.385 411.166 398.678 405.181 397.884 398.376C397.206 392.566 399.291 386.381 402.894 381.84C407.878 375.559 414.756 373.04 422.452 372.201Z"/>
	<path fill="#73659E" d="M784.621 348.372C824.432 349.163 882.234 381.884 909.596 410.425C925.993 427.528 936.803 446.249 936.384 470.499C935.894 498.914 920.029 523.723 900.077 542.849C860.286 580.993 790.944 604.559 737.044 610.292C756.482 592.786 765.5 563.965 767.08 538.555C767.846 527.819 767.037 516.264 765.177 505.672C767.839 505.568 770.144 505.457 772.282 503.654C775.7 500.774 775.959 495.542 776.425 491.409C783.629 495.119 787.69 499.873 793.814 504.887C797.675 508.048 801.891 510.514 806.199 512.994C816.598 516.803 826.007 519.478 837.172 517.663C824.276 511.546 810.377 507.692 798.729 499.02C815.275 502.406 831.249 502.672 847.01 496.087C822.677 494.961 798.468 491.192 776.548 479.992C776.599 465.043 775.594 450.486 773.052 435.741C787.425 419.101 798.155 400.534 796.506 377.798C795.641 365.864 790.734 358.245 784.621 348.372Z"/>
	<path fill="#615281" d="M776.425 491.409C783.629 495.119 787.69 499.873 793.814 504.887C797.675 508.048 801.891 510.514 806.199 512.994C802.664 512.93 799.134 512.439 795.617 512.43C791.496 515.144 768.629 535.469 767.08 538.555C767.846 527.819 767.037 516.264 765.177 505.672C767.839 505.568 770.144 505.457 772.282 503.654C775.7 500.774 775.959 495.542 776.425 491.409Z"/>
	<path fill="#F6D1B1" d="M313.258 197.054C314.353 197.015 315.427 197.002 316.498 197.276C318.564 197.803 320.409 199.485 321.366 201.357C322.536 203.646 322.583 206.488 321.785 208.909C320.374 213.19 315.671 219.996 313.398 224.629Q309.114 233.577 305.601 242.854Q302.089 252.132 299.374 261.674C296.956 270.314 290.751 298.695 295.901 305.509C296.638 306.484 297.213 306.388 298.303 306.425C298.835 306.056 299.205 305.707 299.485 305.109C301.4 301.017 303.925 284.4 305.122 278.867C309.427 258.961 320.616 227.751 332.562 211.51C335.538 207.464 339.712 203.711 344.887 203.078C347.93 202.705 351.066 203.489 353.471 205.421C357.566 208.709 358.739 213.657 359.339 218.603C343.278 233.27 333.298 261.579 328.663 282.606C327.154 289.447 323.888 308.701 328.65 314.569C329.512 315.631 329.747 315.734 331.011 315.88C332.827 314.898 333.375 312.559 333.808 310.682C335.508 303.299 335.689 295.471 337.247 288.004C340.509 272.368 350.684 241.847 361.501 230.231C363.879 227.677 366.801 226.014 370.34 225.916C372.992 225.842 375.658 226.576 377.593 228.46C380.181 230.978 381.064 234.829 381.383 238.299C382.71 252.756 375.837 269.346 371.298 282.873C370.213 286.106 368.072 289.943 367.991 293.35C367.829 300.172 373.106 313.889 374.799 321.148C378.229 335.853 380.586 350.531 381.194 365.625C381.62 378.16 380.127 391.496 375.908 403.339C368.679 423.634 353.571 436.975 334.532 446.097Q333.641 443.288 332.613 440.527Q331.584 437.766 330.419 435.059Q329.255 432.352 327.958 429.706Q326.66 427.06 325.233 424.482Q323.806 421.904 322.253 419.4Q320.7 416.896 319.024 414.472Q317.349 412.048 315.555 409.71Q313.761 407.372 311.854 405.126Q311.211 404.374 310.55 403.638Q309.888 402.902 309.209 402.183Q308.53 401.464 307.833 400.761Q307.136 400.059 306.422 399.374Q305.708 398.689 304.978 398.021Q304.247 397.354 303.501 396.705Q302.754 396.056 301.992 395.425Q301.229 394.795 300.451 394.183Q299.674 393.572 298.881 392.979Q298.089 392.387 297.282 391.814Q296.475 391.242 295.654 390.689Q294.833 390.137 293.999 389.604Q293.165 389.072 292.318 388.561Q291.472 388.049 290.612 387.559Q289.753 387.068 288.882 386.599Q288.011 386.13 287.129 385.682Q286.246 385.234 285.353 384.809Q284.46 384.383 283.557 383.979Q282.654 383.575 281.741 383.194Q280.828 382.812 279.906 382.454Q278.984 382.095 278.053 381.759Q277.123 381.423 276.184 381.11Q275.245 380.797 274.299 380.507Q273.353 380.217 272.401 379.951Q271.448 379.684 270.489 379.441Q269.53 379.198 268.565 378.979Q267.6 378.76 266.63 378.565Q265.66 378.369 264.686 378.198Q263.711 378.026 262.733 377.879Q261.755 377.731 260.773 377.608Q259.791 377.484 258.807 377.385Q257.823 377.286 256.836 377.211C246.65 340.347 242.743 291.643 254.77 254.889C260.34 237.866 268.896 220.425 285.54 212.038Q284.951 212.982 284.409 213.954C272.759 234.371 256.659 285.407 263.767 308.179C264.174 309.484 264.408 310.145 265.625 310.783C266.914 310 267.397 308.828 267.92 307.468C269.844 302.47 272.255 283.613 273.401 277.247Q274.765 270.053 276.626 262.972Q278.486 255.89 280.835 248.955Q283.183 242.02 286.008 235.264Q288.833 228.509 292.121 221.967C296.641 213.173 303.158 200.288 313.258 197.054Z"/>
	<path fill="#73659E" d="M242.529 733.757C249.689 740.493 257.565 745.861 265.832 751.106C301.452 771.178 341.181 781.957 381.168 789.256C474.58 806.305 575.235 804.414 666.961 778.714C690.372 772.155 713.36 763.63 733.343 749.541C736.457 755.532 745.068 770.246 743.128 776.613C740.31 785.865 723.012 794.991 714.961 798.925C689.647 811.292 661.128 819.033 633.691 824.947C530.599 847.169 396.543 846.838 296.475 811.957Q283.621 807.609 271.232 802.076Q258.842 796.542 247.025 789.873C238.716 785.109 228.713 778.891 224.227 770.154C228.376 757.562 236.026 745.261 242.529 733.757Z"/>
	<path fill="#615281" d="M242.529 733.757C249.689 740.493 257.565 745.861 265.832 751.106C262.46 760.393 257.453 769.13 252.866 777.86C250.864 781.669 248.274 785.76 247.025 789.873C238.716 785.109 228.713 778.891 224.227 770.154C228.376 757.562 236.026 745.261 242.529 733.757Z"/>
	<path fill="#473434" d="M258.387 848.043C264.821 851.358 270.914 855.301 277.394 858.584C314.399 877.332 373.268 885.883 412.878 872.836Q405 892.616 396.488 912.13L395.974 912.01C371.422 906.497 339.648 909.516 318.203 923.318C316.898 924.158 315.508 925.235 315.178 926.83C317.42 927.413 326.906 924.332 329.825 923.7C352.433 918.805 379.094 916.812 400.66 926.233C405.22 928.651 409.239 931.293 412.773 935.102C420.746 943.694 426.127 958.16 425.468 969.909C425.258 973.661 424.286 976.473 421.345 978.9C417.59 981.998 412.669 983.978 408.171 985.706C385.362 994.466 360.452 995.003 336.377 992.973C308.938 990.658 279.453 984.709 254.733 972.269C249.638 969.705 243.649 966.724 239.99 962.204C231.814 952.105 241.166 926.472 245.723 916.16C248.768 909.269 253.599 902.08 255.086 894.684C256.269 888.8 256.22 882.636 256.53 876.659C257.023 867.139 257.468 857.53 258.387 848.043Z"/>
	<path fill="#473434" d="M567.941 862.823Q568.912 863.274 569.899 863.688C614.028 882.317 673.588 882.191 717.952 864.261C714.576 876.316 711.276 888.422 707.59 900.385C689.175 904.12 664.217 907.049 650.336 920.794C658.487 919.583 666.634 917.248 674.746 915.677C702.815 910.239 736.017 906.809 761.513 922.075C771.532 929.746 778.269 939.274 779.865 952.011C780.346 955.847 780.809 962.328 778.163 965.395C771.267 973.388 735.031 978.527 723.563 979.397C678.004 982.853 622.935 975.863 579.245 962.618C573.107 960.757 563.314 958.624 558.651 954.277C549.013 945.293 566.959 910.378 568.446 898.957C569.959 887.326 568.26 874.569 567.941 862.823Z"/>
	<path fill="#F6D1B1" d="M694.312 189.296C718.65 196.023 736.578 212.423 749.129 233.972C769.448 268.86 777.919 316.174 772.744 356.066C771.63 364.651 769.339 372.919 767.122 381.266C773.952 376.296 777.912 369.688 781.783 362.343Q782.908 364.349 783.741 366.494Q784.575 368.638 785.1 370.877C789.59 390.146 780.407 407.698 770.627 423.551C763.953 396.697 753.466 372.613 735.444 351.344C728.419 343.101 719.31 337.015 709.692 332.235C713.125 320.391 719.322 309.046 721.914 297.039C717.268 283.046 711.14 269.899 703.793 257.117C700.701 251.738 697.242 246.571 694.19 241.173C690.494 234.636 687.373 227.731 683.803 221.11C688.522 217.593 691.326 214.195 693.931 208.931C712.466 220.949 726.46 239.734 736.605 259.127C739.534 264.725 741.882 271.233 745.261 276.489C745.845 277.397 745.987 277.868 747.052 278.079C747.147 277.94 747.257 277.809 747.337 277.661C749.66 273.319 747.939 265.233 746.622 260.632C740.726 240.035 723.821 218.441 706.876 205.653C703.237 202.906 699.185 200.653 695.216 198.42C695.004 195.378 694.625 192.331 694.312 189.296Z"/>
	<path fill="#D05049" d="M552.824 154.722C585.858 153.401 620.597 156.994 652.436 166.008C659.842 168.105 668.53 170.366 674.545 175.404C680.352 180.268 683.191 188.232 683.688 195.623C684.126 202.142 682.423 206.263 678.217 211.044C671.403 202.315 662.555 194.557 653.236 188.608C640.468 180.456 623.762 174.706 608.533 178.213C599.436 180.308 593.167 185.391 588.268 193.185C568.127 192.007 546.864 192.977 526.983 196.487C524.699 193.282 522.428 190.222 519.495 187.575C511.3 180.175 501.569 178.657 490.879 179.176C467.598 181.152 446.271 193.932 430.972 211.164C427.244 215.363 424.646 221.475 420.414 225.039C416.61 228.242 411.055 230.137 406.589 232.337Q399.234 235.884 392.244 240.104C390.967 232.568 389.139 222.297 381.767 218.261C379.399 216.965 376.472 216.348 373.9 215.573C372.15 215.045 370.18 214.647 368.903 213.266C369.004 213.047 369.066 212.806 369.205 212.609C371.078 209.957 386.428 201.512 390.319 199.311C440.885 170.691 494.944 157.064 552.824 154.722Z"/>
	<path fill="#FEF7E6" d="M484.382 472.101C468.743 478.729 451.232 483.417 434.111 481.768C429.323 481.306 423.234 480.246 420.124 476.218C418.595 474.238 418.158 471.805 418.474 469.359C420.037 457.262 436.444 443.268 445.675 436.306C470.812 417.345 504.387 405.928 535.98 410.478C538.614 421.411 544.89 429.555 553.745 436.227C562.969 442.242 572.038 445.129 582.666 447.773C553.293 471.358 509.602 499.467 470.443 495.268C464.258 494.605 457.699 493.14 452.072 490.427C454.451 489.805 456.917 488.973 459.337 488.577C469.686 485.016 477.176 480.382 484.382 472.101Z"/>
	<path fill="#F6D1B1" d="M553.745 436.227C562.969 442.242 572.038 445.129 582.666 447.773C553.293 471.358 509.602 499.467 470.443 495.268C464.258 494.605 457.699 493.14 452.072 490.427C454.451 489.805 456.917 488.973 459.337 488.577C459.755 488.892 459.783 488.947 460.348 489.177C469.252 492.797 494.754 484.141 503.266 480.391C522.635 471.857 545.833 456.667 553.745 436.227Z"/>
	<path fill="#FEF7E6" d="M623.991 259.637Q626.441 259.367 628.904 259.439Q631.367 259.511 633.797 259.925C644.882 261.881 654.007 269.103 660.33 278.171C671.135 293.663 675.773 315.089 672.394 333.693C669.328 350.576 660.964 357.01 647.768 366.196L643.881 361.64C643.435 361.216 642.988 360.792 642.522 360.389C630.241 349.768 613.4 345.687 597.522 346.973Q595.134 342.245 593.439 337.227Q591.745 332.208 590.78 327C587.617 310.261 589.346 290.413 599.207 276.056C605.277 267.216 613.455 261.622 623.991 259.637Z"/>
	<path fill="#2F1C1C" d="M623.038 302.093C625.464 301.921 627.725 301.871 630.079 302.585C635.343 304.18 639.345 307.986 641.854 312.812C645.327 319.492 645.871 327.825 643.533 334.964C641.537 341.058 638.085 345.079 632.395 347.843C629.522 348.243 626.732 348.269 623.967 347.3C618.793 345.487 615.106 341.315 612.876 336.416C609.652 329.332 609.36 320.422 612.269 313.185C614.445 307.773 617.785 304.441 623.038 302.093Z"/>
	<path fill="#FEF7E6" d="M631.535 314.764C633.951 315.444 635.468 316.427 636.701 318.664C637.844 320.737 638.241 322.969 637.477 325.242C636.835 327.151 635.883 327.808 634.13 328.665C632.349 328.335 630.623 327.814 629.284 326.525C628.052 325.341 627.418 323.808 627.449 322.1C627.506 318.962 629.34 316.787 631.535 314.764Z"/>
	<path fill="#FEF7E6" d="M658.651 402.123C679.028 405.32 705.168 415.975 717.618 433.32C719.355 435.74 720.731 438.634 720.229 441.686C719.775 444.447 717.803 446.523 715.518 447.977C713.618 449.186 711.168 450.348 708.976 450.855C704.598 451.867 688.125 452.153 686.881 455.758C687.994 458.55 691.428 459.925 693.928 461.307L694.552 461.547C694.458 462.695 694.181 462.836 693.406 463.637C676.621 480.995 643.66 475.043 623.723 467.798C611.347 463.3 599.57 455.465 586.074 455.468C588.06 453.379 589.916 451.202 591.774 449C603.842 449.77 614.204 449.162 625.642 444.971C638.399 439.924 648.847 430.982 654.445 418.282C656.743 413.067 657.796 407.727 658.651 402.123Z"/>
	<path fill="#F6D1B1" d="M591.774 449C603.842 449.77 614.204 449.162 625.642 444.971C635.4 457.698 651.079 462.732 666.451 464.776C673.276 465.684 680.016 465.643 686.847 464.86C688.628 463.271 690.517 461.145 693.094 461.248C693.373 461.259 693.65 461.288 693.928 461.307L694.552 461.547C694.458 462.695 694.181 462.836 693.406 463.637C676.621 480.995 643.66 475.043 623.723 467.798C611.347 463.3 599.57 455.465 586.074 455.468C588.06 453.379 589.916 451.202 591.774 449Z"/>
	<path fill="#814239" d="M712.207 814.456C713.291 815.059 713.124 814.968 713.58 816.025C717.619 825.382 717.562 844.402 713.666 853.852C689.408 865.124 648.092 867.824 621.493 865.186C610.435 864.09 599.601 861.783 588.876 858.931C584.659 857.796 580.495 856.549 576.602 854.542L576.11 847.444C622.634 841.214 668.472 831.915 712.207 814.456Z"/>
	<path fill="#814239" d="M272.564 816.443C316.35 835.465 365.613 843.657 412.776 848.858C412.503 853.21 411.845 857.568 411.321 861.898L403.474 864.253L402.707 864.421C359.164 873.867 303.595 863.27 266.068 839.192Q269.197 827.784 272.564 816.443Z"/>
	<path fill="#FEF7E6" d="M489.996 189.685C492.669 189.317 495.707 189.26 498.388 189.533C505.233 190.229 511.441 193.291 515.791 198.685C519.829 203.694 522.33 211.253 521.541 217.757C520.984 222.337 513.593 223.049 509.949 223.894C481.658 230.454 464.884 237.169 441.245 254.445C435.214 259.068 429.593 264.163 423.919 269.21C423.5 267.629 423.099 266.044 422.866 264.423C420.68 249.249 426.649 234.549 435.632 222.568C448.663 205.19 468.407 192.705 489.996 189.685Z"/>
	<path fill="#F6D1B1" d="M203.008 393.756L202.5 393.325C183.568 377.101 168.547 350.785 166.696 325.738C166.021 316.614 167.137 304.377 173.524 297.271C177.613 292.722 183.386 291.312 189.264 291C207.49 290.034 223.502 298.34 236.82 310.374C237.137 321.419 238.074 332.357 239.243 343.342C229.099 333.606 217.584 324.057 204.63 318.389C198.136 315.548 188.064 312.47 181.194 315.357C176.89 317.166 175.541 319.961 173.83 323.997C175.45 323.226 177.154 322.332 178.912 321.941C187.93 319.937 199.74 326.744 207.027 331.423Q206.349 331.736 205.679 332.065C200.905 334.432 197.36 338.312 195.769 343.448C193.545 350.627 195.198 358.565 198.706 365.042C203.725 374.312 211.482 379.897 221.452 382.897L221.272 384.196C214.959 387.05 208.852 390.005 203.008 393.756Z"/>
	<path fill="#FEF7E6" d="M614.298 188.157Q617.386 187.877 620.48 188.085Q623.573 188.293 626.596 188.984C644.74 192.99 661.896 206.369 671.643 221.985C676.985 230.544 680.111 239.687 677.837 249.744C674.127 247.728 670.585 245.32 667.013 243.067C652.955 234.35 637.497 227.064 621.31 223.409C613.246 221.589 604.085 221.494 596.526 218.062C595.282 216.579 594.547 215.117 594.188 213.195C593.165 207.715 595.304 200.964 598.549 196.546C602.512 191.149 607.891 189.015 614.298 188.157Z"/>
	<path fill="#D05049" d="M534.364 512.707C544.237 511.172 557.109 512.769 566.509 516.088C574.167 518.792 579.699 523.056 583.286 530.465C567.832 530.23 554.574 533.008 539.926 537.557C532.334 540.069 524.536 543.084 516.612 544.317C511.391 545.13 504.62 545.484 500.226 542.075C498.592 540.808 497.634 539.094 497.407 537.04C496.982 533.191 499.099 529.165 501.484 526.303C509.183 517.062 522.953 513.812 534.364 512.707Z"/>
	<path fill="#F4A38F" d="M221.452 382.897L222.297 382.166C221.668 379.746 217.183 376.641 215.358 374.527C209.036 367.204 199.962 352.463 205.896 342.817C207.998 339.401 210.858 338.326 214.529 337.253C224.632 345.137 237.16 356.177 242.851 367.763C244.322 370.757 245.064 374.106 245.899 377.322C237.439 378.839 229.181 380.717 221.272 384.196L221.452 382.897Z"/>
	<path fill="#F6D1B1" d="M702.86 275.829C705.519 277.838 711.513 291.981 713.401 295.896L709.215 306.877L707.247 311.403C706.773 299.271 705.504 287.686 702.86 275.829Z"/>
	<path fill="#615281" d="M250.917 543.097C254.938 541.86 258.921 540.632 262.82 539.036C260.726 542.395 258.501 545.394 255.784 548.281C253.939 546.637 252.419 545.065 250.917 543.097Z"/>
</svg>
