<svg xmlns="http://www.w3.org/2000/svg" viewBox="0 0 1024 1024">
  <path fill="#2F1C1C" d="M409 18c24-2 49 0 72 5 59 12 113 47 153 92l19 24 11 16c3 3 7 4 11 6 7 4 12 10 16 17h4l3 1 3 1 4 1 3 1 3 2 3 1 3 2 3 1 3 2 3 2 3 2 3 2 2 2 3 3 2 2c33 33 46 88 45 133a239 239 0 0 1 114 47c25 20 46 44 50 77 4 26-7 53-23 74-43 55-120 79-187 88l5 16 6 32c3 17 5 43 0 59l-7 12c5 10 16 28 13 40s-21 22-31 28c5 10 6 20 4 32l-1 6 5 5c3 5-10 40-12 47h8l7 1 8 1 8 2c15 5 28 15 36 30 4 9 8 23 4 33-2 7-8 11-15 14-48 24-156 10-206-7-8-3-20-7-24-16-5-11 1-33 5-43 2-7 6-14 6-21s-3-33-1-38c2-4 7-5 10-7l-33 3a1098 1098 0 0 1-108-1l-2 10 4 3v5l-5 15-14 33 7 5c13 9 20 25 22 40 1 8 1 17-4 23-11 14-35 19-52 21-40 5-112-4-144-29-6-6-11-12-12-21-2-17 5-35 13-50l5-11c2-6 2-18 2-25 1-6 0-28 4-32 2-3 6-4 10-4l3-21-19-10c-10-6-28-16-31-28-3-11 16-40 22-50l-3-6-1-3-1-3-1-4v-3c0-19 11-49 18-68l-22-3c-20-3-41-8-60-15-30-12-59-30-72-60-10-22-9-44-1-66 14-34 43-59 72-78l28-16c-15-18-29-37-34-61-3-15-2-32 6-45 5-6 12-11 20-12 19-3 35 2 51 13-2-12-2-30-1-42-14 7-29 12-45 14-13 2-29 1-40-8-5-4-9-10-10-17-1-9 4-14 11-18 9-6 17-10 24-18 12-13 19-30 28-45 12-23 26-44 43-64 45-51 98-74 165-78Z"/>
  <path fill="#73659E" d="M280 639c6-1 13-2 19-5 2 0 4-1 5-3-2-2-32-3-37-4-29-2-59-7-87-16-29-9-60-25-75-53-9-18-10-37-4-56 17-49 72-81 115-103 17-8 34-13 53-7 21 7 37 23 47 43 7 14 11 30 6 45-2 6-6 11-10 16-16 16-49 31-70 37-11 3-26 6-35 11v1l1 1c11 5 32 1 43-3l5 5-12 10-14 10h-1c14-1 26-6 35-16 5-6 7-11 9-18l21-11c2 16 6 37 19 48 4 3 8 4 12 4 13 33 37 65 69 80 10 4 20 7 30 5 23 20 52 32 81 39l48 9c8 2 30 11 35 11 7-1 14-6 21-9l20-14 12-11c5-3 11-3 16-5a122 122 0 0 0 60-52c1-3 4-12 6-13l1 1v-1l5 17c6 23 15 66 9 89-3 12-12 19-23 25-19 11-41 18-62 23-98 26-219 24-317-3-23-7-48-16-69-29-9-5-19-13-23-23-2-3-2-6-2-10-1-17 12-49 18-66l20 1Z"/>
  <path fill="#615281" d="m273 534 21-11c2 16 6 37 19 48 4 3 8 4 12 4 13 33 37 65 69 80 10 4 20 7 30 5 23 20 52 32 81 39l48 9-8 1-30-1c-70-9-135-46-183-97l-32-39-15-19c-4-3-15-2-21-1 5-6 7-11 9-18Zm-13 104 20 1-10 66-2 22-1 10c-9-5-19-13-23-23-2-3-2-6-2-10-1-17 12-49 18-66Z"/>
  <path fill="#FEF7E6" d="M731 362c28 37 37 85 34 131-3-6-9-15-15-18h-2v4l4 18 3 15 1 15c0 18-3 35-10 51-4 8-9 17-15 23v-12l-1-4v-3l-1-4-1-4-1-3-9 30c-11 30-37 55-66 69l-3 2-2-11a154 154 0 0 1-61 46c-13-6-27-11-42-14l-30-5c-31-6-61-18-85-39l-25-25c1 9 3 17 9 25-9-2-18-6-26-11-26-17-44-45-53-74l-7-30c-4 10-6 19-6 29-13-12-16-29-17-45 7-5 15-10 21-17 11-13 13-28 12-45l16-8c13-10 23-20 30-35 9 15 23 23 40 26l3 1c-8 6-16 19-17 28-1 5 0 10 4 14 5 7 16 9 25 10h4c6 7 13 11 22 12h35c-6 10-13 24-10 37v1l1 1v1l1 1v1l1 1 1 1v1l1 1h1v1h1l1 1h1c10 6 24 2 34-1 13-5 26-10 40-11l23 1c12 2 30 7 41 0 5-4 8-9 9-14 3-14-1-32-7-45 19 4 41 4 57-7 4-3 8-7 9-12v-2c8-1 17-3 22-10l1-1 1-2 1-1v-2l1-1v-5c-2-12-14-22-23-29a51 51 0 0 0 24-48Z"/>
  <path fill="#F6D1B1" d="m353 448-3 21a172 172 0 0 0 84 153c5 3 11 4 16 8l11 11 9 8 9 7 10 6 10 5 24 10c15 5 63 17 71 27l-8 3c-13-6-27-11-42-14l-30-5c-31-6-61-18-85-39l-25-25c1 9 3 17 9 25-9-2-18-6-26-11-26-17-44-45-53-74l-7-30c-4 10-6 19-6 29-13-12-16-29-17-45 7-5 15-10 21-17 11-13 13-28 12-45l16-8Z"/>
  <path fill="#160E0E" d="M465 504h29c-10 2-20 2-29 0Z"/>
  <path fill="#2F1C1C" d="M579 569h9c3 0 8 0 10 2v2c-3 4-13 5-18 5l-15 1-6-2v-1c4-5 14-6 20-7Z"/>
  <path fill="#D05049" d="M167 227c27-18 38-50 55-77 18-30 41-59 69-79 50-36 116-47 176-37 75 12 135 57 178 117l-7-1a362 362 0 0 0-274 52c-3-4-7-8-12-9-8-2-14 1-21 4l-4-5c-4-3-8-5-13-5-10 1-17 9-23 16-5 0-8 0-13 2-17 7-25 29-31 45l2-12 2-12 4-12 3-12 5-12 5-11 6-11 6-10 18-26c-18 10-32 26-43 44-8 20-15 39-19 61-19 10-49 22-71 15-5-1-11-4-13-9-1-1-2-4-1-6 2-3 12-7 16-10Z"/>
  <path fill="#814239" d="M255 176c-8 20-15 39-19 61-19 10-49 22-71 15-5-1-11-4-13-9-1-1-2-4-1-6 2-3 12-7 16-10l2 1c16 3 55-22 67-32l19-20Z"/>
  <defs>
    <linearGradient id="a" x1="585.3" x2="485.3" y1="441.2" y2="210.5" gradientUnits="userSpaceOnUse">
      <stop offset="0" stop-color="#FCB59B"/>
      <stop offset="1" stop-color="#FAD7B0"/>
    </linearGradient>
  </defs>
  <path fill="url(#a)" d="M531 207c18-3 35-3 54-3l-1 2c0 6 0 13 4 18 6 7 19 7 27 9 12 2 24 7 35 12 7 4 21 15 27 15 4 0 7-2 10-4 8 24 11 48 9 74l-3 1-5 5c2 3 17 1 27 12 5 5 7 13 7 20v3l-1 2v4l-1 2v2l-1 2-1 2-1 2-1 1-1 2-1 2-1 1-1 2-1 1-2 2-10 7-9-4-17-6-14-3c-2-7-3-12-7-19 13-6 22-17 27-30 6-20 3-44-6-62-7-13-18-25-32-30h-2l-2-1h-4l-2-1h-6l-2 1h-4l-2 1-2 1h-2l-2 1-2 1c-13 7-21 19-25 33-6 20-4 42 4 61-7 3-14 5-18 12v2l17-4c17-4 39-1 51 13l1 2 2 2 1 1 1 2 1 2 1 2v2l1 1 1 2v2l1 2v14c-2 10-7 19-17 26-12 9-29 10-44 8-13-3-27-9-35-20-4-4-6-9-7-14 0-7 4-13 8-18l-4 1c-6 2-9 6-12 11-38-2-72 10-102 33-5-1-11-1-16-3-14-4-25-13-32-26 8-28 4-57-2-85-2-7-5-16-5-24 0-6 8-31 11-39 7-6 15-10 23-14-2 7-3 14-2 21 0 6 1 13 6 16 2 2 4 3 7 2 5-1 17-13 22-17l14-9q7-5 15-8l13-5 14-5c6-1 14-2 20-5l7-5c3-6 2-13 1-19Z"/>
  <path fill="#F4A38F" d="M673 395c0-3-5-11-5-15 0-10 6-20 13-26 11-9 20-7 34-6 5 5 7 13 7 20v3l-1 2v4l-1 2v2l-1 2-1 2-1 2-1 1-1 2-1 2-1 1-1 2-1 1-2 2-10 7-9-4-17-6Z"/>
  <path fill="#F6D1B1" d="m690 401 2-2c5-1 14-3 17-1l-10 7-9-4Z"/>
  <path fill="#F4A38F" d="M552 419c5 1 9 4 13 6 8 3 17 6 25 6 17 2 34-3 47-15l10-11h1c-2 10-7 19-17 26-12 9-29 10-44 8-13-3-27-9-35-20Z"/>
  <path fill="#2F1C1C" d="M496 257c13-2 25 1 35 9 15 11 23 28 25 46 3 19-1 41-13 57a59 59 0 0 1-41 22c-14 1-26-1-36-9a65 65 0 0 1-25-44v-3l-1-4v-8l1-4v-3l1-4 1-4 1-3 1-4 1-3 2-4 1-3 2-4 2-3 3-3c9-13 24-22 40-24Z"/>
  <path fill="#FEF7E6" d="M498 267c10-2 20 2 28 7 12 9 19 24 21 38 3 17 1 35-10 49-9 12-21 18-36 20-11 1-22-1-31-8-11-8-17-21-19-35-3-17 1-36 12-50 9-12 21-19 35-21Z"/>
  <path fill="#2F1C1C" d="m514 307 7 1c6 3 9 7 11 13 3 8 3 17-1 25-3 6-7 10-14 12-3 0-7-1-10-3-6-3-9-9-10-15-2-9 0-18 5-25 3-5 7-7 12-8Z"/>
  <path fill="#FEF7E6" d="M521 323c2 0 3 1 4 3l1 1v4c0 3-2 4-4 6l-4-2-2-5 5-7Z"/>
  <path fill="#F4A38F" d="M422 372c8 0 16 0 23 4 6 3 13 8 15 15 1 6 0 12-3 16-4 8-12 12-21 14l-2 1c-8 1-18-1-25-7-6-4-10-10-11-17-1-5 1-12 5-16 5-6 12-9 19-10Z"/>
  <path fill="#73659E" d="M785 348c39 1 97 34 125 62 16 18 27 36 26 60 0 29-16 54-36 73-40 38-109 62-163 67 19-17 29-46 30-71 1-11 0-23-2-33l7-2c4-3 4-8 4-13 8 4 12 9 18 14l12 8c11 4 20 6 31 5-13-6-27-10-38-19 16 3 32 4 48-3-24-1-49-5-70-16 0-15-1-30-4-44 14-17 25-35 24-58-1-12-6-20-12-30Z"/>
  <path fill="#615281" d="M776 491c8 4 12 9 18 14l12 8-10-1c-5 3-27 23-29 27 1-11 0-23-2-33l7-2c4-3 4-8 4-13Z"/>
  <path fill="#F6D1B1" d="M313 197h3c3 1 4 2 5 4 2 3 2 5 1 8l-9 16-7 18-7 19c-2 8-8 37-3 44h2l1-1c2-4 5-21 6-26 4-20 16-51 28-67 3-5 7-8 12-9 3 0 6 0 8 2 5 4 6 9 6 14-16 14-26 43-30 64-2 6-5 26 0 32l2 1c2-1 2-3 3-5l3-23c4-16 14-46 25-58 2-2 5-4 8-4l8 2c2 3 3 7 3 10 2 15-5 31-10 45l-3 10c0 7 5 21 7 28 3 15 6 30 6 45 1 12-1 25-5 37-7 21-22 34-41 43l-2-5-3-6-2-5-3-6-3-5-3-5-3-4-4-5-1-1-2-2-1-1-2-2-1-1-1-1-2-2-2-1-1-1-2-1-1-1-2-1-2-1-1-1-2-1-2-1-2-1-1-1-2-1-2-1h-2l-2-1h-2l-2-1-2-1h-3l-2-1h-4l-2-1h-2c-10-37-14-85-2-122 5-17 14-35 31-43l-2 2c-11 20-27 71-20 94 0 1 0 2 2 3l2-4c2-5 4-23 5-30l4-14 4-14 5-14 6-13c5-9 11-22 21-25Z"/>
  <path fill="#73659E" d="m243 734 23 17c35 20 75 31 115 38 94 17 194 15 286-10 23-7 46-15 66-29 3 6 12 20 10 27-3 9-20 18-28 22-25 12-54 20-81 26a675 675 0 0 1-338-13l-25-10-24-12c-8-5-18-11-23-20 4-12 12-25 19-36Z"/>
  <path fill="#615281" d="m243 734 23 17-13 27-6 12c-8-5-18-11-23-20 4-12 12-25 19-36Z"/>
  <path fill="#473434" d="m258 848 19 11c37 18 96 27 136 14l-17 39c-25-6-56-2-78 11l-3 4 15-3c22-5 49-7 71 2l12 9c8 9 13 23 12 35 0 4-1 6-4 9s-8 5-13 7a228 228 0 0 1-153-13c-5-3-11-6-15-11-8-10 1-36 6-46 3-7 8-14 9-21l2-18 1-29Zm310 15 2 1c44 18 104 18 148 0l-10 36c-19 4-44 7-58 21l25-5c28-6 61-9 87 6 10 8 16 17 18 30 0 4 1 10-2 13-7 8-43 14-54 14-46 4-101-3-145-16-6-2-16-4-20-9-10-9 8-44 9-55 2-12 0-24 0-36Z"/>
  <path fill="#F6D1B1" d="M694 189c25 7 43 23 55 45 20 35 29 82 24 122-1 9-4 17-6 25 7-5 11-11 15-19l2 4 1 5c5 19-5 37-14 53-7-27-18-51-36-73-7-8-16-14-25-19 3-12 9-23 12-35-5-14-11-27-18-40l-10-16-10-20c5-3 7-7 10-12 18 12 32 31 43 50l8 17 2 2c3-5 1-13 0-17-6-21-23-43-40-55l-12-8-1-9Z"/>
  <path fill="#D05049" d="M553 155c33-2 68 2 99 11 8 2 17 4 23 9 5 5 8 13 9 21 0 6-2 10-6 15-7-9-15-16-25-22-13-9-29-14-44-11-10 2-16 7-21 15-20-1-41 0-61 3l-8-8c-8-8-17-9-28-9-23 2-45 15-60 32-4 4-6 10-11 14-3 3-9 5-13 7l-15 8c-1-7-3-18-10-22l-8-2c-2-1-4-1-5-3 2-3 17-11 21-14 51-28 105-42 163-44Z"/>
  <path fill="#FEF7E6" d="M484 472c-15 7-33 11-50 10-5-1-11-2-14-6l-2-7c2-12 18-26 28-33 25-19 58-30 90-26 3 11 9 20 18 26s18 9 29 12c-30 23-73 51-113 47-6 0-12-2-18-5l7-1c11-4 18-9 25-17Z"/>
  <path fill="#F6D1B1" d="M554 436c9 6 18 9 29 12-30 23-73 51-113 47-6 0-12-2-18-5l7-1h1c9 4 35-5 43-9 20-8 43-23 51-44Z"/>
  <path fill="#FEF7E6" d="m624 260 5-1 5 1c11 2 20 9 26 18 11 16 16 37 12 56-3 17-11 23-24 32l-4-4-1-2a61 61 0 0 0-45-13l-5-10-2-10c-3-17-2-37 8-51 6-9 14-14 25-16Z"/>
  <path fill="#2F1C1C" d="m623 302 7 1c5 1 9 5 12 10 3 6 4 15 2 22-2 6-6 10-12 13l-8-1c-5-2-9-6-11-11-3-7-4-16-1-23 2-5 6-9 11-11Z"/>
  <path fill="#FEF7E6" d="M632 315c2 0 3 1 5 4v6c0 2-1 3-3 4l-5-2-2-5c1-3 2-5 5-7Zm27 87c20 3 46 14 59 31 1 3 3 6 2 9 0 2-2 5-4 6l-7 3c-4 1-21 1-22 5 1 3 4 4 7 5l1 1-2 2c-16 17-49 11-69 4-13-5-24-13-38-13l6-6c12 1 22 0 34-4 12-5 23-14 28-27 3-5 4-10 5-16Z"/>
  <path fill="#F6D1B1" d="M592 449c12 1 22 0 34-4 9 13 25 18 40 20h21c2-2 4-4 6-4h1l1 1-2 2c-16 17-49 11-69 4-13-5-24-13-38-13l6-6Z"/>
  <path fill="#814239" d="m712 814 2 2c4 9 4 28 0 38a207 207 0 0 1-137 1l-1-8c47-6 92-15 136-33Zm-439 2c43 19 93 28 140 33l-2 13-8 2c-44 10-99-1-137-25l7-23Z"/>
  <path fill="#FEF7E6" d="M490 190h8c7 0 13 3 18 9 4 5 6 12 6 19-1 4-8 5-12 6-28 6-45 13-69 30l-17 15-1-5c-2-15 4-29 13-41 13-18 32-30 54-33Z"/>
  <path fill="#F6D1B1" d="M203 394v-1c-19-16-34-42-36-67-1-9 0-22 7-29 4-4 9-6 15-6 18-1 35 7 48 19l2 33c-10-9-21-19-34-25-7-2-17-6-24-3-4 2-5 5-7 9l5-2c9-2 21 5 28 9l-1 1c-5 2-9 6-10 11-2 8-1 16 3 22 5 9 12 15 22 18v1l-18 10Z"/>
  <path fill="#FEF7E6" d="M614 188h6l7 1c18 4 35 17 45 33 5 9 8 18 6 28l-11-7c-14-9-30-16-46-20-8-1-17-2-24-5-2-1-2-3-3-5-1-5 1-12 5-16 4-6 9-8 15-9Z"/>
  <path fill="#D05049" d="M534 513c10-2 23 0 33 3 7 3 13 7 16 14-15 0-28 3-43 8-8 2-15 5-23 6-6 1-12 1-17-2l-3-5c0-4 2-8 4-11 8-9 22-12 33-13Z"/>
  <path fill="#F4A38F" d="m221 383 1-1c0-2-5-5-7-7-6-8-15-23-9-32 2-4 5-5 9-6 10 8 22 19 28 31l3 9-25 7v-1Z"/>
  <path fill="#F6D1B1" d="M703 276c3 2 9 16 10 20l-4 11-2 4c0-12-1-23-4-35Z"/>
  <path fill="#615281" d="m251 543 12-4-7 9-5-5Z"/>
</svg>
