<svg width="1024" height="1024" viewBox="0 0 1024 1024" xmlns="http://www.w3.org/2000/svg">
	<defs>
		<linearGradient id="gradient_0" x1="166.97086" y1="751.2558" x2="157.40947" y2="739.1682" gradientUnits="userSpaceOnUse">
			<stop offset="0" stop-color="#000000"/>
			<stop offset="1" stop-color="#230c18"/>
		</linearGradient>
		<linearGradient id="gradient_1" x1="448.02634" y1="236.04076" x2="436.99716" y2="224.70949" gradientUnits="userSpaceOnUse">
			<stop offset="0" stop-color="#000000"/>
			<stop offset="1" stop-color="#301919"/>
		</linearGradient>
		<linearGradient id="gradient_2" x1="582.81177" y1="191.04524" x2="593.1949" y2="176.90262" gradientUnits="userSpaceOnUse">
			<stop offset="0" stop-color="#000000"/>
			<stop offset="1" stop-color="#301216"/>
		</linearGradient>
		<linearGradient id="gradient_3" x1="246.48943" y1="422.06247" x2="216.50804" y2="440.14532" gradientUnits="userSpaceOnUse">
			<stop offset="0" stop-color="#000000"/>
			<stop offset="1" stop-color="#31121c"/>
		</linearGradient>
	</defs>
	<path fill="#321018" stroke="none" d="M 260.9 110.02 C 265.44 88.2 275.23 68.1 292.62 53.65 C 299.98 47.54 312.73 38.62 322.89 40.03 C 324.53 40.25 325.3 40.84 326.28 42.12 C 327.12 47.54 318.65 54.69 315.4 58.53 C 306.34 69.25 302.27 84.17 298.73 97.48 C 304.93 87.27 312.24 78.14 321.87 70.94 C 331.93 63.41 352.47 54.08 365.28 56.47 C 367.01 56.79 367.75 57.4 368.77 58.78 C 369.18 61.17 368.23 63.16 366.79 65.02 C 364.08 68.52 360.03 71.03 356.77 74 C 349.85 80.29 343.91 88.32 339.4 96.51 Q 345.26 94.59 351.18 92.88 Q 357.1 91.16 363.08 89.65 Q 369.06 88.14 375.09 86.84 Q 381.11 85.54 387.18 84.45 Q 393.25 83.35 399.35 82.47 Q 405.46 81.59 411.59 80.92 Q 417.71 80.25 423.86 79.79 Q 430.01 79.33 436.17 79.09 C 437.52 73.29 439.39 68.01 444.71 64.65 C 451.8 60.16 460.89 61.41 468.68 62.96 C 469.35 61.93 470.02 60.9 470.75 59.91 C 473.64 56.03 477.92 53.74 482.69 53.17 C 495.95 51.58 510.93 61.88 524.19 65.31 C 541.63 69.82 559.89 71.14 577.08 76.54 Q 583.24 78.49 589.11 81.21 Q 594.98 83.92 600.46 87.34 C 621.54 100.59 636.55 122.3 653.55 140.07 Q 670.08 157.56 687.56 174.1 Q 705.04 190.64 723.41 206.18 Q 742.58 222.17 762.67 236.96 Q 782.77 251.76 803.72 265.31 C 821.75 276.94 841.27 286.62 857.93 300.26 C 860.64 302.49 866.48 307.37 866.26 311.19 C 866.19 312.33 865.82 312.96 864.83 313.55 C 859.05 317 840.16 313.1 833.94 311.51 Q 834.47 311.83 835 312.15 C 857.4 326.29 893.69 352.38 907.04 375.42 C 909.51 379.68 910.86 383.71 911.92 388.51 C 902.64 389.03 894.8 384.65 886.42 381.26 C 905.61 396.95 925.1 415.09 939.13 435.7 C 942.96 441.33 955.47 461.17 953.06 468.4 C 952.72 469.44 952.03 470.04 950.95 470.25 C 946.29 471.12 935.25 462.21 931.4 459.62 C 943 470.26 957.44 490.74 964.87 504.8 C 969.11 512.82 979.59 536.53 976.92 545.16 C 976.05 546.05 975.76 546.48 974.39 546.35 C 969.28 545.89 957.68 535.12 953.76 531.31 C 972.04 565.77 979.96 607.49 969.41 645.63 C 968.05 650.52 963.87 665.01 958.74 667.04 C 957.46 667.55 956.85 667.16 955.67 666.68 C 951.29 661.66 949.83 650.09 948.82 643.51 C 941.64 656.88 934.16 669.71 923.47 680.69 C 918.1 686.2 904.59 699.02 896.32 698.81 C 895.07 698.78 893.93 698.43 893.14 697.4 C 892.2 696.18 892.09 694.55 892.22 693.07 C 892.77 686.78 895.5 680.33 897.27 674.28 C 898.91 668.69 900.2 663.04 901.43 657.35 C 886.16 672.64 868 682.73 849.59 693.64 C 840.87 698.81 832.23 704.3 823.14 708.78 C 818.95 710.85 811.01 714.88 806.39 712.75 C 805.29 712.24 804.46 711.19 804.21 710 C 802.86 703.68 811.35 692.15 814.81 687.28 C 799.89 696.45 782.42 705.55 765.41 709.92 C 762.1 710.77 758.06 711.88 754.93 710.05 C 754.47 709.36 754.04 708.96 753.97 708.1 C 753.35 701.16 766.27 688.09 770.82 682.99 C 751.29 691.25 730.85 697.88 711.93 707.47 C 707.36 709.78 702.71 712.32 698.46 715.2 C 693.42 718.63 688.17 724.03 682.4 726.03 C 680.69 726.62 678.89 726.78 677.28 725.75 C 676.11 725.01 675.46 723.82 675.18 722.5 C 673.59 715 680.65 701.54 684.55 695.52 C 670.05 703.29 655.2 710.32 640.76 718.27 C 650.78 738.78 662.33 758.53 672.36 779.07 Q 677.71 789.76 682.71 800.61 Q 687.72 811.47 692.37 822.47 Q 697.03 833.48 701.33 844.63 Q 705.63 855.78 709.57 867.06 Q 713.52 878.34 717.1 889.74 Q 720.68 901.15 723.9 912.66 Q 727.11 924.17 729.96 935.77 Q 732.8 947.38 735.28 959.07 C 731.83 959.94 728.4 960.91 724.97 961.83 L 720.87 962.82 Q 705.86 966.4 690.74 969.49 Q 675.62 972.58 660.41 975.19 Q 645.21 977.79 629.92 979.9 Q 614.64 982.01 599.29 983.63 Q 583.95 985.24 568.56 986.36 Q 553.17 987.48 537.75 988.11 Q 522.33 988.73 506.9 988.85 Q 491.47 988.98 476.05 988.6 C 460.71 988.13 445.12 987.66 429.87 986 C 417 986 402.01 983.6 389.12 982.06 L 306.73 971.49 C 303.4 971.37 299.84 970.69 296.56 970.12 C 292.02 969.51 287.42 969.19 282.86 968.76 C 282.16 963.54 282.04 957.92 282 952.64 C 279.64 954.71 277.08 956.61 274.53 958.42 C 270.34 961.39 261.14 967.53 255.84 965.91 C 254.58 965.53 254.37 965.02 253.8 963.96 C 253.7 957.67 263.24 937.61 266.31 930.25 C 262.49 935.23 259.21 940.64 255.41 945.64 C 251.81 950.38 239.86 965.25 233.38 965.42 C 232.14 965.45 231.27 964.86 230.5 963.95 C 226.26 958.89 229.08 943.7 230.05 937.87 C 226.55 947.37 224.24 956.7 221.56 966.43 C 220.86 968.98 220 972.87 217.3 973.94 C 215.86 974.51 214.4 974.3 213.03 973.68 C 210.09 972.36 207.65 969.67 205.47 967.35 C 194.05 955.22 187.61 940.7 181.73 925.35 C 182.31 929.71 182.57 934.09 183.22 938.45 C 184 943.71 187.61 955.9 186.6 960.49 C 186.3 961.83 185.93 961.98 184.89 962.73 C 183.09 962.82 181.95 962.24 180.51 961.24 C 164.01 949.75 155.93 927.37 152.64 908.45 C 152.51 916.04 153.49 925.64 151.28 932.86 C 150.76 934.54 150.25 935.62 148.68 936.5 C 147.8 936.47 147.49 936.54 146.7 936.09 C 144.48 934.83 142.76 931.96 141.37 929.88 C 134.02 918.85 129.45 906.93 126.37 894.11 C 125.59 898.32 125.03 903.14 122.94 906.92 C 122.11 908.4 121.27 909.28 119.59 909.74 C 117.84 909.47 116.93 908.81 115.85 907.47 C 113.24 904.2 111.61 899.69 110.19 895.81 C 102.11 873.69 103.86 851.04 106.32 828.14 C 103.4 834.65 100.77 844.38 95.77 849.4 C 94.57 850.61 93.61 850.78 91.97 850.79 C 90.5 850.03 89.81 849.21 89.08 847.76 C 86.96 843.6 86.07 838.21 85.36 833.63 C 81.93 811.57 86.9 798.35 93.77 778.25 C 85.67 782.68 77.64 785.59 68.28 785.61 C 65.62 785.62 63.46 785.56 61.48 783.61 C 59.73 779.88 62.4 776.54 64.96 773.99 C 68.5 770.46 72.39 767.14 75.6 763.3 C 86.07 750.78 90.06 734.39 93.57 718.88 C 88.09 725.47 82.57 732.41 75.89 737.84 C 73.49 739.78 70.72 741.88 67.49 741.54 C 66.53 740.91 66.11 740.71 65.65 739.61 C 64.47 736.8 65.47 732.41 65.91 729.46 C 68.47 712.11 74.24 697.22 81.3 681.33 C 79.18 682.48 77.06 683.63 74.87 684.64 C 69.55 687.09 53.25 693.21 47.89 690.72 C 46.8 690.22 45.97 689.41 45.69 688.21 C 45.41 687.03 45.8 685.69 46.32 684.63 C 48.22 680.73 52 677.52 54.77 674.2 C 58.08 670.22 60.95 665.55 63.08 660.84 C 67.48 651.1 69.59 640.61 72.66 630.42 C 75.06 622.5 78.27 615.09 82.27 607.86 C 78.71 608.9 73.32 610.8 69.73 609.28 C 68.56 608.79 67.68 608.06 67.27 606.82 C 65.77 602.19 71.08 595.12 73.53 591.47 C 85.65 573.4 100.27 558.03 118.21 545.63 C 130.5 537.13 143.21 529.51 154.05 519.08 C 164.81 508.72 172.23 496.93 178.37 483.45 C 156.89 465.21 141.06 445.01 131.35 418.33 C 122.08 392.85 117.01 361.9 128.99 336.54 C 136.35 320.95 148.32 311.95 164.26 306.29 C 166.17 298.64 167.83 291 170.06 283.41 C 181.45 244.67 196.01 215.79 215.82 181.13 C 207.3 182.36 172.15 188.68 166.55 185.49 C 165.42 184.84 164.4 183.77 164.2 182.43 C 163.78 179.63 165.93 176.45 167.65 174.46 C 181.94 157.88 212.57 149.05 233.95 147.21 Q 233.63 146.33 233.34 145.43 C 226.19 122.97 228.6 95.34 239.61 74.51 C 242.97 68.16 248.23 60.04 255.59 58.02 C 256.75 57.71 258.19 57.64 259.21 58.36 C 260.99 59.62 261.46 62.04 261.56 64.1 C 261.77 68.5 260.18 72.93 259.64 77.27 C 258.36 87.41 258.82 99.4 260.79 109.47 L 260.9 110.02 Z M 675.27 357.46 C 719.99 402.45 736.72 436.73 758.04 495.87 Q 752.19 504.53 746.2 513.09 C 756.04 511.36 766.16 509.69 776.12 508.9 C 781.03 508.35 786.01 507.57 790.94 507.36 C 780.23 484.43 770.14 461.18 758.99 438.46 C 739.24 398.21 714.2 354.51 687.04 318.95 C 681.79 312.09 676.08 302.67 668.88 297.82 C 671.2 317.68 672.78 337.63 675.27 357.46 Z"/>
	<path fill="#b24f49" stroke="none" d="M 417.94 687.84 C 442.92 699.49 470.26 708.56 498.03 709.52 C 508.13 709.86 518.25 708.22 528.32 709.05 C 536.25 709.7 544.02 712.13 551.92 713.19 C 573.46 716.08 594.77 714.29 615.82 709.2 Q 622.69 720.87 629.23 732.72 Q 635.77 744.57 641.99 756.6 Q 648.2 768.63 654.08 780.82 Q 659.96 793.01 665.5 805.37 Q 671.03 817.72 676.23 830.22 Q 681.43 842.72 686.28 855.36 Q 691.12 868 695.62 880.76 Q 700.12 893.53 704.26 906.42 C 709 921.04 714.93 936.19 717.95 951.25 C 718.38 953.37 719.27 961.84 720.87 962.82 Q 705.86 966.4 690.74 969.49 Q 675.62 972.58 660.41 975.19 Q 645.21 977.79 629.92 979.9 Q 614.64 982.01 599.29 983.63 Q 583.95 985.24 568.56 986.36 Q 553.17 987.48 537.75 988.11 Q 522.33 988.73 506.9 988.85 Q 491.47 988.98 476.05 988.6 C 460.71 988.13 445.12 987.66 429.87 986 C 417 986 402.01 983.6 389.12 982.06 L 306.73 971.49 C 304.87 960.95 306.56 942.59 302.4 933 C 305.32 928.06 309.14 923.44 312.39 918.69 Q 321.05 906 328.8 892.74 Q 345.4 864.2 359.71 834.46 C 364.54 824.32 368.88 813.95 373.68 803.79 C 390.88 766.1 403.61 726.63 417.94 687.84 Z"/>
	<path fill="#8b3b3a" stroke="none" d="M 373.68 803.79 C 377.67 811.22 380.88 819.21 384.32 826.92 C 406.24 876.01 423.45 932.6 429.87 986 C 417 986 402.01 983.6 389.12 982.06 L 306.73 971.49 C 304.87 960.95 306.56 942.59 302.4 933 C 305.32 928.06 309.14 923.44 312.39 918.69 Q 321.05 906 328.8 892.74 Q 345.4 864.2 359.71 834.46 C 364.54 824.32 368.88 813.95 373.68 803.79 Z"/>
	<path fill="#321018" stroke="none" d="M 588.05 754.9 C 590.72 757.57 596.4 773.79 598.87 778.4 Q 605.57 790.66 614.16 801.67 C 618.07 806.72 622.23 811.93 626.73 816.46 C 633.09 822.86 649.31 834.72 652.53 841.78 C 653.04 842.91 653.05 843.41 652.6 844.54 C 647.5 845.76 632.3 838.74 626.81 836.74 C 631.92 843.22 637.05 849.67 641.08 856.91 C 644.62 863.27 652.07 884.34 649.18 891.37 C 648.71 892.53 648.2 892.58 647.11 892.97 C 641.45 892.01 636.23 884.75 632.48 880.67 C 637.45 891.14 643.63 919.22 639.51 930.14 C 638.93 931.68 638.27 932.24 636.79 932.9 C 634.78 932.51 633.44 930.85 632.11 929.33 C 628.55 925.23 625.79 920.43 622.61 916.02 C 615.64 906.34 608.02 896.34 599.76 887.72 C 606.31 892.56 612.48 897.56 618.4 903.17 C 624.87 909.6 630.1 916.88 635.12 924.45 C 632.66 890.64 627.2 880.64 605.71 855.04 C 619.2 863.98 632.42 872.92 643.36 884.99 C 640.61 859.2 622.86 840.5 604.74 823.71 C 616.16 827.94 627.92 831.31 639.44 835.3 Q 637.92 834.26 636.47 833.14 C 614.15 815.93 591.68 783.25 588.05 754.9 Z"/>
	<path fill="#df715e" stroke="none" d="M 615.82 709.2 L 620.28 707.83 Q 627.19 719.17 633.78 730.71 Q 640.36 742.25 646.61 753.97 Q 652.86 765.69 658.78 777.58 Q 664.69 789.48 670.26 801.54 Q 675.83 813.6 681.04 825.81 Q 686.26 838.03 691.13 850.39 Q 696 862.75 700.51 875.25 Q 705.01 887.74 709.16 900.36 C 713.72 913.9 717.18 928 720.36 941.93 C 721.82 948.33 722.54 955.73 724.97 961.83 L 720.87 962.82 C 719.27 961.84 718.38 953.37 717.95 951.25 C 714.93 936.19 709 921.04 704.26 906.42 Q 700.12 893.53 695.62 880.76 Q 691.12 868 686.28 855.36 Q 681.43 842.72 676.23 830.22 Q 671.03 817.72 665.5 805.37 Q 659.96 793.01 654.08 780.82 Q 648.2 768.63 641.99 756.6 Q 635.77 744.57 629.23 732.72 Q 622.69 720.87 615.82 709.2 Z"/>
	<path fill="#df715e" stroke="none" d="M 302.4 933 C 306.56 942.59 304.87 960.95 306.73 971.49 C 303.4 971.37 299.84 970.69 296.56 970.12 C 296.55 960.52 296.74 950.99 295.41 941.45 C 297.85 938.74 300.11 935.85 302.4 933 Z"/>
	<path fill="#b24f49" stroke="none" d="M 267.77 441.62 C 267.88 441.55 268 441.48 268.11 441.4 C 274.31 437.36 279.39 431.61 285.53 427.4 C 302.93 415.47 321.71 407.79 342.73 405.31 C 348.05 404.68 353.71 404.04 359.02 405.06 C 377.56 408.65 428.46 458.26 439.21 474.67 Q 441.19 477.66 442.9 480.8 C 442.19 489.88 441.27 499.14 437.7 507.62 C 440.62 510.92 449.5 511.1 453.84 511.62 L 454 511.91 C 454.98 517.55 444.36 557.36 442.28 565.33 Q 431.47 605.82 418.86 645.79 Q 407.66 682.61 394.58 718.79 Q 381.49 754.98 366.55 790.44 C 347.76 834.9 326.66 878.76 298.76 918.3 C 288.31 933.11 277.1 947.49 262.1 957.97 C 268.93 939.91 276.15 921.87 276.63 902.27 L 276.25 902.82 C 272.59 908.14 269.63 913.98 266.3 919.52 C 257.91 933.48 248.03 945.61 235.76 956.39 C 236.02 954.17 236 951.18 236.84 949.15 C 238.7 929.09 238.16 907.93 243.28 888.37 L 242.75 887.85 C 240.97 891.14 240.19 895.03 238.92 898.54 C 238.25 901.18 237.61 903.82 236.78 906.41 C 234.11 917.39 228.81 925.93 224.23 936.06 C 219.58 946.33 217.05 956.76 215.25 967.83 C 213.21 966.08 210.02 963.94 208.75 961.56 C 205.03 957.76 202.03 952.87 199.31 948.34 C 190.91 934.38 186 921.37 185.77 905.02 C 185.25 901.37 185.03 897.69 184.59 894.03 C 180.2 919.29 173.83 924.66 179.47 952.67 C 170.72 942.28 162.84 928.54 160.18 915.09 C 157 903.61 157.13 890.42 159.67 878.86 C 160.61 873.27 162.19 868.01 164.01 862.65 C 153.63 880 148.2 901.07 146.06 921.1 C 146.07 922.12 146.12 922.86 145.69 923.8 C 144.8 923.28 144.34 922.73 143.78 921.88 C 130.8 902.18 129.59 877.94 134.15 855.5 L 136.02 845.2 C 126.18 861.99 120.71 881.51 118.77 900.74 C 106.82 874.91 109.25 843.54 114.17 816.25 C 115.59 808.4 117.06 800.38 119.64 792.82 C 118.84 791.93 118.01 791.1 117.15 790.26 C 114.36 795.46 111.53 800.65 109.2 806.08 C 104.98 815.89 101.66 826.08 96.11 835.26 C 95.13 837.07 94.12 838.86 93.12 840.65 C 85.1 803.29 101.69 779.05 115.14 746.24 C 116.74 740.22 118.92 734.34 120.36 728.28 C 111.96 742.85 104.37 762.96 90.46 773.15 C 86.94 775.73 83.11 777.37 79.04 778.86 C 75.41 779.51 71.9 779.97 68.22 780.16 C 82.16 766.42 92.5 751.17 96.54 731.72 C 100.08 714.7 99.43 708.04 109.91 693.12 C 113.43 688.08 117.33 683.54 121.45 679 C 114.76 684.07 108.86 689.4 103.46 695.86 C 93.44 707.82 85.05 722.24 73.1 732.42 C 72.61 733.01 72.95 732.76 71.95 732.96 C 71.68 732.17 71.6 732.18 71.58 731.51 C 71.43 727.29 72.99 721.96 73.92 717.8 Q 74.49 715.29 75.16 712.8 Q 75.82 710.31 76.57 707.84 Q 77.31 705.38 78.15 702.94 Q 78.98 700.5 79.91 698.1 Q 80.83 695.69 81.83 693.32 Q 82.83 690.95 83.92 688.61 Q 85.01 686.27 86.18 683.98 Q 87.35 681.68 88.6 679.43 Q 89.85 677.18 91.17 674.97 Q 92.5 672.76 93.91 670.6 Q 95.31 668.44 96.79 666.33 Q 98.27 664.22 99.82 662.17 Q 101.38 660.11 103 658.11 Q 104.63 656.12 106.32 654.17 Q 108.02 652.23 109.78 650.35 Q 111.54 648.47 113.37 646.66 C 115.28 644.22 117.51 642.12 119.73 639.97 C 96.57 653.45 89.32 674.8 61.96 682.94 C 58.73 684.66 55.37 685.39 51.83 686.12 C 56.09 681.33 60.4 676.54 63.79 671.07 C 75.55 652.08 78.77 628.9 90.62 609.81 C 97.11 599.36 106.69 591.81 114.83 582.77 C 105.68 583.74 89.17 600.97 74.38 604.19 L 73.31 604.26 L 72.94 603.78 C 75.9 598.63 81.76 593.39 85.8 588.87 C 96.46 576.96 107.7 566.46 120.45 556.81 C 147.97 535.97 166.45 528.76 184.27 496.01 C 185.13 493.97 186.06 492.02 187.1 490.07 C 206.55 499.16 213.75 503.95 236.03 504.02 C 233.3 511.99 230.11 519.77 226.02 527.16 C 222.59 533.36 218.56 539.26 215.46 545.63 C 236.36 537.58 249.03 531.76 264.41 514.84 C 257.32 541.72 248.94 567.88 235.35 592.26 C 251.5 584.58 265.76 576.2 278.47 563.36 C 278.49 566.78 278.32 570.34 278.58 573.75 C 280.58 586.71 281.81 599.76 287.37 611.83 C 279.17 623.43 270.62 635.06 261.27 645.77 C 253.86 633.43 246.28 621.23 237.09 610.12 C 232.34 604.39 226.93 599.25 222.1 593.59 C 213.46 586.38 203.77 578.48 193.3 574.17 L 192.84 574.44 L 194.4 575.75 C 221.5 591.85 242.79 625.87 257.15 653.2 C 252.45 658.89 247.84 665.57 242.57 670.68 Q 232.22 682.31 222.17 694.19 C 217.73 699.43 213.49 705.32 208.3 709.84 C 206.89 711.06 205.49 711.55 203.74 712.13 C 203.62 712.17 203.49 712.22 203.36 712.27 L 203.9 713.36 C 203.45 717.2 191.01 727.82 187.8 731.23 C 173.82 746.08 161.77 761.79 155.6 781.53 C 154.17 786.11 152.36 791.71 152.66 796.55 C 156.92 787.06 161.1 777.37 166.68 768.57 C 180.05 747.49 200.71 731.92 217.62 713.87 C 236.14 694.09 255.44 671.24 272 649.74 Q 299.17 614.41 323.34 576.95 C 333.9 560.34 343.44 542.75 354.61 526.57 C 357.39 520.35 360.98 514.46 364.17 508.45 C 367.91 501.42 371.17 494.31 374.14 486.92 C 368.06 495.81 361.52 504.07 354.35 512.1 Q 344.94 503.14 334.61 495.24 C 324.89 487.78 270.02 450.44 267.77 441.62 Z"/>
	<path fill="#8b3b3a" stroke="none" d="M 270.63 945.71 C 274.54 935.51 278.49 924.51 279.03 913.52 C 279.37 906.54 276.43 900.62 278.98 893.58 C 282.71 883.3 289.2 873.71 294.76 864.32 Q 301.38 853.1 307.4 841.54 Q 334.7 790.04 356.76 736.09 Q 385.62 663.94 410.28 590.24 C 415.81 573.54 420.56 556.56 425.85 539.79 C 429.29 528.91 432.64 517.87 437.7 507.62 C 440.62 510.92 449.5 511.1 453.84 511.62 L 454 511.91 C 453.75 511.92 453.48 511.9 453.23 511.94 C 451.87 512.15 451.37 512.98 450.75 514.12 C 447.8 519.54 446.4 527.22 444.74 533.18 L 436.59 562.33 C 431.44 580.54 426.19 598.89 420.31 616.87 C 416.24 629.32 411.62 641.59 407.51 654.02 C 400.16 676.31 393.27 698.75 385.19 720.79 Q 364.91 775.62 339.8 828.42 C 327.78 854.22 315.35 879.72 300.7 904.15 C 291.82 918.94 280.1 931.44 270.63 945.71 Z"/>
	<path fill="#df715e" stroke="none" d="M 152.66 796.55 C 156.92 787.06 161.1 777.37 166.68 768.57 C 180.05 747.49 200.71 731.92 217.62 713.87 C 236.14 694.09 255.44 671.24 272 649.74 Q 299.17 614.41 323.34 576.95 C 333.9 560.34 343.44 542.75 354.61 526.57 C 355.04 532.7 349.6 540.09 346.91 545.48 C 334.6 570.18 319.73 592.68 304.06 615.35 C 295.72 627.41 287.48 639.61 278.38 651.11 C 265.15 667.83 250.7 683.99 236.71 700.08 C 217.8 721.84 196.73 741.62 178.07 763.59 C 173.01 769.54 167.85 775.6 163.48 782.07 C 160.49 786.51 158.1 791.85 154.73 795.94 C 154.04 796.78 153.74 797.31 152.71 797.66 L 152.66 796.55 Z"/>
	<path fill="#8b3b3a" stroke="none" d="M 278.58 573.75 C 280.58 586.71 281.81 599.76 287.37 611.83 C 279.17 623.43 270.62 635.06 261.27 645.77 C 253.86 633.43 246.28 621.23 237.09 610.12 C 232.34 604.39 226.93 599.25 222.1 593.59 C 230.91 594.12 258.39 620.24 265.58 626.76 C 269.59 615.84 271.69 604.28 273.97 592.91 C 275.16 586.92 275.89 579.16 278.58 573.75 Z"/>
	<path fill="#8b3b3a" stroke="none" d="M 194.4 575.75 C 221.5 591.85 242.79 625.87 257.15 653.2 C 252.45 658.89 247.84 665.57 242.57 670.68 C 241.09 663.78 240.84 656.53 239.5 649.56 C 235.5 628.85 224.81 610.95 211.34 595 C 206 588.67 198.09 583.19 194.4 575.75 Z"/>
	<path fill="#8b3b3a" stroke="none" d="M 204.18 946.05 C 213.51 928.86 219.39 906.84 238.92 898.54 C 238.25 901.18 237.61 903.82 236.78 906.41 C 234.11 917.39 228.81 925.93 224.23 936.06 C 219.58 946.33 217.05 956.76 215.25 967.83 C 213.21 966.08 210.02 963.94 208.75 961.56 C 209.41 960.95 209.84 960.25 210.36 959.51 C 208.56 954.86 206.49 950.47 204.18 946.05 Z"/>
	<path fill="#b24f49" stroke="none" d="M 210.36 959.51 C 211.85 958.09 214.61 947.17 215.82 944 C 219.32 934.75 228.9 912.29 235.69 906.26 L 236.78 906.41 C 234.11 917.39 228.81 925.93 224.23 936.06 C 219.58 946.33 217.05 956.76 215.25 967.83 C 213.21 966.08 210.02 963.94 208.75 961.56 C 209.41 960.95 209.84 960.25 210.36 959.51 Z"/>
	<path fill="#df715e" stroke="none" d="M 114.83 582.77 C 116.05 582.7 116.59 582.83 117.68 583.39 C 117.67 583.67 117.74 583.96 117.66 584.23 C 117.23 585.75 110.89 591.89 109.58 593.48 Q 104.52 599.67 100.13 606.35 C 87.63 625.01 81.84 646.64 71.9 666.58 C 69.08 672.24 65.45 677.68 61.96 682.94 C 58.73 684.66 55.37 685.39 51.83 686.12 C 56.09 681.33 60.4 676.54 63.79 671.07 C 75.55 652.08 78.77 628.9 90.62 609.81 C 97.11 599.36 106.69 591.81 114.83 582.77 Z"/>
	<path fill="#df715e" stroke="none" d="M 184.27 496.01 C 185.13 502.28 176.69 513.25 173.06 517.99 C 157.48 538.38 134.36 550.96 114.74 566.9 C 104.2 575.45 95.86 585.69 86.09 594.97 C 82.46 598.42 77.98 600.77 74.38 604.19 L 73.31 604.26 L 72.94 603.78 C 75.9 598.63 81.76 593.39 85.8 588.87 C 96.46 576.96 107.7 566.46 120.45 556.81 C 147.97 535.97 166.45 528.76 184.27 496.01 Z"/>
	<path fill="#8b3b3a" stroke="none" d="M 286.19 855.69 C 283.88 864.74 281.82 873.92 278.3 882.6 C 275.16 890.32 270.38 897.27 266.27 904.48 C 258.64 917.88 254.14 930.18 242.79 941.66 L 241.99 941.84 C 242.75 938.33 243.23 934.7 243.83 931.15 C 249.29 924.15 253 914.91 257.39 907.19 C 267.14 890.09 278.01 873.66 286.19 855.69 Z"/>
	<path fill="#df715e" stroke="none" d="M 115.14 746.24 C 118.05 755.37 105.33 780.93 102.19 790.72 C 98.31 802.82 93.83 822.47 96.11 835.26 C 95.13 837.07 94.12 838.86 93.12 840.65 C 85.1 803.29 101.69 779.05 115.14 746.24 Z"/>
	<path fill="url(#gradient_0)" stroke="none" d="M 124.17 790.68 Q 127.42 783.02 131.4 775.72 Q 135.38 768.41 140.07 761.54 C 154.89 739.88 176.5 717.3 203.36 712.27 L 203.9 713.36 C 199.3 714.81 194.83 717.8 190.74 720.36 Q 187.2 722.56 183.78 724.92 Q 180.35 727.29 177.03 729.81 Q 173.72 732.33 170.52 735 Q 167.33 737.67 164.26 740.49 Q 161.2 743.31 158.27 746.27 Q 155.34 749.22 152.55 752.32 Q 149.76 755.41 147.12 758.63 Q 144.48 761.85 141.99 765.19 C 135.72 773.45 130.94 782.79 124.17 790.68 Z"/>
	<path fill="#df715e" stroke="none" d="M 113.37 646.66 C 113.74 648.17 113.44 648.72 112.66 650.06 C 107.63 658.69 100.5 666.07 95.48 674.71 C 88.25 687.15 85.76 701.46 80.62 714.73 C 78.33 720.65 74.49 726.17 73.1 732.42 C 72.61 733.01 72.95 732.76 71.95 732.96 C 71.68 732.17 71.6 732.18 71.58 731.51 C 71.43 727.29 72.99 721.96 73.92 717.8 Q 74.49 715.29 75.16 712.8 Q 75.82 710.31 76.57 707.84 Q 77.31 705.38 78.15 702.94 Q 78.98 700.5 79.91 698.1 Q 80.83 695.69 81.83 693.32 Q 82.83 690.95 83.92 688.61 Q 85.01 686.27 86.18 683.98 Q 87.35 681.68 88.6 679.43 Q 89.85 677.18 91.17 674.97 Q 92.5 672.76 93.91 670.6 Q 95.31 668.44 96.79 666.33 Q 98.27 664.22 99.82 662.17 Q 101.38 660.11 103 658.11 Q 104.63 656.12 106.32 654.17 Q 108.02 652.23 109.78 650.35 Q 111.54 648.47 113.37 646.66 Z"/>
	<path fill="#df715e" stroke="none" d="M 109.91 693.12 C 111.06 697.5 105.54 706.09 104.19 710.59 C 100.89 721.6 100.77 733.2 97.65 744.22 C 96.15 749.48 94.18 754.49 91.42 759.21 C 87.79 765.41 81.2 772.12 79.04 778.86 C 75.41 779.51 71.9 779.97 68.22 780.16 C 82.16 766.42 92.5 751.17 96.54 731.72 C 100.08 714.7 99.43 708.04 109.91 693.12 Z"/>
	<path fill="#df715e" stroke="none" d="M 185.77 905.02 L 187.5 904.87 C 190.24 908.3 192.34 918.58 193.84 923.13 C 196.39 930.94 199.4 939.32 204.18 946.05 C 206.49 950.47 208.56 954.86 210.36 959.51 C 209.84 960.25 209.41 960.95 208.75 961.56 C 205.03 957.76 202.03 952.87 199.31 948.34 C 190.91 934.38 186 921.37 185.77 905.02 Z"/>
	<path fill="#df715e" stroke="none" d="M 134.15 855.5 C 135.17 856.1 134.96 855.7 135.19 856.68 C 136.15 860.8 133.72 873.08 135.04 880.78 Q 136.33 888.3 138.61 895.59 C 140.71 902.3 146.32 914.64 146.06 921.1 C 146.07 922.12 146.12 922.86 145.69 923.8 C 144.8 923.28 144.34 922.73 143.78 921.88 C 130.8 902.18 129.59 877.94 134.15 855.5 Z"/>
	<path fill="#df715e" stroke="none" d="M 243.28 888.37 C 243.74 889.14 244.02 889.74 244.11 890.64 C 244.56 894.93 243.9 899.68 243.74 904 C 243.51 909.99 243.79 916 243.84 922 C 243.86 924.99 243.55 928.19 243.83 931.15 C 243.23 934.7 242.75 938.33 241.99 941.84 C 240.9 944.27 239.98 946.73 238.15 948.71 L 236.84 949.15 C 238.7 929.09 238.16 907.93 243.28 888.37 Z"/>
	<path fill="#df715e" stroke="none" d="M 159.67 878.86 C 160.85 880.54 160.54 882.99 160.6 884.97 C 160.87 895.58 162.25 905.36 165.1 915.6 C 164.29 914.33 163.22 912.02 161.89 911.43 C 160.69 912.55 160.93 913.08 160.47 914.51 C 160.4 914.72 160.27 914.9 160.18 915.09 C 157 903.61 157.13 890.42 159.67 878.86 Z"/>
	<path fill="#000000" stroke="none" d="M 117.15 790.26 C 119.35 785.6 122.26 781.93 125.56 777.99 C 123.43 782.89 121.5 787.82 119.64 792.82 C 118.84 791.93 118.01 791.1 117.15 790.26 Z"/>
	<path fill="#8b3b3a" stroke="none" d="M 175.68 897.86 C 176.37 902.29 173.12 925.31 170.8 929.19 L 170 929.02 L 169.49 927.86 L 166.27 918.03 C 171.91 911.7 173.4 905.76 175.68 897.86 Z"/>
	<path fill="#fcc485" stroke="none" d="M 556.95 141.04 C 574.94 140.02 596.95 150.57 610.68 161.59 C 622.85 171.36 635.53 184.8 642 199.19 C 648.53 213.73 649.8 231.37 652.19 247.06 C 657.2 279.98 660.94 312.97 664.65 346.05 C 655.91 340.79 647.46 338.95 637.31 340.04 C 620.46 341.87 603.62 347.92 588.15 354.67 C 536.24 377.32 494.43 411.72 459 455.53 C 450.92 444.03 442.49 433.39 432.56 423.41 C 414.42 405.18 393.64 389.77 375.37 371.66 C 368.79 365.14 362.87 358.04 356.91 350.94 C 356.91 328.16 358.8 305.71 364.79 283.67 C 376.7 239.79 403.58 194.8 444.06 171.91 C 471.67 156.3 490.1 169.11 517.15 176.64 C 527.79 164.84 541.15 145.59 556.95 141.04 Z"/>
	<path fill="#321018" stroke="none" d="M 473.51 226.64 C 482.52 225.68 492.05 228.48 499.87 232.82 C 521.68 244.92 535.89 269.38 542.37 292.81 C 549.13 317.26 547.95 346.34 535.19 368.72 C 526.91 383.22 513.62 392.61 497.65 396.9 C 485.07 399.43 472.74 395.93 462.2 388.92 C 442.57 375.87 432.29 353.49 427.82 331 C 422.34 303.47 425.44 272.57 441.51 248.92 C 449.33 237.41 459.69 229.23 473.51 226.64 Z"/>
	<path fill="#f9f5fb" stroke="none" d="M 475.6 234.59 C 483.75 233.96 492.2 236.77 499.13 240.9 C 518.59 252.46 530.56 275.54 535.85 296.87 C 541.4 319.26 540.25 345.62 527.9 365.68 C 520.73 377.32 510.3 385.54 496.97 388.78 C 487.6 390.57 478.32 389.11 469.98 384.48 C 453.27 375.2 442.48 356.47 437.33 338.61 C 430.11 313.59 431.07 282.7 444.08 259.66 C 451.54 246.43 461 238.61 475.6 234.59 Z"/>
	<path fill="#321018" stroke="none" d="M 508.32 286.5 C 510.01 286.44 511.79 286.45 513.42 286.93 C 518.63 288.49 522.46 292.69 525 297.34 C 528.68 304.08 530.02 313.22 527.59 320.57 C 525.79 326.02 522.47 329.08 517.46 331.51 C 515.79 331.62 513.94 331.62 512.31 331.24 C 507.27 330.04 503.23 326.1 500.73 321.72 C 496.9 314.99 495.48 305.85 497.75 298.39 C 499.57 292.44 503.03 289.28 508.32 286.5 Z"/>
	<path fill="#f9f5fb" stroke="none" d="M 507.2 295.42 C 509.32 295.49 511.18 295.59 512.85 297.06 C 514.07 298.13 514.63 299.54 514.65 301.13 C 514.7 304.33 512.93 306.44 510.76 308.55 C 508.79 308.52 507.1 308.38 505.48 307.13 C 504.25 306.18 503.57 304.88 503.48 303.32 C 503.27 299.96 505.04 297.76 507.2 295.42 Z"/>
	<path fill="#321018" stroke="none" d="M 579.59 200.08 C 585.76 199.74 591.39 200.68 596.96 203.39 C 616.11 212.74 629.58 237.47 636.1 256.76 C 642.68 276.2 647.41 304.56 637.72 323.78 C 633.74 331.67 627.4 336.4 619.13 339.09 C 611.16 340.6 603.13 338.31 596.31 334.14 C 575.79 321.6 564.03 293.05 558.78 270.71 C 554.56 252.74 552.1 228.48 562.44 211.99 C 566.49 205.53 572.22 201.75 579.59 200.08 Z"/>
	<path fill="#f9f5fb" stroke="none" d="M 580.16 207.6 C 584.75 207.13 588.86 207.97 593.03 209.86 C 610.08 217.56 621.25 237.17 627.56 253.88 C 634.51 272.28 640.53 300.45 631.86 319.24 C 628.87 325.72 624.69 329.2 618.13 331.59 C 613.11 332.28 608.44 331.77 603.74 329.87 C 588.41 323.69 578.38 306.02 572.22 291.62 C 563.73 271.77 557.16 243.2 565.7 222.32 C 568.64 215.12 573 210.62 580.16 207.6 Z"/>
	<path fill="#321018" stroke="none" d="M 607.16 254.07 C 608.82 254.2 610.43 254.36 612 254.94 C 617.69 257.04 621.84 262.43 624.14 267.85 C 626.85 274.22 627.8 282.55 625.07 289.04 C 623.19 293.48 620.39 295.76 616.06 297.61 C 613.6 297.62 611.28 297.39 609.04 296.3 C 603.44 293.58 599.83 287.99 597.93 282.22 C 595.78 275.72 595.33 267.28 598.57 261.09 C 600.53 257.34 603.18 255.32 607.16 254.07 Z"/>
	<path fill="#f9f5fb" stroke="none" d="M 606.31 261.34 C 607.97 261.41 609.55 261.63 610.88 262.7 Q 611.1 262.88 611.31 263.08 Q 611.52 263.28 611.7 263.5 Q 611.88 263.73 612.04 263.97 Q 612.2 264.21 612.33 264.47 Q 612.45 264.73 612.56 265 Q 612.66 265.27 612.73 265.55 Q 612.8 265.83 612.84 266.12 Q 612.88 266.4 612.89 266.69 C 612.99 269.96 611.38 272.23 609.23 274.51 C 607.68 274.51 605.93 274.26 604.61 273.38 C 603.32 272.51 602.57 271.13 602.49 269.58 C 602.31 266.19 604.18 263.74 606.31 261.34 Z"/>
	<path fill="url(#gradient_1)" stroke="none" d="M 479.79 195.15 C 484 194.89 488.26 195.58 492.41 196.22 C 488.86 197.27 485.08 197.52 481.47 198.33 C 474.72 199.85 468.4 204.07 462.98 208.2 C 439.62 226.04 424.78 251.27 409.28 275.66 L 403.52 285.14 C 409.47 265.06 421.28 245.78 433.96 229.21 C 445.04 214.73 460.75 197.71 479.79 195.15 Z"/>
	<path fill="url(#gradient_2)" stroke="none" d="M 553.85 184.88 C 555.06 183.25 556.31 181.65 557.69 180.16 C 562.23 175.22 568.44 171.79 575.26 171.68 C 589.71 171.43 603.82 182.61 613.64 192.09 L 611.79 195.84 C 601.78 187.54 587.8 177.07 574.44 175.92 C 565.54 175.16 560.28 179.55 553.85 184.88 Z"/>
	<path fill="#000000" stroke="none" d="M 611.79 195.84 L 613.64 192.09 C 621.9 200.47 631.47 210.91 635.36 222.23 L 635.15 222.81 C 628.61 213.24 620.65 203.3 611.79 195.84 Z"/>
	<path fill="#000000" stroke="none" d="M 457.04 401.01 C 462.84 402.48 468.5 404.36 474.54 404.52 C 480.26 404.67 491.24 401.23 495.41 402.48 L 494.86 403.22 C 489.13 405.48 483.43 407.06 477.26 407.43 C 469.61 407.88 462.88 406.19 457.04 401.01 Z"/>
	<path fill="#fcc485" stroke="none" d="M 464.12 465.47 C 494.46 421.9 542.28 384.74 590.53 363.06 C 602.22 357.82 614.28 352.97 626.82 350.17 C 636.11 348.09 648.48 346.41 656.85 352.06 C 658.63 353.26 660.55 355.09 660.96 357.27 C 662.75 358.94 663.85 360.37 664.38 362.81 C 673.03 368.36 679.84 376.09 686.54 383.78 C 716.09 417.63 731.61 453.96 747.37 495.49 C 734.18 515.15 717.13 528.9 697.68 541.87 C 691.19 546.2 684.66 550.59 677.55 553.84 C 668.62 560.36 656.81 564.03 646.83 568.77 C 646.04 570.78 643.96 571.63 642.06 572.46 C 632.46 576.71 576.08 590.26 569.13 587.53 L 568.28 586.47 C 561.19 586.41 554.14 587.12 547.06 587.38 C 532.55 587.92 516.86 587.95 502.47 585.76 C 502.22 586.03 502.01 586.32 501.67 586.51 C 498.34 588.37 486.58 585.61 482.92 584.21 C 474.49 582.61 461.25 580.94 453.78 577.37 C 452.32 576.67 452.01 576.28 451.45 574.78 C 451.16 574.59 450.99 574.26 450.78 573.99 C 451.85 569.34 453.2 564.82 454.16 560.13 C 459.72 538.58 469.59 503.63 468 481.97 C 467.58 476.22 465.93 470.91 464.12 465.47 Z"/>
	<path fill="#e1a370" stroke="none" d="M 454.16 560.13 C 460.22 563.18 468.21 564.97 474.78 566.85 C 522.74 580.53 576.6 580.37 624.9 568.65 C 632.62 566.78 640.37 564.77 647.93 562.35 C 656.55 559.58 668.19 554.44 677.13 553.86 C 677.27 553.85 677.41 553.85 677.55 553.84 C 668.62 560.36 656.81 564.03 646.83 568.77 C 646.04 570.78 643.96 571.63 642.06 572.46 C 632.46 576.71 576.08 590.26 569.13 587.53 L 568.28 586.47 C 561.19 586.41 554.14 587.12 547.06 587.38 C 532.55 587.92 516.86 587.95 502.47 585.76 C 502.22 586.03 502.01 586.32 501.67 586.51 C 498.34 588.37 486.58 585.61 482.92 584.21 C 474.49 582.61 461.25 580.94 453.78 577.37 C 452.32 576.67 452.01 576.28 451.45 574.78 C 451.16 574.59 450.99 574.26 450.78 573.99 C 451.85 569.34 453.2 564.82 454.16 560.13 Z"/>
	<path fill="#000000" stroke="none" d="M 568.28 586.47 C 576.55 585.38 584.96 584.68 593.16 583.15 C 611.39 579.76 629.21 574.41 646.83 568.77 C 646.04 570.78 643.96 571.63 642.06 572.46 C 632.46 576.71 576.08 590.26 569.13 587.53 L 568.28 586.47 Z"/>
	<path fill="#000000" stroke="none" d="M 451.45 574.78 C 462.27 576.83 472.62 580.9 483.54 582.88 L 482.92 584.21 C 474.49 582.61 461.25 580.94 453.78 577.37 C 452.32 576.67 452.01 576.28 451.45 574.78 Z"/>
	<path fill="#1a0002" stroke="none" d="M 483.54 582.88 Q 492.96 584.61 502.47 585.76 C 502.22 586.03 502.01 586.32 501.67 586.51 C 498.34 588.37 486.58 585.61 482.92 584.21 L 483.54 582.88 Z"/>
	<path fill="#000000" stroke="none" d="M 623.03 387.8 C 623.4 384.34 623.92 380.98 624.93 377.65 C 627.41 369.45 632.47 361.1 640.32 357.1 C 647.22 353.59 654 354.89 660.96 357.27 C 662.75 358.94 663.85 360.37 664.38 362.81 C 658.39 360.22 652.34 357.87 645.73 359.66 C 638.82 361.53 633.69 366.95 630.22 372.99 C 628.03 376.81 623.63 384.87 624.92 389.24 C 625.13 389.95 624.93 390.13 624.71 390.81 C 622.7 390.81 610.11 384.57 606.08 383.44 C 593.91 380.05 581.43 381.58 570.47 387.93 C 561.26 393.26 553.21 402.81 550.1 413.08 C 549.57 414.84 549.58 416.73 549.09 418.55 L 548.33 418.46 L 548.48 418.01 L 547.95 417.08 L 547.99 417.46 C 547.92 410.49 550.05 403.63 553.71 397.74 C 559.93 387.74 570.48 380.41 581.94 377.82 C 596.97 374.41 610.47 379.86 623.03 387.8 Z"/>
	<path fill="#321018" stroke="none" d="M 576.78 401.19 C 581.89 398.12 588.74 398.94 594.28 400.32 C 605.34 403.08 617.24 409.43 625.16 417.68 C 628.19 420.85 630.71 424.43 633.46 427.84 L 633.68 429.32 C 633.22 429.76 633.23 429.81 632.55 430.12 C 627.25 432.55 582.89 428.16 576.44 425.88 C 572.8 424.65 570.4 422.38 568.62 419.02 C 568.51 418.82 568.4 418.62 568.31 418.42 C 567.04 415.63 567.05 412.36 568.14 409.52 C 569.69 405.49 572.99 402.96 576.78 401.19 Z"/>
	<path fill="#000000" stroke="none" d="M 576.44 425.88 C 582 422.57 622.94 430.19 633.46 427.84 L 633.68 429.32 C 633.22 429.76 633.23 429.81 632.55 430.12 C 627.25 432.55 582.89 428.16 576.44 425.88 Z"/>
	<path fill="#000000" stroke="none" d="M 568.62 419.02 C 568.51 418.82 568.4 418.62 568.31 418.42 C 567.04 415.63 567.05 412.36 568.14 409.52 C 569.69 405.49 572.99 402.96 576.78 401.19 C 576.23 404.24 573.4 404.91 571.92 407.35 C 569.83 410.79 570.6 416.08 568.62 419.02 Z"/>
	<path fill="#000000" stroke="none" d="M 658.24 374.01 C 659.04 374 659.79 374.01 660.58 374.15 C 663.58 374.7 666.24 376.53 667.94 379.04 C 670.34 382.59 671.42 387.56 670.51 391.76 C 668 403.38 652.43 411.29 643.3 417.05 C 643.23 417.1 643.16 417.14 643.1 417.21 C 640.98 419.42 641.97 423.73 642.17 426.59 L 641.62 425.37 C 641.4 424.9 641.16 424.43 640.94 423.95 C 636.53 414.19 639.03 401.58 642.75 392.01 C 645.9 383.89 650.04 377.66 658.24 374.01 Z"/>
	<path fill="#321018" stroke="none" d="M 657.93 376.02 C 659.08 375.95 660.26 375.88 661.41 376.07 C 663.49 376.4 664.97 377.52 666.1 379.27 C 668.35 382.75 669.35 386.76 668.46 390.85 C 666.32 400.63 654.62 406.79 646.75 411.58 L 640.72 415.74 L 640.75 413.5 C 640.81 408.87 641.41 404.43 642.55 399.94 C 645.04 390.12 648.91 381.35 657.93 376.02 Z"/>
	<path fill="#8b3b3a" stroke="none" d="M 683.61 293.03 C 684.64 292.91 685.43 292.67 686.41 292.35 C 693.38 290.1 707.82 285.79 711.32 278.93 C 718.95 283.55 725.34 291.43 731.56 297.81 C 753.86 320.63 772.47 346.93 790.33 373.26 C 826.78 426.99 857.1 479.21 882.57 539.07 C 888.04 551.93 893.48 564.94 898.09 578.13 C 903.01 592.19 907.89 613.78 915.75 625.81 C 917.65 628.71 919.85 631.43 923.7 630.6 C 925.94 630.12 927.55 627.84 928.53 625.94 C 933.03 617.14 931.16 604.26 934.29 598.17 C 937.33 607.7 940.92 617.09 944.57 626.4 C 946.94 635.68 941.25 645.11 936.62 652.83 C 926.9 669.04 914.73 681.18 898.84 691.26 C 901.88 681.26 904.8 671.38 906.43 661.02 C 907.6 653.57 907.86 646 908.96 638.55 C 902.89 646.42 896.63 653.99 888.96 660.38 C 872.67 673.94 852.89 683.88 834.53 694.29 C 827.09 698.5 819.32 704.01 811.13 706.48 C 817.84 691.04 828.69 678.32 837.61 664.2 C 815.4 680.21 787.98 698.93 760.61 704.13 C 768.3 692.23 777.82 681.67 785.38 669.66 C 773.03 677.6 759.16 681.26 745.5 686.15 Q 730.98 691.49 716.96 698.03 C 710.36 701.15 703.51 704.45 697.5 708.59 C 692.13 712.3 687.35 717.01 681.49 719.96 C 684.02 704.99 695.87 689.5 706.97 679.62 Q 684.06 688.36 662.36 699.79 C 654.06 704.16 645.91 709.25 637.44 713.23 Q 634.59 708.14 631.8 703.02 L 640.41 699.61 C 645.22 695.89 650.82 692.88 655.84 689.39 C 677.56 674.27 691.74 659.31 696.53 632.55 C 694.97 609.69 684.85 588.6 675.02 568.27 Q 689.5 560.03 703.28 550.66 Q 717.06 541.29 730.04 530.85 C 732.42 528.65 734.84 526.15 737.96 525.07 C 746.3 522.18 756.78 522.2 765.6 521.33 C 776.04 520.3 786.54 519.02 797.02 518.42 L 800.33 525.6 C 807.81 539.43 814.21 554.32 822.59 567.59 L 825.74 566.52 Q 809.73 524.57 791.82 483.39 Q 777.43 451.42 761.21 420.34 Q 745 389.26 727.01 359.18 C 718.89 345.85 710.53 332.29 700.98 319.93 C 698.01 316.08 695.03 312.22 691.86 308.54 C 688.22 304.32 683.39 299.92 680.74 295.06 C 681.34 293.74 682.34 293.63 683.61 293.03 Z"/>
	<path fill="#b24f49" stroke="none" d="M 825.74 566.52 Q 809.73 524.57 791.82 483.39 Q 777.43 451.42 761.21 420.34 Q 745 389.26 727.01 359.18 C 718.89 345.85 710.53 332.29 700.98 319.93 C 698.01 316.08 695.03 312.22 691.86 308.54 C 688.22 304.32 683.39 299.92 680.74 295.06 C 681.34 293.74 682.34 293.63 683.61 293.03 C 695.27 305.71 706.51 318.64 716.56 332.64 C 733.52 356.27 747.5 381.52 761.24 407.11 C 795.52 470.96 824.67 537.1 844.94 606.8 C 841.34 610.21 837.74 612.69 833.18 614.68 C 809.22 625.17 765.28 626.89 738.54 629.19 C 724.72 630.38 710.38 632.65 696.53 632.55 C 694.97 609.69 684.85 588.6 675.02 568.27 Q 689.5 560.03 703.28 550.66 Q 717.06 541.29 730.04 530.85 C 732.42 528.65 734.84 526.15 737.96 525.07 C 746.3 522.18 756.78 522.2 765.6 521.33 C 776.04 520.3 786.54 519.02 797.02 518.42 L 800.33 525.6 C 807.81 539.43 814.21 554.32 822.59 567.59 L 825.74 566.52 Z"/>
	<path fill="#df715e" stroke="none" d="M 730.04 530.85 C 732.42 528.65 734.84 526.15 737.96 525.07 C 746.3 522.18 756.78 522.2 765.6 521.33 C 776.04 520.3 786.54 519.02 797.02 518.42 L 800.33 525.6 C 795.27 526.96 788.72 526.58 783.42 527 C 777.53 527.46 732.23 531.85 730.5 531.12 C 730.34 531.05 730.2 530.94 730.04 530.85 Z"/>
	<path fill="#000000" stroke="none" d="M 825.74 566.52 C 827.97 572.48 830.36 578.42 832.37 584.46 C 828.96 578.95 825.4 573.43 822.59 567.59 L 825.74 566.52 Z"/>
	<path fill="#b24f49" stroke="none" d="M 944.57 626.4 C 946.94 635.68 941.25 645.11 936.62 652.83 C 926.9 669.04 914.73 681.18 898.84 691.26 C 901.88 681.26 904.8 671.38 906.43 661.02 C 907.6 653.57 907.86 646 908.96 638.55 C 902.89 646.42 896.63 653.99 888.96 660.38 C 872.67 673.94 852.89 683.88 834.53 694.29 C 827.09 698.5 819.32 704.01 811.13 706.48 C 817.84 691.04 828.69 678.32 837.61 664.2 C 815.4 680.21 787.98 698.93 760.61 704.13 C 768.3 692.23 777.82 681.67 785.38 669.66 C 773.03 677.6 759.16 681.26 745.5 686.15 Q 730.98 691.49 716.96 698.03 C 710.36 701.15 703.51 704.45 697.5 708.59 C 692.13 712.3 687.35 717.01 681.49 719.96 C 684.02 704.99 695.87 689.5 706.97 679.62 Q 684.06 688.36 662.36 699.79 C 654.06 704.16 645.91 709.25 637.44 713.23 Q 634.59 708.14 631.8 703.02 L 640.41 699.61 C 649.14 699.78 672.57 686.9 681.97 682.96 C 688.71 680.14 695.44 677.78 702.4 675.55 C 706.09 674.36 712.71 671.94 716.49 673.27 C 715.81 678.61 701.71 695.21 698.05 700.67 C 706.28 696.62 714.39 692.25 722.75 688.48 C 731.14 684.69 779.48 664.48 786.93 666.05 C 787.8 666.23 787.71 666.43 788.18 667.12 C 788.13 674.04 778.08 686.83 774 692.66 C 790.92 685.51 806.95 676.4 822.36 666.45 C 826.15 664.01 837.93 653.32 841.65 653.52 C 842.32 654.04 842.7 654.11 842.88 655 C 844.43 662.61 829.95 684.3 825.41 691.25 C 832.74 686.99 840.44 683.4 847.87 679.34 C 856.11 674.84 864.12 669.72 871.9 664.48 C 879.8 659.16 887.71 653.6 895.12 647.61 C 898.67 644.74 901.95 641.48 905.57 638.7 C 906.64 637.88 907.85 636.98 909.16 636.61 C 910.1 636.35 909.71 636.39 910.7 636.95 C 915.44 644.05 910.53 666.41 909.17 675.29 C 915.09 667.62 922.33 661.16 928.04 653.25 C 934.13 644.82 938.39 635.27 944.29 626.8 L 944.57 626.4 Z"/>
	<path fill="#b24f49" stroke="none" d="M 261.29 135.17 C 264.59 117.08 267.89 98.92 276.5 82.46 C 286.24 63.83 299.96 51.33 320.06 45.02 Q 316.59 48.19 313.03 51.25 C 301.51 67.58 293.33 87.47 291.47 107.47 C 291.15 110.97 290.72 115.18 291.45 118.65 C 291.59 119.3 291.84 119.68 292.31 120.14 C 293.48 119.99 293.38 119.81 294.15 119 C 297.96 109.15 303.85 98.47 310.23 90.12 C 323.55 72.69 341.58 64.53 362.88 61.73 L 358.45 65.16 C 343.3 79.78 330.37 95.42 321.31 114.62 C 368.43 88.38 464.97 81.41 516.87 96.25 C 547.25 104.94 566.19 118.62 589.84 138.81 C 575.43 134.53 560.59 129.49 546.37 137.14 C 534.09 143.75 522.35 155.35 514.8 167 C 491.89 158.46 470.02 150 446.23 160.96 C 407.2 178.93 376.63 220.89 362.17 260.48 C 353.91 283.11 349.73 306.44 347.34 330.36 C 341.73 317.82 339.36 305.67 340.04 291.91 C 340.52 282.1 342.91 272.22 344.75 262.59 C 347.7 247.14 354.03 220.74 334.48 213.51 C 330.74 212.12 327.24 212.24 323.65 213.99 C 322.55 214.53 321.51 215.18 320.47 215.84 C 318.65 208.14 315.97 201.19 308.94 196.75 C 304.93 194.21 299.93 192.95 295.27 194.19 C 289.74 195.65 286.33 199.84 283.4 204.44 C 279.14 201.37 275 199.23 269.52 200.04 C 264.71 200.76 260.7 203.94 257.98 207.85 C 251.44 217.28 251.62 229.86 249.83 240.78 C 244.88 241.16 240.64 241.44 237.12 245.39 C 225.39 258.57 223.65 301.11 223.49 319.01 C 210.41 311.52 194.08 303.96 178.57 305.15 C 177.35 305.32 177.05 305.54 175.88 305.02 C 175.67 304.42 175.62 304.38 175.54 303.64 C 174.83 297.39 180.19 284.8 182.33 278.64 C 195.13 241.88 210.49 201.92 237.89 173.37 C 232.7 173.95 227.6 175.1 222.42 175.71 C 215.65 176.52 208.84 176.88 202.08 177.8 C 191.5 179.23 180.79 181.37 170.08 180.87 C 171.19 179.71 172.35 178.25 173.7 177.39 C 186.9 164.44 212.34 154.97 230.64 152.72 C 234.29 152.27 238.01 151.89 241.06 154.28 C 242.59 155.96 244.53 157.27 246.33 158.65 L 243.81 152.96 C 237.85 141.6 236.2 127.07 236.54 114.41 C 237.05 95.65 241.63 76 255.72 62.74 C 255.58 65.74 255.29 68.63 254.81 71.6 C 252.77 89.12 252.49 119.53 261.29 135.17 Z"/>
	<path fill="#df715e" stroke="none" d="M 242.35 169.09 C 235.14 181.23 227.24 193.01 220.34 205.31 Q 210.25 223.19 201.72 241.87 Q 193.19 260.54 186.29 279.88 C 183.39 288.19 181.15 296.73 178.57 305.15 C 177.35 305.32 177.05 305.54 175.88 305.02 C 175.67 304.42 175.62 304.38 175.54 303.64 C 174.83 297.39 180.19 284.8 182.33 278.64 C 195.13 241.88 210.49 201.92 237.89 173.37 C 239.54 172.05 240.94 170.66 242.35 169.09 Z"/>
	<path fill="#df715e" stroke="none" d="M 261.29 135.17 C 264.59 117.08 267.89 98.92 276.5 82.46 C 286.24 63.83 299.96 51.33 320.06 45.02 Q 316.59 48.19 313.03 51.25 C 310.89 51.86 308.42 52.41 306.47 53.5 C 297.93 58.3 288.56 72.53 283.93 80.92 C 279.01 89.85 274.47 100.22 271.32 109.95 C 269.17 116.6 267.61 123.46 265.19 130.02 C 264.51 131.84 263.68 134.62 262.17 135.85 C 261.37 135.45 261.61 135.73 261.29 135.17 Z"/>
	<path fill="#df715e" stroke="none" d="M 255.72 62.74 C 255.58 65.74 255.29 68.63 254.81 71.6 C 253.27 71.22 253.17 71.08 251.75 71.73 C 248.69 75.52 247.78 80.93 246.71 85.57 Q 245.41 91.21 244.52 96.92 Q 243.63 102.64 243.17 108.4 Q 242.71 114.17 242.67 119.95 Q 242.63 125.73 243.02 131.5 C 243.36 136.03 245.61 149.6 243.81 152.96 C 237.85 141.6 236.2 127.07 236.54 114.41 C 237.05 95.65 241.63 76 255.72 62.74 Z"/>
	<path fill="#df715e" stroke="none" d="M 294.15 119 C 297.96 109.15 303.85 98.47 310.23 90.12 C 323.55 72.69 341.58 64.53 362.88 61.73 L 358.45 65.16 C 341.16 66.83 326.5 78.66 315.82 91.65 C 312.32 95.9 299.17 118.51 295.54 119.01 C 295.06 119.07 294.63 119.03 294.15 119 Z"/>
	<path fill="#df715e" stroke="none" d="M 173.7 177.39 C 186.9 164.44 212.34 154.97 230.64 152.72 C 234.29 152.27 238.01 151.89 241.06 154.28 C 237.86 156.82 229.74 157.08 225.53 157.96 C 216.84 159.78 207.93 162.63 199.57 165.63 C 190.85 168.76 183.34 174.57 174.69 177.66 L 173.7 177.39 Z"/>
	<path fill="#b24f49" stroke="none" d="M 625.95 120.44 C 640.18 136.7 653.83 153.38 668.82 168.97 C 700.31 201.71 737.17 231.79 775.35 256.42 C 785.7 263.1 796.1 269.98 806.82 276.04 C 825.34 286.5 844.26 295.27 860.3 309.53 C 853.15 309.52 846.28 308.81 839.26 307.46 C 832.17 306.1 808.03 298.14 803.36 299.24 C 808.35 301.21 813.17 303.31 817.78 306.09 C 824.54 310.17 830.85 315.28 837.23 319.94 C 853.2 331.62 895.85 362.59 903.05 379.3 C 903.32 379.92 903.39 380.37 903.35 381.04 C 902.33 381.38 902.76 381.42 902.05 381.23 C 885.56 375.56 869.64 368.52 852.92 363.42 C 855.51 364.96 858.13 366.43 860.55 368.22 C 886.74 384.47 922.19 418.92 938.48 445.18 C 942.08 450.98 944.89 457.12 947.22 463.52 L 942.92 460.23 C 936.05 455.74 928.63 452.23 921.43 448.35 C 914.23 444.47 907.14 440.25 899.73 436.8 Q 904.74 440.91 909.66 445.12 C 927.77 457.57 952.71 493.56 962.17 513.58 C 965.68 521 968.25 529.04 970 537.05 C 966.08 533.83 961.81 530.7 958.1 527.26 C 953.98 524.38 949.87 521.69 945.4 519.4 C 943.78 520.08 942.17 520.22 940.42 520.42 C 961.04 546.32 970.82 593.24 967.22 625.31 C 966.57 631.11 965.58 637.03 963.8 642.6 C 962.82 648.11 960.94 653.01 958.84 658.17 C 956.61 651.94 955.54 645.24 953.57 638.9 C 948.33 622.12 938.81 597.42 930.01 582.29 Q 931.93 590.29 934.29 598.17 C 931.16 604.26 933.03 617.14 928.53 625.94 C 927.55 627.84 925.94 630.12 923.7 630.6 C 919.85 631.43 917.65 628.71 915.75 625.81 C 907.89 613.78 903.01 592.19 898.09 578.13 C 893.48 564.94 888.04 551.93 882.57 539.07 C 857.1 479.21 826.78 426.99 790.33 373.26 C 772.47 346.93 753.86 320.63 731.56 297.81 C 725.34 291.43 718.95 283.55 711.32 278.93 L 713.39 272.7 C 723.97 283.16 734.27 293.93 748.19 299.87 C 736.26 289.73 725.19 278.6 714.19 267.48 C 717.45 256.88 720.24 246.11 721.84 235.13 C 695.65 207.75 670.95 179.71 647.35 150.07 C 639.96 140.77 631.05 131.19 625.95 120.44 Z"/>
	<path fill="#df715e" stroke="none" d="M 963.8 642.6 C 961.57 635.4 964.16 623.26 964.04 615.31 C 963.92 607.08 962.9 598.62 961.37 590.55 C 958.27 574.1 953.17 557.53 947.23 541.89 C 945.3 536.8 938.65 525.26 938.8 520.5 L 939.73 519.93 L 940.42 520.42 C 961.04 546.32 970.82 593.24 967.22 625.31 C 966.57 631.11 965.58 637.03 963.8 642.6 Z"/>
	<path fill="#df715e" stroke="none" d="M 909.66 445.12 C 927.77 457.57 952.71 493.56 962.17 513.58 C 965.68 521 968.25 529.04 970 537.05 C 966.08 533.83 961.81 530.7 958.1 527.26 C 958.18 523.13 958.7 520.1 960.59 516.38 C 954.23 506.92 947.88 497.34 941.13 488.15 C 934.9 479.67 911.28 453.43 909.66 445.12 Z"/>
	<path fill="#df715e" stroke="none" d="M 902.05 381.23 L 901.64 380.59 C 890.85 363.53 848.73 332.21 831.57 320.36 C 826.65 316.96 800.92 302.36 799.31 299.55 C 799.1 299.19 799.14 299.24 799.23 298.92 C 800.57 298.56 802.02 299 803.36 299.24 C 808.35 301.21 813.17 303.31 817.78 306.09 C 824.54 310.17 830.85 315.28 837.23 319.94 C 853.2 331.62 895.85 362.59 903.05 379.3 C 903.32 379.92 903.39 380.37 903.35 381.04 C 902.33 381.38 902.76 381.42 902.05 381.23 Z"/>
	<path fill="#df715e" stroke="none" d="M 860.55 368.22 C 886.74 384.47 922.19 418.92 938.48 445.18 C 942.08 450.98 944.89 457.12 947.22 463.52 L 942.92 460.23 C 939.98 443.67 894.61 399.81 881.73 388.01 C 875.68 382.46 868.91 377.67 863.01 371.98 C 861.82 370.82 860.85 369.93 860.55 368.22 Z"/>
	<path fill="#000000" stroke="none" d="M 929.43 507.44 C 935.07 510.94 939.82 515.74 945.4 519.4 C 943.78 520.08 942.17 520.22 940.42 520.42 L 939.73 519.93 C 937.43 515.35 932.88 511.21 929.43 507.44 Z"/>
	<path fill="#fcc485" stroke="none" d="M 277.4 376.76 C 274.55 361.96 270.81 347.34 267.42 332.65 C 265.42 323.99 262.31 314.43 262.48 305.54 C 262.78 288.76 271.22 263.4 275.98 246.94 C 279.57 234.52 282.92 216.35 288.73 205.31 C 290.81 201.36 293.66 199.63 297.81 198.29 C 301.14 198.93 304.2 199.8 306.98 201.81 C 313.98 206.89 314.81 215.93 315.87 223.81 Q 311.37 232.88 307.27 242.13 C 300.52 257.39 291.19 280.46 290.99 297.07 C 290.86 308.31 293.42 320.08 295.82 331.03 C 298.73 344.35 302.18 357.46 307.1 370.19 C 308.4 370.12 309.53 369.81 310.78 369.46 C 306.36 353.19 294.41 308.32 295.71 293.94 C 296.76 282.45 301.63 269.58 305.52 258.73 C 309.6 247.32 314.1 235.17 320.2 224.66 C 321.64 222.17 323.45 219.19 326.38 218.34 C 329.23 217.5 332.59 218.44 335.08 219.88 C 339 222.16 341.07 226.23 342 230.53 C 343.61 237.95 342.78 246.17 341.44 253.57 C 339.73 262.97 336.84 272.1 334.85 281.44 Q 334.51 283.1 334.23 284.79 Q 333.95 286.47 333.73 288.15 Q 333.51 289.84 333.35 291.54 Q 333.19 293.23 333.09 294.94 Q 332.99 296.64 332.94 298.34 Q 332.9 300.04 332.92 301.74 Q 332.93 303.45 333.01 305.15 Q 333.08 306.85 333.22 308.55 Q 333.36 310.25 333.55 311.94 Q 333.75 313.63 334 315.32 Q 334.25 317 334.56 318.67 Q 334.88 320.35 335.25 322.01 Q 335.62 323.67 336.05 325.32 Q 336.47 326.97 336.96 328.6 Q 337.45 330.24 337.99 331.85 Q 338.53 333.47 339.13 335.06 C 359.53 390.22 423.07 411.13 450.18 461.36 C 453.44 467.4 456.47 473.89 457.37 480.77 C 458.16 486.78 457.31 502.67 454.68 507.79 L 453.92 508.26 C 454.36 509.63 454.12 510.22 453.84 511.62 C 449.5 511.1 440.62 510.92 437.7 507.62 C 441.27 499.14 442.19 489.88 442.9 480.8 Q 441.19 477.66 439.21 474.67 C 428.46 458.26 377.56 408.65 359.02 405.06 C 353.71 404.04 348.05 404.68 342.73 405.31 C 321.71 407.79 302.93 415.47 285.53 427.4 C 279.39 431.61 274.31 437.36 268.11 441.4 C 268 441.48 267.88 441.55 267.77 441.62 L 265.49 440.46 C 251.86 419.09 240.5 394.06 233.97 369.55 Q 231.96 361.82 230.75 353.92 Q 229.54 346.02 229.14 338.04 C 228.26 322.33 230.15 264.26 237.26 252.53 C 239.26 249.22 242.41 246.41 246.23 245.48 C 246.94 245.65 247.44 245.56 247.86 246.22 C 249.73 249.16 242.01 276.35 240.93 281.24 C 232.84 317.73 236.12 353.82 247.16 389.3 C 249.92 398.15 253.13 408.5 258.18 416.26 C 258.27 416.39 258.36 416.53 258.45 416.66 C 250.25 379.19 237.11 342.71 241.97 303.73 C 244.09 286.71 248.53 270.21 251.93 253.43 C 254.1 242.77 256.5 220.29 260.91 211.54 C 263.2 206.97 267.83 205.55 272.34 204.11 C 276.9 205.73 279.19 207.26 281.9 211.3 C 278.22 220.65 275.83 230.65 272.96 240.29 C 266.91 260.59 256.07 289.58 258.07 310.72 C 258.94 319.94 261.33 328.81 263.52 337.77 C 265.34 345.23 266.71 352.79 268.5 360.25 C 269.77 365.58 271.58 370.74 272.75 376.11 C 274.29 376.33 275.86 376.62 277.4 376.76 Z"/>
	<path fill="#000000" stroke="none" d="M 265.49 440.46 C 269.61 435.68 274.87 431.96 279.96 428.28 C 299.8 413.92 321.2 404.15 345.9 402.39 C 352.06 401.95 358.53 401.94 364.5 403.75 C 375.96 407.21 388.74 420.12 397.85 428.08 C 409.21 438 444.74 468.47 445.7 483.94 C 446.17 491.36 443.68 499.27 441.7 506.33 C 445.73 506.89 450 507.21 453.92 508.26 C 454.36 509.63 454.12 510.22 453.84 511.62 C 449.5 511.1 440.62 510.92 437.7 507.62 C 441.27 499.14 442.19 489.88 442.9 480.8 Q 441.19 477.66 439.21 474.67 C 428.46 458.26 377.56 408.65 359.02 405.06 C 353.71 404.04 348.05 404.68 342.73 405.31 C 321.71 407.79 302.93 415.47 285.53 427.4 C 279.39 431.61 274.31 437.36 268.11 441.4 C 268 441.48 267.88 441.55 267.77 441.62 L 265.49 440.46 Z"/>
	<path fill="#000000" stroke="none" d="M 272.75 376.11 C 274.29 376.33 275.86 376.62 277.4 376.76 C 280.25 386.63 281.82 397.18 283.16 407.35 C 278.66 397.18 275.47 386.86 272.75 376.11 Z"/>
	<path fill="#000000" stroke="none" d="M 310.78 369.46 C 312.6 376.82 314.59 384.17 316.16 391.57 C 312.6 384.59 309.6 377.64 307.1 370.19 C 308.4 370.12 309.53 369.81 310.78 369.46 Z"/>
	<path fill="#fcc485" stroke="none" d="M 223.09 493.87 Q 218.28 492.92 213.61 491.39 Q 208.94 489.86 204.5 487.78 C 173.59 473.22 152.05 442.62 140.76 411.15 C 132.91 389.24 128.03 363.06 138.53 341.17 C 143.62 330.56 152.02 321.78 163.32 317.96 C 183.69 311.08 204.78 319.67 222.99 328.59 C 223.39 344.08 224.67 358.97 228.33 374.06 L 234.71 393.37 C 216.65 377.93 195.25 357 169.55 358.92 C 163.1 359.4 157.12 361.49 152.8 366.55 C 147.58 372.66 148.15 379.55 146.73 386.86 C 147.44 390.8 148.15 394.64 149.38 398.46 C 148.31 387.57 149.15 377.38 156.01 368.46 C 161.38 364.28 167.4 363.08 174.07 363.9 C 181.84 364.85 189.04 368.13 196.1 371.32 L 185.6 377.72 C 178.02 384.88 174.22 393.35 173.97 403.8 C 173.65 417.21 177.94 433.96 185.36 445.19 C 183.05 436.92 180.04 427.64 179.45 419.05 C 177.54 410.28 177.06 399.31 180.8 390.92 C 184.8 381.93 193.08 377.96 201.79 374.8 C 212.22 380.68 228.15 393.22 234.67 403.43 C 235.91 404.05 236.97 404.48 237.8 405.65 L 237.53 406.43 C 236.91 406.69 236.32 406.95 235.67 407.13 C 238.49 407.35 239.91 407.93 241.81 410.07 C 244.6 413.21 246.06 418.04 246.13 422.19 C 247.05 431.06 247.49 439.8 247.63 448.71 L 248.1 449.5 C 247.87 450.38 247.66 451.17 247.3 452.01 C 248.62 463.6 243.53 482.83 239.72 493.95 C 234.15 494.28 228.63 494.79 223.09 493.87 Z"/>
	<path fill="url(#gradient_3)" stroke="none" d="M 218.21 409.75 C 223.53 406.63 228.58 404.48 234.67 403.43 C 235.91 404.05 236.97 404.48 237.8 405.65 L 237.53 406.43 C 236.91 406.69 236.32 406.95 235.67 407.13 C 238.49 407.35 239.91 407.93 241.81 410.07 C 244.6 413.21 246.06 418.04 246.13 422.19 C 247.05 431.06 247.49 439.8 247.63 448.71 L 248.1 449.5 C 247.87 450.38 247.66 451.17 247.3 452.01 L 245.31 452.6 C 244.03 452.59 242.75 452.56 241.47 452.42 C 231.21 451.33 220.89 446.06 214.42 437.93 C 211.03 433.66 208.64 428.3 209.45 422.74 C 210.26 417.19 213.96 413.08 218.21 409.75 Z"/>
	<path fill="#fcc485" stroke="none" d="M 234.1 418.72 C 238.25 419.55 242.23 420.56 246.13 422.19 C 247.05 431.06 247.49 439.8 247.63 448.71 C 237.31 446.45 229.88 443.48 221.6 436.86 C 221.53 433.72 222.55 429.7 223.85 426.87 C 226.04 422.1 229.43 420.35 234.1 418.72 Z"/>
	<path fill="#e1a370" stroke="none" d="M 235.67 407.13 C 238.49 407.35 239.91 407.93 241.81 410.07 C 244.6 413.21 246.06 418.04 246.13 422.19 C 242.23 420.56 238.25 419.55 234.1 418.72 C 229.43 420.35 226.04 422.1 223.85 426.87 C 222.55 429.7 221.53 433.72 221.6 436.86 C 219.39 434.49 217.44 431.48 216.52 428.36 Q 216.33 427.73 216.21 427.08 Q 216.09 426.43 216.03 425.77 Q 215.97 425.12 215.98 424.46 Q 215.99 423.8 216.07 423.14 Q 216.14 422.49 216.28 421.84 Q 216.42 421.2 216.63 420.57 Q 216.84 419.95 217.1 419.34 Q 217.37 418.74 217.7 418.17 C 221.46 411.49 228.78 409.12 235.67 407.13 Z"/>
	<path fill="#e1a370" stroke="none" d="M 201.79 374.8 C 212.22 380.68 228.15 393.22 234.67 403.43 C 228.58 404.48 223.53 406.63 218.21 409.75 C 217.7 404.91 216.66 399.65 212.7 396.37 C 209.91 394.06 205.66 393.25 202.14 393.74 C 195.74 394.64 190.33 399.78 186.71 404.88 C 183.53 409.37 182.19 414.51 179.45 419.05 C 177.54 410.28 177.06 399.31 180.8 390.92 C 184.8 381.93 193.08 377.96 201.79 374.8 Z"/>
	<path fill="#e1a370" stroke="none" d="M 146.73 386.86 C 146.25 386.01 146.32 383.57 146.13 382.48 C 144.82 374.56 145.06 365.74 150.04 359.07 C 154.15 353.58 160.7 350.46 167.37 349.46 C 183.5 347.02 200.84 355.71 213.7 364.59 C 217.51 367.22 220.96 370.45 224.78 373 C 226.12 373.9 226.73 374.34 228.33 374.06 L 234.71 393.37 C 216.65 377.93 195.25 357 169.55 358.92 C 163.1 359.4 157.12 361.49 152.8 366.55 C 147.58 372.66 148.15 379.55 146.73 386.86 Z"/>
	<path fill="#e1a370" stroke="none" d="M 247.3 452.01 C 248.62 463.6 243.53 482.83 239.72 493.95 C 234.15 494.28 228.63 494.79 223.09 493.87 C 225.86 491.48 229.01 489.63 231.66 487.06 C 241.11 477.92 242.53 464.77 245.31 452.6 L 247.3 452.01 Z"/>
	<path fill="#e1a370" stroke="none" d="M 156.01 368.46 C 161.38 364.28 167.4 363.08 174.07 363.9 C 181.84 364.85 189.04 368.13 196.1 371.32 L 185.6 377.72 C 176.41 369.2 166.16 372.96 156.01 368.46 Z"/>
	<path fill="#fcc485" stroke="none" d="M 650.97 578.65 C 656.03 576.43 661.06 574.09 666.19 572.04 C 675.47 591.08 691.93 621.1 684.57 642.37 C 680.97 652.76 672.85 663.64 664.04 670.19 C 640.88 692.7 607.4 703.42 575.47 703.62 C 521.73 703.95 469.94 677.26 432.35 640.06 C 434.26 634.28 435.84 628.45 437.38 622.55 L 446.51 590.76 C 483.82 631.81 536.5 663.87 593.06 666.59 C 616.4 667.72 643.69 665.08 661.9 648.72 C 667.14 644 671.35 637.81 671.72 630.56 C 672.51 615.11 658.3 592.47 650.97 578.65 Z"/>
	<path fill="#e1a370" stroke="none" d="M 437.38 622.55 C 448.37 639.84 481.95 661.95 500.56 670.79 Q 510.85 675.73 521.61 679.51 Q 532.38 683.28 543.49 685.85 C 576.43 693.21 609.81 691.4 641.38 679.17 C 645.9 677.41 660.29 669.97 664.04 670.19 C 640.88 692.7 607.4 703.42 575.47 703.62 C 521.73 703.95 469.94 677.26 432.35 640.06 C 434.26 634.28 435.84 628.45 437.38 622.55 Z"/>
	<path fill="#fcc485" stroke="none" d="M 473.5 68.47 C 475.16 64.81 476.8 61.52 480.88 60.12 C 489.09 57.29 501.28 66.25 508.54 69.47 C 522.42 75.61 537.93 76.91 552.69 79.65 C 566.09 82.14 580 86.57 592.09 92.96 Q 594.32 94.13 596.44 95.49 Q 598.55 96.86 600.53 98.41 Q 602.52 99.96 604.36 101.68 Q 606.19 103.4 607.87 105.28 C 615.42 113.75 621.69 123.37 628.17 132.66 Q 637.2 145.65 646.99 158.08 Q 664.62 180.52 683.77 201.67 C 694.81 213.66 706.51 225 717.71 236.82 C 715.33 247.27 713.25 257.88 709.81 268.04 C 708.94 271.35 707.73 274.55 706.57 277.77 C 694.73 284.68 681.2 287.44 667.69 288.68 C 666.11 272.23 663.7 254.95 660.22 238.8 C 666.63 246.02 672.57 253.09 679.67 259.7 C 680.41 259.62 681 259.43 681.7 259.2 L 682.49 257.52 C 667.58 240.67 658.64 231.36 655.19 208.38 C 649.34 189.28 639.42 175.21 624.78 161.58 C 620.18 157.29 615.18 153.39 610.77 148.9 C 605.53 143.57 601.19 137.37 596.06 131.92 C 584.22 119.32 569.19 108.72 553.98 100.61 C 531.16 88.45 505.91 82.49 480.35 79.82 C 477.71 76.2 475.31 72.58 473.5 68.47 Z"/>
	<path fill="#e1a370" stroke="none" d="M 655.19 208.38 C 662.51 214.1 667.55 221.89 673.65 228.77 C 680.88 236.93 689.29 244.06 696.67 252.1 C 701.16 256.98 705.15 263.6 709.81 268.04 C 708.94 271.35 707.73 274.55 706.57 277.77 C 694.73 284.68 681.2 287.44 667.69 288.68 C 666.11 272.23 663.7 254.95 660.22 238.8 C 666.63 246.02 672.57 253.09 679.67 259.7 C 680.41 259.62 681 259.43 681.7 259.2 L 682.49 257.52 C 667.58 240.67 658.64 231.36 655.19 208.38 Z"/>
	<path fill="#000000" stroke="none" d="M 682.49 257.52 Q 689.93 265.09 697.26 272.77 C 691.08 268.88 684.67 265.12 679.67 259.7 C 680.41 259.62 681 259.43 681.7 259.2 L 682.49 257.52 Z"/>
	<path fill="#b24f49" stroke="none" d="M 254.52 437.78 C 255.86 439.81 257.07 441.9 258.26 444.02 C 274.5 463.63 294.92 478.73 315.34 493.69 Q 330 504.56 344.81 515.22 C 346.16 516.19 347.52 517.14 348.77 518.25 C 331.37 547.61 312.68 575.65 293.05 603.56 C 287.33 577.03 286.99 550.09 297.41 524.6 C 298.22 521.52 299.06 518.45 299.82 515.36 C 288.59 535.61 277.93 556.7 258.84 570.77 C 256.02 574.06 252.91 576.2 249.28 578.47 C 258.92 561.38 265.44 543.12 270.02 524.06 C 272.59 513.34 274.48 502.47 277.73 491.91 C 278.53 489.7 279.38 487.59 280.38 485.47 C 268.14 502.74 255.3 525.12 234.07 532.43 L 227.69 536.22 C 248.29 501.19 254.77 478.79 254.52 437.78 Z"/>
	<path fill="#8b3b3a" stroke="none" d="M 344.81 515.22 C 346.16 516.19 347.52 517.14 348.77 518.25 C 331.37 547.61 312.68 575.65 293.05 603.56 C 287.33 577.03 286.99 550.09 297.41 524.6 C 299.67 532.24 298.29 541.66 298.9 549.63 C 299.48 557.29 301 564.99 302.26 572.56 C 312.64 561.43 322.22 549.91 330.78 537.31 C 335.68 530.1 340.08 522.54 344.81 515.22 Z"/>
	<path fill="#df715e" stroke="none" d="M 254.52 437.78 C 255.86 439.81 257.07 441.9 258.26 444.02 C 258.18 468.94 255.87 496.1 244.01 518.46 C 241.33 523.51 236.65 527.48 234.07 532.43 L 227.69 536.22 C 248.29 501.19 254.77 478.79 254.52 437.78 Z"/>
	<path fill="#df715e" stroke="none" d="M 277.73 491.91 C 280.67 496.3 276.7 513.16 275.61 518.67 Q 274.11 526.49 271.96 534.15 Q 269.81 541.82 267.02 549.27 C 264.31 556.38 260.78 563.41 258.84 570.77 C 256.02 574.06 252.91 576.2 249.28 578.47 C 258.92 561.38 265.44 543.12 270.02 524.06 C 272.59 513.34 274.48 502.47 277.73 491.91 Z"/>
	<path fill="#b24f49" stroke="none" d="M 566.33 606.61 Q 569.08 606.51 571.82 606.58 Q 574.57 606.66 577.31 606.91 Q 580.05 607.15 582.76 607.57 Q 585.48 607.98 588.17 608.57 Q 590.85 609.15 593.5 609.9 Q 596.14 610.65 598.73 611.56 Q 601.33 612.48 603.86 613.55 Q 606.39 614.62 608.85 615.85 C 623.95 623.44 635.62 633.77 641 650.03 C 607.48 662.82 570.01 654.59 537.66 642.49 C 522.84 636.44 508.4 629.79 495.39 620.38 C 508.95 610.44 523.55 606.11 540.38 607.09 Q 542.16 607.19 543.93 607.37 Q 545.7 607.55 547.45 607.83 Q 549.21 608.1 550.95 608.46 Q 552.69 608.82 554.41 609.26 Q 556.13 609.71 557.83 610.24 Q 559.53 610.77 561.2 611.39 Q 562.86 612.01 564.5 612.7 Q 566.13 613.4 567.73 614.18 Q 569.33 614.96 570.89 615.82 Q 572.44 616.68 573.96 617.61 Q 575.47 618.55 576.93 619.56 Q 578.4 620.56 579.81 621.65 Q 581.22 622.73 582.58 623.88 Q 583.93 625.03 585.23 626.24 Q 586.53 627.46 587.76 628.74 Q 588.99 630.02 590.16 631.36 C 584.33 620.58 576.01 613.77 566.33 606.61 Z"/>
	<path fill="#8b3b3a" stroke="none" d="M 428.93 650.89 C 455.53 676.62 470.22 683.23 503.38 698.6 C 500.44 698.57 497.55 698.38 494.62 698.1 C 468.68 695.82 444.8 687.97 420.97 677.76 Q 425.26 664.41 428.93 650.89 Z"/>
	<path fill="#fcc485" stroke="none" d="M 455.62 67.12 C 459.34 67.03 463.03 67.61 466.63 68.57 C 467.54 72.17 468.9 75.61 470.2 79.09 L 459.12 78.6 C 453.78 78.53 448.41 78.67 443.07 78.73 C 443.81 76.48 444.58 74.1 445.98 72.15 C 448.38 68.78 451.73 67.84 455.62 67.12 Z"/>
</svg>
