<?xml version="1.0" encoding="utf-8" ?>
<svg xmlns="http://www.w3.org/2000/svg" xmlns:xlink="http://www.w3.org/1999/xlink" width="1024" height="1024">
	<path fill="#321018" d="M260.898 110.021C265.441 88.2038 275.227 68.095 292.618 53.6519C299.977 47.5395 312.729 38.6201 322.89 40.0269C324.533 40.2543 325.295 40.8383 326.281 42.1192C327.116 47.5373 318.647 54.6902 315.397 58.5349C306.34 69.2515 302.269 84.1749 298.731 97.4798C304.93 87.2655 312.239 78.1384 321.867 70.9385C331.928 63.4137 352.47 54.0758 365.283 56.4706C367.007 56.7928 367.753 57.3966 368.765 58.7835C369.179 61.1705 368.225 63.1611 366.787 65.0204C364.084 68.5154 360.025 71.032 356.765 73.9983C349.848 80.2937 343.905 88.3217 339.4 96.5089Q345.26 94.5902 351.182 92.8753Q357.104 91.1603 363.083 89.6512Q369.061 88.1421 375.088 86.8406Q381.114 85.5391 387.183 84.4467Q393.251 83.3544 399.353 82.4726Q405.455 81.5907 411.585 80.9204Q417.714 80.2501 423.862 79.7921Q430.011 79.3342 436.172 79.0891C437.516 73.289 439.393 68.0107 444.706 64.6481C451.803 60.1562 460.894 61.406 468.681 62.9623C469.347 61.9317 470.015 60.8959 470.748 59.912C473.644 56.0284 477.924 53.7359 482.694 53.1657C495.947 51.5812 510.928 61.8758 524.193 65.3097C541.632 69.8242 559.886 71.1396 577.079 76.5424Q583.242 78.494 589.112 81.2052Q594.981 83.9165 600.462 87.3443C621.542 100.592 636.552 122.301 653.551 140.069Q670.083 157.557 687.561 174.098Q705.04 190.64 723.411 206.184Q742.577 222.167 762.673 236.962Q782.769 251.757 803.723 265.311C821.751 276.94 841.271 286.622 857.928 300.264C860.642 302.487 866.48 307.365 866.256 311.186C866.19 312.327 865.817 312.959 864.825 313.552C859.046 317.004 840.162 313.097 833.937 311.51Q834.471 311.825 834.997 312.152C857.403 326.288 893.692 352.378 907.041 375.418C909.511 379.682 910.864 383.708 911.915 388.509C902.644 389.033 894.804 384.652 886.418 381.256C905.613 396.954 925.104 415.093 939.13 435.7C942.959 441.326 955.47 461.172 953.062 468.399C952.715 469.438 952.031 470.044 950.953 470.247C946.287 471.124 935.246 462.211 931.395 459.615C943.002 470.256 957.444 490.743 964.869 504.796C969.106 512.816 979.586 536.527 976.915 545.164C976.049 546.053 975.758 546.478 974.386 546.354C969.278 545.89 957.682 535.119 953.76 531.307C972.037 565.766 979.961 607.49 969.406 645.633C968.053 650.521 963.87 665.008 958.737 667.041C957.461 667.547 956.845 667.157 955.673 666.684C951.294 661.655 949.827 650.087 948.815 643.506C941.637 656.883 934.161 669.712 923.471 680.685C918.096 686.202 904.586 699.018 896.317 698.814C895.071 698.783 893.927 698.43 893.135 697.401C892.196 696.178 892.087 694.549 892.216 693.072C892.767 686.782 895.504 680.326 897.272 674.281C898.908 668.689 900.2 663.043 901.43 657.35C886.156 672.641 868.004 682.726 849.588 693.64C840.873 698.805 832.225 704.302 823.135 708.784C818.946 710.849 811.008 714.883 806.391 712.751C805.288 712.242 804.464 711.187 804.21 710.001C802.859 703.684 811.345 692.154 814.805 687.281C799.888 696.45 782.424 705.549 765.406 709.923C762.102 710.772 758.056 711.877 754.933 710.048C754.472 709.36 754.042 708.956 753.965 708.099C753.347 701.163 766.269 688.088 770.819 682.99C751.29 691.248 730.851 697.877 711.928 707.465C707.361 709.779 702.706 712.324 698.463 715.203C693.418 718.626 688.173 724.033 682.403 726.028C680.685 726.622 678.887 726.783 677.275 725.753C676.106 725.006 675.463 723.821 675.182 722.496C673.591 714.996 680.649 701.536 684.55 695.519C670.05 703.291 655.196 710.321 640.756 718.27C650.781 738.782 662.328 758.525 672.359 779.073Q677.707 789.76 682.712 800.613Q687.716 811.466 692.371 822.473Q697.027 833.48 701.328 844.63Q705.63 855.779 709.573 867.061Q713.517 878.343 717.098 889.744Q720.679 901.146 723.895 912.656Q727.111 924.166 729.957 935.773Q732.803 947.38 735.278 959.072C731.829 959.936 728.4 960.907 724.966 961.833L720.865 962.815Q705.856 966.395 690.74 969.489Q675.623 972.582 660.414 975.185Q645.205 977.789 629.921 979.9Q614.636 982.011 599.291 983.627Q583.946 985.244 568.556 986.363Q553.167 987.483 537.75 988.105Q522.332 988.727 506.903 988.851Q491.473 988.975 476.048 988.6C460.711 988.127 445.123 987.66 429.868 986.003C417.001 985.997 402.014 983.604 389.121 982.056L306.728 971.489C303.402 971.368 299.843 970.688 296.555 970.123C292.02 969.51 287.419 969.194 282.862 968.763C282.161 963.538 282.037 957.918 282.001 952.643C279.645 954.714 277.084 956.607 274.526 958.419C270.337 961.388 261.141 967.526 255.838 965.914C254.581 965.531 254.368 965.019 253.796 963.961C253.698 957.669 263.237 937.605 266.314 930.254C262.491 935.229 259.207 940.635 255.405 945.643C251.805 950.384 239.855 965.253 233.382 965.419C232.143 965.451 231.272 964.863 230.504 963.949C226.256 958.893 229.075 943.698 230.051 937.87C226.553 947.369 224.244 956.704 221.564 966.433C220.862 968.983 219.997 972.869 217.303 973.939C215.859 974.513 214.402 974.3 213.026 973.68C210.094 972.36 207.647 969.667 205.472 967.354C194.052 955.218 187.608 940.703 181.734 925.349C182.313 929.71 182.574 934.093 183.221 938.454C184.002 943.712 187.611 955.903 186.597 960.49C186.302 961.827 185.933 961.978 184.889 962.73C183.093 962.817 181.953 962.243 180.507 961.237C164.005 949.751 155.931 927.369 152.642 908.451C152.512 916.038 153.49 925.643 151.277 932.862C150.763 934.538 150.253 935.621 148.676 936.504C147.805 936.466 147.492 936.541 146.7 936.091C144.484 934.834 142.758 931.963 141.371 929.881C134.022 918.853 129.452 906.929 126.37 894.114C125.587 898.316 125.03 903.135 122.935 906.917C122.114 908.399 121.269 909.282 119.585 909.737C117.837 909.466 116.927 908.808 115.851 907.465C113.237 904.204 111.61 899.693 110.192 895.812C102.109 873.691 103.864 851.041 106.316 828.137C103.395 834.649 100.768 844.375 95.7667 849.402C94.5659 850.609 93.6136 850.784 91.9653 850.791C90.504 850.029 89.8082 849.208 89.0754 847.762C86.9638 843.596 86.074 838.206 85.362 833.629C81.9305 811.57 86.9007 798.346 93.7748 778.253C85.6707 782.681 77.6408 785.586 68.2839 785.613C65.617 785.621 63.4566 785.557 61.4833 783.612C59.7287 779.881 62.4036 776.535 64.9599 773.986C68.4999 770.456 72.3876 767.139 75.5978 763.301C86.0739 750.776 90.0584 734.387 93.5656 718.877C88.0859 725.471 82.5745 732.413 75.8924 737.836C73.4933 739.783 70.7206 741.879 67.4878 741.537C66.5309 740.908 66.1115 740.709 65.6507 739.611C64.4696 736.797 65.4684 732.414 65.905 729.458C68.4676 712.105 74.2439 697.22 81.2962 681.332C79.183 682.484 77.0603 683.632 74.8726 684.638C69.5455 687.088 53.2516 693.213 47.888 690.723C46.8029 690.219 45.9735 689.409 45.6873 688.21C45.4054 687.029 45.8044 685.689 46.3188 684.633C48.2195 680.732 51.9997 677.521 54.771 674.197C58.0841 670.223 60.9462 665.548 63.0751 660.837C67.477 651.096 69.5903 640.605 72.6645 630.422C75.0558 622.5 78.2737 615.095 82.2666 607.859C78.715 608.897 73.3246 610.8 69.7342 609.283C68.5641 608.788 67.6797 608.064 67.2744 606.816C65.7721 602.19 71.0768 595.118 73.5268 591.466C85.6465 573.398 100.271 558.032 118.205 545.632C130.5 537.131 143.212 529.514 154.051 519.077C164.805 508.722 172.232 496.925 178.372 483.446C156.893 465.212 141.056 445.01 131.353 418.333C122.084 392.851 117.008 361.896 128.985 336.536C136.347 320.947 148.316 311.946 164.259 306.294C166.168 298.639 167.828 290.997 170.058 283.414C181.45 244.673 196.008 215.79 215.816 181.127C207.302 182.36 172.148 188.676 166.554 185.489C165.416 184.841 164.398 183.765 164.199 182.426C163.782 179.627 165.934 176.448 167.646 174.463C181.94 157.882 212.574 149.05 233.947 147.211Q233.625 146.328 233.34 145.432C226.188 122.969 228.598 95.3393 239.613 74.5099C242.97 68.1629 248.229 60.0435 255.591 58.0229C256.746 57.7059 258.194 57.6401 259.212 58.3619C260.993 59.6249 261.464 62.0422 261.56 64.0994C261.766 68.5042 260.181 72.9254 259.636 77.2706C258.364 87.4122 258.824 99.3979 260.786 109.465L260.898 110.021ZM675.271 357.464C719.994 402.454 736.717 436.725 758.037 495.869Q752.192 504.53 746.195 513.087C756.04 511.362 766.156 509.686 776.12 508.904C781.026 508.349 786.013 507.566 790.943 507.36C780.234 484.429 770.135 461.182 758.991 438.464C739.244 398.205 714.2 354.51 687.035 318.95C681.792 312.088 676.082 302.669 668.877 297.817C671.203 317.678 672.78 337.627 675.271 357.464Z"/>
	<path fill="#B24F49" d="M417.941 687.839C442.923 699.488 470.263 708.563 498.031 709.515C508.127 709.861 518.248 708.224 528.317 709.049C536.25 709.699 544.02 712.127 551.916 713.187C573.455 716.076 594.768 714.291 615.819 709.204Q622.687 720.87 629.229 732.72Q635.772 744.571 641.985 756.598Q648.198 768.625 654.077 780.82Q659.955 793.014 665.495 805.365Q671.034 817.717 676.23 830.217Q681.426 842.717 686.275 855.356Q691.124 867.995 695.622 880.763Q700.12 893.531 704.264 906.418C708.997 921.04 714.933 936.194 717.949 951.249C718.375 953.373 719.266 961.84 720.865 962.815Q705.856 966.395 690.74 969.489Q675.623 972.582 660.414 975.185Q645.205 977.789 629.921 979.9Q614.636 982.011 599.291 983.627Q583.946 985.244 568.556 986.363Q553.167 987.483 537.75 988.105Q522.332 988.727 506.903 988.851Q491.473 988.975 476.048 988.6C460.711 988.127 445.123 987.66 429.868 986.003C417.001 985.997 402.014 983.604 389.121 982.056L306.728 971.489C304.867 960.948 306.557 942.592 302.4 933.001C305.315 928.063 309.141 923.436 312.392 918.686Q321.052 905.999 328.802 892.736Q345.4 864.204 359.711 834.46C364.541 824.317 368.883 813.95 373.684 803.792C390.883 766.103 403.605 726.628 417.941 687.839Z"/>
	<path fill="#8B3B3A" d="M373.684 803.792C377.669 811.224 380.883 819.214 384.321 826.915C406.24 876.01 423.451 932.603 429.868 986.003C417.001 985.997 402.014 983.604 389.121 982.056L306.728 971.489C304.867 960.948 306.557 942.592 302.4 933.001C305.315 928.063 309.141 923.436 312.392 918.686Q321.052 905.999 328.802 892.736Q345.4 864.204 359.711 834.46C364.541 824.317 368.883 813.95 373.684 803.792Z"/>
	<path fill="#321018" d="M588.054 754.9C590.716 757.572 596.404 773.793 598.869 778.403Q605.574 790.658 614.165 801.673C618.074 806.724 622.23 811.933 626.732 816.463C633.089 822.859 649.312 834.719 652.528 841.781C653.043 842.912 653.05 843.41 652.598 844.535C647.504 845.758 632.303 838.744 626.807 836.739C631.92 843.221 637.054 849.667 641.079 856.906C644.617 863.27 652.066 884.344 649.184 891.366C648.705 892.533 648.198 892.579 647.111 892.967C641.454 892.007 636.227 884.753 632.477 880.672C637.445 891.139 643.626 919.22 639.512 930.136C638.928 931.684 638.273 932.237 636.793 932.897C634.779 932.505 633.437 930.848 632.112 929.328C628.545 925.234 625.788 920.425 622.614 916.023C615.635 906.34 608.021 896.339 599.756 887.722C606.307 892.557 612.483 897.564 618.4 903.171C624.865 909.598 630.103 916.883 635.124 924.446C632.665 890.643 627.195 880.643 605.708 855.042C619.198 863.975 632.417 872.923 643.364 884.992C640.611 859.203 622.855 840.498 604.736 823.706C616.157 827.939 627.922 831.306 639.436 835.3Q637.919 834.264 636.468 833.136C614.146 815.93 591.676 783.253 588.054 754.9Z"/>
	<path fill="#DF715E" d="M615.819 709.204L620.275 707.83Q627.19 719.172 633.775 730.709Q640.361 742.245 646.613 753.965Q652.864 765.686 658.777 777.582Q664.689 789.477 670.257 801.537Q675.825 813.598 681.044 825.813Q686.264 838.029 691.13 850.389Q695.996 862.75 700.505 875.245Q705.014 887.74 709.162 900.359C713.723 913.902 717.179 928.002 720.359 941.927C721.821 948.331 722.538 955.734 724.966 961.833L720.865 962.815C719.266 961.84 718.375 953.373 717.949 951.249C714.933 936.194 708.997 921.04 704.264 906.418Q700.12 893.531 695.622 880.763Q691.124 867.995 686.275 855.356Q681.426 842.717 676.23 830.217Q671.034 817.717 665.495 805.365Q659.955 793.014 654.077 780.82Q648.198 768.625 641.985 756.598Q635.772 744.571 629.229 732.72Q622.687 720.87 615.819 709.204Z"/>
	<path fill="#DF715E" d="M302.4 933.001C306.557 942.592 304.867 960.948 306.728 971.489C303.402 971.368 299.843 970.688 296.555 970.123C296.55 960.517 296.744 950.99 295.407 941.45C297.854 938.735 300.109 935.846 302.4 933.001Z"/>
	<path fill="#B24F49" d="M267.765 441.619C267.88 441.546 267.996 441.475 268.111 441.4C274.305 437.363 279.395 431.606 285.525 427.404C302.929 415.474 321.713 407.79 342.727 405.31C348.047 404.682 353.707 404.038 359.02 405.064C377.564 408.648 428.459 458.258 439.214 474.671Q441.19 477.656 442.904 480.798C442.19 489.883 441.272 499.137 437.698 507.623C440.618 510.917 449.5 511.097 453.843 511.616L454.003 511.908C454.978 517.552 444.362 557.356 442.277 565.33Q431.467 605.822 418.864 645.792Q407.664 682.606 394.577 718.792Q381.49 754.978 366.551 790.44C347.757 834.897 326.662 878.76 298.759 918.302C288.31 933.11 277.1 947.491 262.104 957.971C268.929 939.91 276.154 921.868 276.634 902.27L276.25 902.823C272.589 908.144 269.628 913.981 266.301 919.517C257.909 933.484 248.027 945.612 235.761 956.391C236.023 954.171 235.995 951.184 236.836 949.148C238.704 929.089 238.161 907.933 243.281 888.373L242.748 887.854C240.974 891.137 240.19 895.032 238.92 898.542C238.246 901.176 237.611 903.823 236.78 906.413C234.108 917.387 228.808 925.928 224.225 936.056C219.575 946.332 217.045 956.759 215.249 967.834C213.209 966.084 210.022 963.942 208.748 961.561C205.034 957.76 202.032 952.872 199.305 948.339C190.907 934.377 186 921.372 185.768 905.023C185.247 901.37 185.032 897.692 184.586 894.033C180.204 919.285 173.828 924.662 179.471 952.665C170.721 942.278 162.838 928.536 160.176 915.09C157.001 903.613 157.127 890.424 159.674 878.855C160.614 873.269 162.192 868.005 164.006 862.646C153.629 880.004 148.2 901.073 146.064 921.104C146.074 922.117 146.118 922.863 145.689 923.797C144.799 923.283 144.335 922.728 143.779 921.884C130.803 902.175 129.585 877.941 134.15 855.495L136.017 845.199C126.181 861.985 120.713 881.506 118.772 900.736C106.82 874.911 109.245 843.543 114.174 816.249C115.591 808.401 117.058 800.378 119.637 792.82C118.839 791.927 118.009 791.095 117.153 790.259C114.361 795.455 111.527 800.652 109.198 806.076C104.984 815.888 101.658 826.083 96.1063 835.263C95.1314 837.07 94.1186 838.858 93.1233 840.653C85.0968 803.286 101.691 779.045 115.141 746.243C116.743 740.22 118.918 734.34 120.361 728.282C111.962 742.849 104.371 762.959 90.4589 773.153C86.944 775.728 83.106 777.365 79.0425 778.864C75.4145 779.506 71.8993 779.97 68.2188 780.159C82.1558 766.42 92.495 751.167 96.5404 731.722C100.082 714.7 99.4281 708.044 109.909 693.117C113.432 688.084 117.325 683.54 121.453 679.001C114.755 684.068 108.858 689.403 103.457 695.855C93.4409 707.82 85.0499 722.24 73.1044 732.421C72.6103 733.009 72.9526 732.757 71.9479 732.956C71.6769 732.17 71.5989 732.184 71.5755 731.51C71.429 727.292 72.9923 721.96 73.9204 717.798Q74.4938 715.286 75.1553 712.797Q75.8168 710.307 76.5656 707.841Q77.3143 705.376 78.1495 702.939Q78.9846 700.502 79.905 698.096Q80.8255 695.69 81.8301 693.317Q82.8347 690.945 83.9222 688.61Q85.0098 686.274 86.1789 683.978Q87.348 681.683 88.5972 679.43Q89.8465 677.177 91.1743 674.969Q92.5021 672.761 93.9068 670.601Q95.3116 668.442 96.7915 666.333Q98.2714 664.224 99.8247 662.169Q101.378 660.114 103.003 658.114Q104.627 656.115 106.322 654.174Q108.016 652.233 109.777 650.353Q111.538 648.473 113.365 646.656C115.275 644.221 117.514 642.123 119.729 639.972C96.5728 653.445 89.3207 674.802 61.9557 682.939C58.7303 684.664 55.3748 685.387 51.8299 686.122C56.0946 681.332 60.3976 676.543 63.7854 671.073C75.551 652.078 78.7733 628.896 90.6203 609.807C97.1061 599.357 106.689 591.81 114.829 582.771C105.678 583.739 89.1747 600.967 74.3787 604.185L73.3094 604.262L72.9386 603.778C75.8987 598.626 81.7595 593.386 85.8024 588.868C96.4584 576.959 107.7 566.461 120.446 556.81C147.965 535.971 166.452 528.758 184.274 496.006C185.134 493.971 186.062 492.019 187.099 490.068C206.549 499.161 213.747 503.947 236.029 504.017C233.298 511.993 230.111 519.773 226.022 527.16C222.591 533.36 218.563 539.259 215.458 545.629C236.362 537.581 249.033 531.757 264.412 514.845C257.315 541.723 248.938 567.88 235.354 592.262C251.504 584.583 265.762 576.198 278.466 563.356C278.49 566.784 278.321 570.336 278.575 573.748C280.584 586.711 281.808 599.756 287.369 611.828C279.165 623.434 270.619 635.063 261.265 645.774C253.86 633.432 246.284 621.232 237.087 610.122C232.337 604.385 226.934 599.245 222.095 593.593C213.458 586.378 203.767 578.482 193.296 574.171L192.842 574.444L194.397 575.753C221.501 591.849 242.788 625.873 257.148 653.201C252.45 658.891 247.837 665.574 242.573 670.684Q232.22 682.306 222.165 694.187C217.725 699.425 213.491 705.321 208.301 709.835C206.889 711.063 205.492 711.553 203.744 712.13C203.616 712.172 203.491 712.22 203.364 712.265L203.902 713.364C203.453 717.195 191.006 727.822 187.8 731.227C173.819 746.077 161.77 761.788 155.6 781.533C154.171 786.106 152.36 791.706 152.658 796.549C156.916 787.062 161.103 777.373 166.684 768.571C180.053 747.487 200.714 731.922 217.621 713.867C236.14 694.089 255.436 671.237 271.999 649.743Q299.174 614.41 323.337 576.953C333.903 560.339 343.444 542.749 354.606 526.568C357.386 520.354 360.975 514.464 364.172 508.453C367.913 501.418 371.172 494.314 374.14 486.92C368.056 495.808 361.516 504.066 354.353 512.101Q344.938 503.135 334.611 495.238C324.89 487.782 270.015 450.438 267.765 441.619Z"/>
	<path fill="#8B3B3A" d="M270.634 945.71C274.543 935.511 278.492 924.514 279.028 913.523C279.369 906.541 276.434 900.615 278.983 893.576C282.706 883.298 289.201 873.709 294.755 864.324Q301.384 853.103 307.396 841.54Q334.698 790.043 356.761 736.093Q385.62 663.936 410.279 590.237C415.814 573.544 420.561 556.563 425.854 539.788C429.285 528.912 432.644 517.874 437.698 507.623C440.618 510.917 449.5 511.097 453.843 511.616L454.003 511.908C453.745 511.92 453.484 511.904 453.228 511.943C451.868 512.153 451.367 512.982 450.748 514.122C447.802 519.544 446.4 527.222 444.744 533.179L436.591 562.329C431.436 580.538 426.189 598.891 420.308 616.874C416.237 629.322 411.616 641.585 407.512 654.023C400.16 676.305 393.273 698.751 385.192 720.785Q364.912 775.622 339.8 828.421C327.783 854.219 315.35 879.716 300.695 904.146C291.818 918.942 280.099 931.435 270.634 945.71Z"/>
	<path fill="#DF715E" d="M152.658 796.549C156.916 787.062 161.103 777.373 166.684 768.571C180.053 747.487 200.714 731.922 217.621 713.867C236.14 694.089 255.436 671.237 271.999 649.743Q299.174 614.41 323.337 576.953C333.903 560.339 343.444 542.749 354.606 526.568C355.035 532.701 349.595 540.094 346.913 545.476C334.602 570.181 319.733 592.681 304.058 615.352C295.723 627.407 287.475 639.614 278.379 651.113C265.153 667.831 250.704 683.992 236.713 700.084C217.795 721.843 196.728 741.623 178.066 763.592C173.01 769.543 167.851 775.598 163.482 782.072C160.488 786.508 158.095 791.848 154.725 795.943C154.039 796.777 153.738 797.314 152.709 797.661L152.658 796.549Z"/>
	<path fill="#8B3B3A" d="M278.575 573.748C280.584 586.711 281.808 599.756 287.369 611.828C279.165 623.434 270.619 635.063 261.265 645.774C253.86 633.432 246.284 621.232 237.087 610.122C232.337 604.385 226.934 599.245 222.095 593.593C230.909 594.122 258.39 620.239 265.581 626.764C269.592 615.839 271.693 604.284 273.967 592.905C275.163 586.922 275.893 579.16 278.575 573.748Z"/>
	<path fill="#8B3B3A" d="M194.397 575.753C221.501 591.849 242.788 625.873 257.148 653.201C252.45 658.891 247.837 665.574 242.573 670.684C241.088 663.78 240.843 656.532 239.497 649.56C235.501 628.846 224.807 610.95 211.337 594.995C206.001 588.674 198.089 583.191 194.397 575.753Z"/>
	<path fill="#8B3B3A" d="M204.176 946.048C213.507 928.86 219.391 906.839 238.92 898.542C238.246 901.176 237.611 903.823 236.78 906.413C234.108 917.387 228.808 925.928 224.225 936.056C219.575 946.332 217.045 956.759 215.249 967.834C213.209 966.084 210.022 963.942 208.748 961.561C209.406 960.945 209.842 960.245 210.362 959.508C208.555 954.856 206.492 950.47 204.176 946.048Z"/>
	<path fill="#B24F49" d="M210.362 959.508C211.845 958.085 214.61 947.172 215.816 943.995C219.324 934.753 228.903 912.288 235.694 906.258L236.78 906.413C234.108 917.387 228.808 925.928 224.225 936.056C219.575 946.332 217.045 956.759 215.249 967.834C213.209 966.084 210.022 963.942 208.748 961.561C209.406 960.945 209.842 960.245 210.362 959.508Z"/>
	<path fill="#DF715E" d="M114.829 582.771C116.052 582.7 116.593 582.828 117.68 583.393C117.673 583.672 117.737 583.961 117.66 584.229C117.225 585.75 110.885 591.888 109.584 593.479Q104.524 599.67 100.132 606.351C87.6322 625.011 81.8437 646.636 71.8984 666.584C69.0766 672.244 65.4532 677.678 61.9557 682.939C58.7303 684.664 55.3748 685.387 51.8299 686.122C56.0946 681.332 60.3976 676.543 63.7854 671.073C75.551 652.078 78.7733 628.896 90.6203 609.807C97.1061 599.357 106.689 591.81 114.829 582.771Z"/>
	<path fill="#DF715E" d="M184.274 496.006C185.132 502.279 176.692 513.247 173.063 517.992C157.477 538.376 134.361 550.956 114.737 566.895C104.199 575.454 95.8622 585.687 86.0939 594.966C82.4567 598.421 77.9806 600.765 74.3787 604.185L73.3094 604.262L72.9386 603.778C75.8987 598.626 81.7595 593.386 85.8024 588.868C96.4584 576.959 107.7 566.461 120.446 556.81C147.965 535.971 166.452 528.758 184.274 496.006Z"/>
	<path fill="#8B3B3A" d="M286.187 855.686C283.88 864.736 281.815 873.924 278.296 882.6C275.163 890.324 270.383 897.265 266.273 904.479C258.638 917.883 254.135 930.18 242.794 941.659L241.993 941.842C242.752 938.326 243.226 934.696 243.826 931.147C249.288 924.153 252.998 914.913 257.394 907.193C267.137 890.086 278.013 873.658 286.187 855.686Z"/>
	<path fill="#DF715E" d="M115.141 746.243C118.049 755.374 105.327 780.925 102.186 790.72C98.3085 802.816 93.8274 822.471 96.1063 835.263C95.1314 837.07 94.1186 838.858 93.1233 840.653C85.0968 803.286 101.691 779.045 115.141 746.243Z"/>
	<defs>
		<linearGradient id="gradient_0" gradientUnits="userSpaceOnUse" x1="166.97086" y1="751.2558" x2="157.40947" y2="739.16821">
			<stop offset="0" stop-color="black"/>
			<stop offset="1" stop-color="#230C18"/>
		</linearGradient>
	</defs>
	<path fill="url(#gradient_0)" d="M124.169 790.682Q127.415 783.021 131.4 775.717Q135.385 768.414 140.072 761.539C154.888 739.877 176.495 717.302 203.364 712.265L203.902 713.364C199.298 714.813 194.834 717.802 190.74 720.363Q187.204 722.562 183.775 724.924Q180.346 727.286 177.031 729.806Q173.716 732.326 170.522 734.998Q167.328 737.67 164.263 740.488Q161.197 743.306 158.267 746.265Q155.337 749.223 152.548 752.315Q149.759 755.408 147.118 758.627Q144.477 761.846 141.989 765.185C135.722 773.449 130.938 782.792 124.169 790.682Z"/>
	<path fill="#DF715E" d="M113.365 646.656C113.74 648.166 113.439 648.723 112.659 650.061C107.628 658.694 100.5 666.074 95.4783 674.711C88.2464 687.151 85.7635 701.461 80.6242 714.731C78.3312 720.652 74.4861 726.172 73.1044 732.421C72.6103 733.009 72.9526 732.757 71.9479 732.956C71.6769 732.17 71.5989 732.184 71.5755 731.51C71.429 727.292 72.9923 721.96 73.9204 717.798Q74.4938 715.286 75.1553 712.797Q75.8168 710.307 76.5656 707.841Q77.3143 705.376 78.1495 702.939Q78.9846 700.502 79.905 698.096Q80.8255 695.69 81.8301 693.317Q82.8347 690.945 83.9222 688.61Q85.0098 686.274 86.1789 683.978Q87.348 681.683 88.5972 679.43Q89.8465 677.177 91.1743 674.969Q92.5021 672.761 93.9068 670.601Q95.3116 668.442 96.7915 666.333Q98.2714 664.224 99.8247 662.169Q101.378 660.114 103.003 658.114Q104.627 656.115 106.322 654.174Q108.016 652.233 109.777 650.353Q111.538 648.473 113.365 646.656Z"/>
	<path fill="#DF715E" d="M109.909 693.117C111.057 697.501 105.538 706.088 104.189 710.593C100.893 721.595 100.772 733.2 97.6458 744.22C96.1531 749.482 94.1845 754.485 91.4189 759.212C87.7933 765.408 81.1999 772.119 79.0425 778.864C75.4145 779.506 71.8993 779.97 68.2188 780.159C82.1558 766.42 92.495 751.167 96.5404 731.722C100.082 714.7 99.4281 708.044 109.909 693.117Z"/>
	<path fill="#DF715E" d="M185.768 905.023L187.495 904.867C190.241 908.296 192.342 918.576 193.835 923.13C196.394 930.938 199.401 939.319 204.176 946.048C206.492 950.47 208.555 954.856 210.362 959.508C209.842 960.245 209.406 960.945 208.748 961.561C205.034 957.76 202.032 952.872 199.305 948.339C190.907 934.377 186 921.372 185.768 905.023Z"/>
	<path fill="#DF715E" d="M134.15 855.495C135.166 856.1 134.959 855.703 135.186 856.676C136.147 860.798 133.721 873.08 135.037 880.78Q136.334 888.302 138.612 895.587C140.706 902.302 146.316 914.643 146.064 921.104C146.074 922.117 146.118 922.863 145.689 923.797C144.799 923.283 144.335 922.728 143.779 921.884C130.803 902.175 129.585 877.941 134.15 855.495Z"/>
	<path fill="#DF715E" d="M243.281 888.373C243.738 889.137 244.019 889.738 244.112 890.638C244.557 894.932 243.901 899.684 243.739 904.004C243.513 909.991 243.79 916.004 243.839 921.995C243.864 924.988 243.554 928.192 243.826 931.147C243.226 934.696 242.752 938.326 241.993 941.842C240.9 944.271 239.979 946.734 238.149 948.711L236.836 949.148C238.704 929.089 238.161 907.933 243.281 888.373Z"/>
	<path fill="#DF715E" d="M159.674 878.855C160.847 880.536 160.543 882.986 160.595 884.973C160.872 895.581 162.248 905.36 165.103 915.598C164.288 914.328 163.22 912.021 161.891 911.433C160.692 912.552 160.926 913.08 160.465 914.514C160.4 914.718 160.273 914.898 160.176 915.09C157.001 903.613 157.127 890.424 159.674 878.855Z"/>
	<path d="M117.153 790.259C119.347 785.598 122.259 781.928 125.558 777.991C123.432 782.888 121.502 787.819 119.637 792.82C118.839 791.927 118.009 791.095 117.153 790.259Z"/>
	<path fill="#8B3B3A" d="M175.684 897.861C176.369 902.289 173.12 925.313 170.801 929.19L170.003 929.023L169.487 927.86L166.274 918.025C171.913 911.702 173.396 905.762 175.684 897.861Z"/>
	<path fill="#FCC485" d="M556.945 141.039C574.944 140.018 596.951 150.566 610.684 161.592C622.849 171.359 635.527 184.802 641.996 199.188C648.533 213.727 649.802 231.366 652.189 247.061C657.195 279.978 660.936 312.973 664.646 346.054C655.906 340.794 647.463 338.946 637.312 340.044C620.459 341.867 603.623 347.917 588.152 354.667C536.239 377.317 494.432 411.723 458.995 455.529C450.921 444.026 442.487 433.394 432.557 423.413C414.415 405.179 393.636 389.768 375.372 371.664C368.785 365.135 362.87 358.038 356.91 350.942C356.907 328.161 358.804 305.707 364.785 283.673C376.697 239.789 403.583 194.796 444.062 171.912C471.67 156.305 490.1 169.108 517.145 176.642C527.791 164.838 541.148 145.589 556.945 141.039Z"/>
	<path fill="#321018" d="M473.514 226.642C482.524 225.684 492.048 228.476 499.865 232.815C521.675 244.922 535.888 269.38 542.366 292.807C549.127 317.256 547.951 346.341 535.186 368.716C526.912 383.218 513.624 392.609 497.651 396.898C485.066 399.426 472.738 395.929 462.202 388.921C442.57 375.865 432.291 353.492 427.818 331.004C422.342 303.472 425.443 272.566 441.512 248.916C449.329 237.411 459.685 229.231 473.514 226.642Z"/>
	<path fill="#F9F5FB" d="M475.602 234.591C483.75 233.964 492.199 236.774 499.134 240.896C518.591 252.462 530.56 275.541 535.847 296.868C541.399 319.264 540.248 345.617 527.9 365.679C520.734 377.32 510.297 385.544 496.969 388.783C487.602 390.57 478.319 389.11 469.975 384.477C453.274 375.204 442.478 356.467 437.328 338.612C430.111 313.593 431.07 282.701 444.077 259.661C451.544 246.434 460.995 238.612 475.602 234.591Z"/>
	<path fill="#321018" d="M508.321 286.5C510.009 286.44 511.788 286.447 513.42 286.933C518.634 288.486 522.464 292.693 524.998 297.335C528.681 304.08 530.021 313.218 527.592 320.569C525.792 326.018 522.473 329.08 517.458 331.507C515.791 331.617 513.941 331.623 512.308 331.236C507.272 330.043 503.225 326.1 500.731 321.722C496.896 314.992 495.48 305.851 497.754 298.385C499.565 292.442 503.032 289.277 508.321 286.5Z"/>
	<path fill="#F9F5FB" d="M507.2 295.422C509.323 295.487 511.183 295.585 512.853 297.057C514.065 298.126 514.625 299.543 514.651 301.127C514.703 304.325 512.931 306.435 510.762 308.547C508.79 308.522 507.096 308.382 505.479 307.131C504.248 306.178 503.573 304.881 503.478 303.319C503.272 299.957 505.042 297.761 507.2 295.422Z"/>
	<path fill="#321018" d="M579.586 200.075C585.757 199.74 591.385 200.676 596.957 203.394C616.106 212.736 629.575 237.468 636.101 256.756C642.679 276.199 647.406 304.555 637.719 323.777C633.739 331.674 627.4 336.398 619.133 339.087C611.159 340.598 603.13 338.308 596.314 334.144C575.788 321.604 564.027 293.054 558.778 270.714C554.556 252.744 552.096 228.478 562.435 211.989C566.488 205.526 572.219 201.748 579.586 200.075Z"/>
	<path fill="#F9F5FB" d="M580.165 207.595C584.752 207.125 588.857 207.972 593.027 209.856C610.075 217.557 621.249 237.174 627.558 253.883C634.506 272.284 640.528 300.455 631.86 319.244C628.871 325.721 624.685 329.202 618.134 331.589C613.111 332.283 608.435 331.769 603.737 329.872C588.415 323.685 578.378 306.02 572.22 291.624C563.727 271.772 557.164 243.202 565.698 222.323C568.643 215.119 573.004 210.616 580.165 207.595Z"/>
	<path fill="#321018" d="M607.159 254.068C608.816 254.198 610.431 254.363 612.001 254.943C617.687 257.043 621.836 262.431 624.142 267.853C626.849 274.221 627.804 282.551 625.068 289.039C623.193 293.484 620.391 295.755 616.057 297.606C613.596 297.617 611.279 297.388 609.039 296.3C603.435 293.58 599.831 287.987 597.928 282.222C595.781 275.719 595.325 267.275 598.569 261.086C600.534 257.336 603.179 255.321 607.159 254.068Z"/>
	<path fill="#F9F5FB" d="M606.307 261.342C607.97 261.411 609.545 261.631 610.878 262.696Q611.104 262.875 611.31 263.078Q611.516 263.28 611.699 263.504Q611.881 263.728 612.038 263.97Q612.195 264.212 612.325 264.47Q612.454 264.728 612.555 264.999Q612.656 265.269 612.727 265.549Q612.798 265.829 612.838 266.115Q612.877 266.401 612.886 266.69C612.99 269.96 611.376 272.233 609.23 274.506C607.683 274.507 605.93 274.261 604.613 273.379C603.317 272.511 602.571 271.127 602.489 269.58C602.308 266.192 604.177 263.743 606.307 261.342Z"/>
	<defs>
		<linearGradient id="gradient_1" gradientUnits="userSpaceOnUse" x1="448.02634" y1="236.04076" x2="436.99716" y2="224.70949">
			<stop offset="0" stop-color="black"/>
			<stop offset="1" stop-color="#301919"/>
		</linearGradient>
	</defs>
	<path fill="url(#gradient_1)" d="M479.79 195.151C483.996 194.893 488.262 195.58 492.406 196.22C488.859 197.265 485.083 197.515 481.474 198.33C474.724 199.854 468.401 204.066 462.979 208.204C439.621 226.035 424.78 251.272 409.279 275.658L403.517 285.135C409.469 265.061 421.278 245.776 433.955 229.211C445.038 214.729 460.752 197.708 479.79 195.151Z"/>
	<defs>
		<linearGradient id="gradient_2" gradientUnits="userSpaceOnUse" x1="582.81177" y1="191.04524" x2="593.19489" y2="176.90262">
			<stop offset="0" stop-color="black"/>
			<stop offset="1" stop-color="#301216"/>
		</linearGradient>
	</defs>
	<path fill="url(#gradient_2)" d="M553.849 184.883C555.063 183.251 556.306 181.653 557.685 180.155C562.232 175.218 568.441 171.789 575.257 171.675C589.714 171.434 603.818 182.609 613.637 192.086L611.788 195.842C601.781 187.537 587.796 177.069 574.441 175.923C565.536 175.159 560.279 179.548 553.849 184.883Z"/>
	<path d="M611.788 195.842L613.637 192.086C621.896 200.473 631.473 210.914 635.36 222.234L635.145 222.805C628.613 213.243 620.654 203.298 611.788 195.842Z"/>
	<path d="M457.042 401.005C462.843 402.482 468.495 404.36 474.536 404.52C480.263 404.673 491.235 401.233 495.412 402.484L494.858 403.224C489.133 405.475 483.425 407.064 477.257 407.427C469.614 407.877 462.882 406.189 457.042 401.005Z"/>
	<path fill="#FCC485" d="M464.121 465.473C494.457 421.9 542.278 384.738 590.535 363.064C602.222 357.815 614.285 352.969 626.82 350.168C636.105 348.093 648.481 346.414 656.847 352.055C658.633 353.259 660.545 355.09 660.962 357.266C662.754 358.94 663.85 360.371 664.384 362.807C673.025 368.362 679.838 376.094 686.543 383.776C716.086 417.627 731.607 453.956 747.37 495.485C734.183 515.146 717.133 528.901 697.682 541.871C691.192 546.199 684.657 550.589 677.547 553.844C668.624 560.36 656.814 564.031 646.831 568.766C646.04 570.776 643.96 571.626 642.064 572.464C632.461 576.711 576.081 590.257 569.128 587.534L568.282 586.469C561.185 586.411 554.142 587.118 547.057 587.382C532.553 587.923 516.857 587.954 502.473 585.756C502.223 586.032 502.005 586.319 501.673 586.505C498.336 588.371 486.576 585.614 482.916 584.213C474.49 582.609 461.246 580.935 453.779 577.367C452.318 576.669 452.006 576.28 451.45 574.784C451.164 574.587 450.991 574.262 450.775 573.99C451.848 569.342 453.2 564.821 454.159 560.125C459.718 538.579 469.591 503.633 468.001 481.972C467.578 476.218 465.927 470.908 464.121 465.473Z"/>
	<path fill="#E1A370" d="M454.159 560.125C460.221 563.178 468.21 564.973 474.782 566.847C522.735 580.528 576.598 580.365 624.904 568.649C632.622 566.777 640.369 564.774 647.932 562.346C656.546 559.58 668.194 554.44 677.128 553.863C677.267 553.854 677.407 553.85 677.547 553.844C668.624 560.36 656.814 564.031 646.831 568.766C646.04 570.776 643.96 571.626 642.064 572.464C632.461 576.711 576.081 590.257 569.128 587.534L568.282 586.469C561.185 586.411 554.142 587.118 547.057 587.382C532.553 587.923 516.857 587.954 502.473 585.756C502.223 586.032 502.005 586.319 501.673 586.505C498.336 588.371 486.576 585.614 482.916 584.213C474.49 582.609 461.246 580.935 453.779 577.367C452.318 576.669 452.006 576.28 451.45 574.784C451.164 574.587 450.991 574.262 450.775 573.99C451.848 569.342 453.2 564.821 454.159 560.125Z"/>
	<path d="M568.282 586.469C576.55 585.383 584.963 584.677 593.159 583.151C611.385 579.758 629.208 574.405 646.831 568.766C646.04 570.776 643.96 571.626 642.064 572.464C632.461 576.711 576.081 590.257 569.128 587.534L568.282 586.469Z"/>
	<path d="M451.45 574.784C462.273 576.832 472.617 580.896 483.536 582.883L482.916 584.213C474.49 582.609 461.246 580.935 453.779 577.367C452.318 576.669 452.006 576.28 451.45 574.784Z"/>
	<path fill="#1A0002" d="M483.536 582.883Q492.96 584.61 502.473 585.756C502.223 586.032 502.005 586.319 501.673 586.505C498.336 588.371 486.576 585.614 482.916 584.213L483.536 582.883Z"/>
	<path d="M623.028 387.796C623.404 384.344 623.919 380.977 624.927 377.649C627.407 369.454 632.467 361.098 640.317 357.101C647.221 353.586 653.997 354.893 660.962 357.266C662.754 358.94 663.85 360.371 664.384 362.807C658.393 360.222 652.339 357.87 645.727 359.657C638.815 361.525 633.69 366.952 630.224 372.986C628.027 376.812 623.633 384.872 624.919 389.244C625.126 389.947 624.933 390.125 624.706 390.81C622.704 390.811 610.107 384.566 606.076 383.442C593.915 380.051 581.426 381.583 570.467 387.928C561.261 393.257 553.206 402.81 550.104 413.076C549.57 414.844 549.579 416.734 549.088 418.549L548.327 418.457L548.478 418.005L547.949 417.075L547.989 417.455C547.917 410.49 550.049 403.627 553.714 397.736C559.934 387.739 570.484 380.414 581.935 377.818C596.965 374.411 610.47 379.862 623.028 387.796Z"/>
	<path fill="#321018" d="M576.777 401.194C581.887 398.119 588.737 398.94 594.285 400.323C605.34 403.077 617.238 409.428 625.155 417.682C628.194 420.849 630.712 424.432 633.462 427.84L633.68 429.323C633.215 429.761 633.23 429.806 632.549 430.118C627.248 432.548 582.887 428.158 576.438 425.883C572.801 424.646 570.403 422.379 568.616 419.015C568.513 418.816 568.4 418.621 568.307 418.417C567.043 415.627 567.049 412.364 568.143 409.519C569.691 405.493 572.991 402.958 576.777 401.194Z"/>
	<path d="M576.438 425.883C582.004 422.565 622.935 430.187 633.462 427.84L633.68 429.323C633.215 429.761 633.23 429.806 632.549 430.118C627.248 432.548 582.887 428.158 576.438 425.883Z"/>
	<path d="M568.616 419.015C568.513 418.816 568.4 418.621 568.307 418.417C567.043 415.627 567.049 412.364 568.143 409.519C569.691 405.493 572.991 402.958 576.777 401.194C576.227 404.235 573.396 404.906 571.916 407.346C569.826 410.794 570.601 416.081 568.616 419.015Z"/>
	<path d="M658.242 374.006C659.041 373.996 659.794 374.009 660.584 374.152C663.577 374.696 666.239 376.53 667.938 379.042C670.339 382.592 671.419 387.556 670.511 391.758C667.999 403.376 652.426 411.291 643.299 417.045C643.232 417.098 643.156 417.143 643.097 417.205C640.978 419.421 641.974 423.726 642.174 426.585L641.618 425.371C641.395 424.895 641.158 424.426 640.941 423.947C636.529 414.189 639.034 401.575 642.748 392.012C645.903 383.89 650.044 377.656 658.242 374.006Z"/>
	<path fill="#321018" d="M657.926 376.024C659.083 375.951 660.255 375.884 661.406 376.068C663.489 376.4 664.97 377.518 666.103 379.27C668.351 382.747 669.352 386.761 668.46 390.847C666.324 400.631 654.618 406.786 646.75 411.581L640.718 415.739L640.751 413.499C640.811 408.867 641.406 404.431 642.547 399.935C645.038 390.118 648.911 381.353 657.926 376.024Z"/>
	<path fill="#8B3B3A" d="M683.611 293.031C684.644 292.905 685.431 292.671 686.413 292.352C693.375 290.095 707.815 285.791 711.32 278.934C718.952 283.546 725.336 291.433 731.563 297.809C753.856 320.634 772.465 346.925 790.334 373.264C826.78 426.989 857.098 479.212 882.573 539.073C888.043 551.926 893.48 564.94 898.093 578.127C903.01 592.185 907.892 613.778 915.754 625.808C917.649 628.706 919.853 631.43 923.696 630.601C925.937 630.118 927.553 627.837 928.526 625.936C933.029 617.142 931.161 604.261 934.288 598.172C937.329 607.7 940.921 617.087 944.574 626.397C946.935 635.681 941.248 645.106 936.621 652.826C926.904 669.037 914.732 681.179 898.843 691.264C901.882 681.256 904.801 671.384 906.431 661.024C907.604 653.568 907.861 646 908.956 638.549C902.892 646.424 896.633 653.989 888.955 660.38C872.671 673.935 852.889 683.881 834.529 694.287C827.091 698.503 819.323 704.012 811.133 706.475C817.842 691.039 828.686 678.32 837.611 664.201C815.398 680.21 787.975 698.931 760.605 704.126C768.296 692.231 777.821 681.666 785.376 669.663C773.03 677.596 759.164 681.26 745.501 686.151Q730.978 691.487 716.956 698.029C710.361 701.146 703.505 704.448 697.499 708.594C692.126 712.303 687.35 717.01 681.485 719.957C684.023 704.989 695.867 689.502 706.972 679.616Q684.059 688.359 662.359 699.787C654.063 704.162 645.913 709.248 637.437 713.23Q634.586 708.142 631.803 703.017L640.407 699.612C645.216 695.887 650.819 692.883 655.835 689.392C677.564 674.266 691.735 659.309 696.53 632.549C694.97 609.692 684.845 588.598 675.02 568.268Q689.503 560.031 703.281 550.661Q717.059 541.291 730.043 530.849C732.42 528.653 734.839 526.152 737.959 525.07C746.302 522.177 756.778 522.204 765.595 521.334C776.042 520.303 786.539 519.023 797.018 518.42L800.331 525.602C807.814 539.431 814.214 554.318 822.589 567.589L825.737 566.523Q809.728 524.566 791.818 483.385Q777.43 451.42 761.214 420.341Q744.998 389.263 727.01 359.176C718.891 345.85 710.53 332.287 700.982 319.926C698.011 316.081 695.03 312.223 691.856 308.542C688.22 304.324 683.389 299.921 680.741 295.064C681.339 293.737 682.335 293.629 683.611 293.031Z"/>
	<path fill="#B24F49" d="M825.737 566.523Q809.728 524.566 791.818 483.385Q777.43 451.42 761.214 420.341Q744.998 389.263 727.01 359.176C718.891 345.85 710.53 332.287 700.982 319.926C698.011 316.081 695.03 312.223 691.856 308.542C688.22 304.324 683.389 299.921 680.741 295.064C681.339 293.737 682.335 293.629 683.611 293.031C695.27 305.706 706.507 318.636 716.558 332.64C733.52 356.272 747.504 381.519 761.238 407.105C795.515 470.961 824.669 537.097 844.938 606.804C841.34 610.214 837.736 612.685 833.179 614.681C809.224 625.172 765.278 626.885 738.536 629.19C724.72 630.381 710.376 632.65 696.53 632.549C694.97 609.692 684.845 588.598 675.02 568.268Q689.503 560.031 703.281 550.661Q717.059 541.291 730.043 530.849C732.42 528.653 734.839 526.152 737.959 525.07C746.302 522.177 756.778 522.204 765.595 521.334C776.042 520.303 786.539 519.023 797.018 518.42L800.331 525.602C807.814 539.431 814.214 554.318 822.589 567.589L825.737 566.523Z"/>
	<path fill="#DF715E" d="M730.043 530.849C732.42 528.653 734.839 526.152 737.959 525.07C746.302 522.177 756.778 522.204 765.595 521.334C776.042 520.303 786.539 519.023 797.018 518.42L800.331 525.602C795.274 526.964 788.716 526.577 783.424 526.995C777.527 527.462 732.226 531.854 730.5 531.116C730.338 531.047 730.196 530.938 730.043 530.849Z"/>
	<path d="M825.737 566.523C827.973 572.481 830.357 578.424 832.369 584.46C828.96 578.95 825.404 573.434 822.589 567.589L825.737 566.523Z"/>
	<path fill="#B24F49" d="M944.574 626.397C946.935 635.681 941.248 645.106 936.621 652.826C926.904 669.037 914.732 681.179 898.843 691.264C901.882 681.256 904.801 671.384 906.431 661.024C907.604 653.568 907.861 646 908.956 638.549C902.892 646.424 896.633 653.989 888.955 660.38C872.671 673.935 852.889 683.881 834.529 694.287C827.091 698.503 819.323 704.012 811.133 706.475C817.842 691.039 828.686 678.32 837.611 664.201C815.398 680.21 787.975 698.931 760.605 704.126C768.296 692.231 777.821 681.666 785.376 669.663C773.03 677.596 759.164 681.26 745.501 686.151Q730.978 691.487 716.956 698.029C710.361 701.146 703.505 704.448 697.499 708.594C692.126 712.303 687.35 717.01 681.485 719.957C684.023 704.989 695.867 689.502 706.972 679.616Q684.059 688.359 662.359 699.787C654.063 704.162 645.913 709.248 637.437 713.23Q634.586 708.142 631.803 703.017L640.407 699.612C649.141 699.784 672.567 686.895 681.967 682.958C688.706 680.136 695.441 677.78 702.396 675.545C706.09 674.358 712.705 671.944 716.485 673.269C715.813 678.608 701.714 695.211 698.053 700.667C706.282 696.617 714.393 692.249 722.752 688.475C731.142 684.688 779.482 664.476 786.928 666.047C787.798 666.231 787.714 666.434 788.175 667.118C788.132 674.044 778.077 686.825 774 692.655C790.923 685.512 806.951 676.396 822.361 666.453C826.147 664.01 837.932 653.315 841.647 653.519C842.315 654.041 842.704 654.107 842.884 654.996C844.428 662.613 829.954 684.3 825.412 691.251C832.737 686.992 840.437 683.401 847.872 679.34C856.109 674.842 864.12 669.721 871.903 664.481C879.8 659.163 887.709 653.598 895.115 647.613C898.674 644.737 901.949 641.481 905.574 638.697C906.637 637.881 907.849 636.983 909.16 636.614C910.104 636.349 909.714 636.387 910.704 636.945C915.435 644.045 910.531 666.411 909.171 675.29C915.09 667.62 922.325 661.163 928.042 653.246C934.128 644.818 938.393 635.271 944.285 626.803L944.574 626.397Z"/>
	<path fill="#B24F49" d="M261.288 135.166C264.586 117.081 267.886 98.9214 276.496 82.4562C286.236 63.8273 299.96 51.3331 320.055 45.0242Q316.586 48.1864 313.027 51.2459C301.507 67.5802 293.327 87.4664 291.474 107.468C291.15 110.966 290.717 115.182 291.451 118.647C291.591 119.304 291.844 119.677 292.312 120.143C293.475 119.994 293.38 119.806 294.15 118.999C297.957 109.153 303.846 98.4702 310.227 90.1223C323.551 72.6927 341.584 64.5305 362.881 61.7329L358.449 65.1646C343.296 79.7788 330.367 95.4164 321.306 114.615C368.43 88.3772 464.966 81.4119 516.867 96.2521C547.247 104.939 566.194 118.618 589.843 138.807C575.434 134.532 560.587 129.487 546.371 137.139C534.095 143.748 522.354 155.346 514.801 167.001C491.894 158.462 470.022 149.999 446.232 160.956C407.202 178.931 376.625 220.886 362.172 260.484C353.913 283.113 349.728 306.437 347.338 330.355C341.73 317.821 339.361 305.667 340.036 291.913C340.517 282.104 342.91 272.219 344.748 262.593C347.699 247.137 354.028 220.735 334.482 213.509C330.735 212.123 327.239 212.244 323.649 213.991C322.546 214.528 321.505 215.179 320.472 215.838C318.65 208.14 315.972 201.187 308.941 196.745C304.932 194.212 299.932 192.954 295.266 194.189C289.744 195.651 286.325 199.839 283.403 204.441C279.14 201.365 274.997 199.226 269.52 200.042C264.711 200.758 260.7 203.939 257.985 207.851C251.444 217.276 251.615 229.86 249.832 240.776C244.88 241.159 240.643 241.435 237.119 245.394C225.394 258.565 223.653 301.11 223.49 319.014C210.409 311.521 194.076 303.961 178.573 305.153C177.351 305.322 177.045 305.542 175.884 305.022C175.665 304.423 175.618 304.382 175.535 303.643C174.829 297.391 180.189 284.795 182.334 278.635C195.133 241.877 210.487 201.924 237.886 173.374C232.703 173.954 227.603 175.097 222.418 175.714C215.646 176.52 208.839 176.88 202.076 177.795C191.497 179.226 180.788 181.369 170.08 180.872C171.191 179.714 172.354 178.247 173.697 177.391C186.9 164.439 212.336 154.969 230.638 152.721C234.294 152.272 238.014 151.893 241.058 154.276C242.589 155.958 244.525 157.27 246.326 158.648L243.81 152.958C237.845 141.604 236.203 127.073 236.543 114.411C237.046 95.6549 241.631 75.9973 255.718 62.736C255.578 65.7409 255.289 68.627 254.809 71.5968C252.77 89.1248 252.494 119.531 261.288 135.166Z"/>
	<path fill="#DF715E" d="M242.348 169.09C235.144 181.225 227.235 193.008 220.342 205.312Q210.249 223.19 201.721 241.865Q193.192 260.54 186.29 279.875C183.388 288.191 181.151 296.734 178.573 305.153C177.351 305.322 177.045 305.542 175.884 305.022C175.665 304.423 175.618 304.382 175.535 303.643C174.829 297.391 180.189 284.795 182.334 278.635C195.133 241.877 210.487 201.924 237.886 173.374C239.536 172.054 240.935 170.659 242.348 169.09Z"/>
	<path fill="#DF715E" d="M261.288 135.166C264.586 117.081 267.886 98.9214 276.496 82.4562C286.236 63.8273 299.96 51.3331 320.055 45.0242Q316.586 48.1864 313.027 51.2459C310.886 51.8626 308.418 52.4106 306.473 53.5035C297.933 58.3031 288.557 72.5338 283.931 80.9213C279.006 89.8517 274.473 100.215 271.323 109.95C269.17 116.604 267.607 123.456 265.185 130.02C264.512 131.844 263.683 134.621 262.165 135.846C261.365 135.451 261.608 135.73 261.288 135.166Z"/>
	<path fill="#DF715E" d="M255.718 62.736C255.578 65.7409 255.289 68.627 254.809 71.5968C253.271 71.2233 253.167 71.0796 251.751 71.7319C248.685 75.5207 247.782 80.93 246.712 85.5726Q245.406 91.2064 244.519 96.9211Q243.633 102.636 243.17 108.4Q242.707 114.165 242.67 119.948Q242.633 125.731 243.023 131.501C243.364 136.029 245.607 149.598 243.81 152.958C237.845 141.604 236.203 127.073 236.543 114.411C237.046 95.6549 241.631 75.9973 255.718 62.736Z"/>
	<path fill="#DF715E" d="M294.15 118.999C297.957 109.153 303.846 98.4702 310.227 90.1223C323.551 72.6927 341.584 64.5305 362.881 61.7329L358.449 65.1646C341.155 66.8317 326.504 78.659 315.815 91.6519C312.317 95.9033 299.169 118.505 295.544 119.007C295.059 119.074 294.63 119.028 294.15 118.999Z"/>
	<path fill="#DF715E" d="M173.697 177.391C186.9 164.439 212.336 154.969 230.638 152.721C234.294 152.272 238.014 151.893 241.058 154.276C237.863 156.823 229.735 157.075 225.526 157.957C216.838 159.778 207.929 162.634 199.571 165.63C190.845 168.758 183.335 174.567 174.689 177.658L173.697 177.391Z"/>
	<path fill="#B24F49" d="M625.952 120.436C640.176 136.702 653.833 153.381 668.824 168.973C700.305 201.714 737.165 231.789 775.347 256.424C785.698 263.103 796.096 269.975 806.821 276.035C825.341 286.499 844.26 295.272 860.298 309.525C853.154 309.517 846.276 308.806 839.259 307.46C832.172 306.1 808.025 298.136 803.355 299.241C808.345 301.212 813.174 303.311 817.777 306.088C824.541 310.17 830.854 315.277 837.229 319.938C853.203 331.62 895.847 362.586 903.048 379.301C903.315 379.919 903.392 380.368 903.354 381.035C902.325 381.379 902.763 381.415 902.05 381.228C885.555 375.558 869.636 368.515 852.922 363.423C855.511 364.955 858.127 366.433 860.551 368.22C886.744 384.471 922.193 418.922 938.482 445.179C942.078 450.976 944.887 457.116 947.218 463.518L942.921 460.225C936.053 455.738 928.633 452.229 921.425 448.345C914.227 444.466 907.138 440.253 899.725 436.802Q904.737 440.905 909.655 445.121C927.768 457.574 952.712 493.556 962.174 513.581C965.682 521.003 968.245 529.041 970 537.054C966.081 533.834 961.806 530.703 958.096 527.262C953.981 524.384 949.874 521.694 945.404 519.396C943.775 520.078 942.168 520.217 940.424 520.419C961.04 546.322 970.82 593.239 967.221 625.307C966.571 631.105 965.584 637.034 963.802 642.601C962.818 648.109 960.939 653.01 958.839 658.174C956.608 651.935 955.542 645.238 953.567 638.901C948.334 622.115 938.805 597.422 930.01 582.288Q931.933 590.288 934.288 598.172C931.161 604.261 933.029 617.142 928.526 625.936C927.553 627.837 925.937 630.118 923.696 630.601C919.853 631.43 917.649 628.706 915.754 625.808C907.892 613.778 903.01 592.185 898.093 578.127C893.48 564.94 888.043 551.926 882.573 539.073C857.098 479.212 826.78 426.989 790.334 373.264C772.465 346.925 753.856 320.634 731.563 297.809C725.336 291.433 718.952 283.546 711.32 278.934L713.394 272.701C723.973 283.163 734.266 293.927 748.188 299.869C736.262 289.735 725.185 278.599 714.193 267.475C717.453 256.876 720.237 246.113 721.84 235.126C695.645 207.746 670.954 179.712 647.352 150.065C639.956 140.774 631.049 131.187 625.952 120.436Z"/>
	<path fill="#DF715E" d="M963.802 642.601C961.568 635.401 964.162 623.264 964.043 615.314C963.92 607.075 962.897 598.623 961.373 590.546C958.267 574.096 953.172 557.53 947.233 541.888C945.303 536.803 938.652 525.26 938.798 520.504L939.73 519.925L940.424 520.419C961.04 546.322 970.82 593.239 967.221 625.307C966.571 631.105 965.584 637.034 963.802 642.601Z"/>
	<path fill="#DF715E" d="M909.655 445.121C927.768 457.574 952.712 493.556 962.174 513.581C965.682 521.003 968.245 529.041 970 537.054C966.081 533.834 961.806 530.703 958.096 527.262C958.176 523.127 958.697 520.1 960.593 516.383C954.231 506.918 947.88 497.338 941.127 488.147C934.895 479.666 911.284 453.425 909.655 445.121Z"/>
	<path fill="#DF715E" d="M902.05 381.228L901.644 380.594C890.846 363.526 848.732 332.207 831.571 320.357C826.651 316.96 800.916 302.358 799.311 299.547C799.104 299.185 799.144 299.244 799.229 298.917C800.57 298.563 802.015 299.002 803.355 299.241C808.345 301.212 813.174 303.311 817.777 306.088C824.541 310.17 830.854 315.277 837.229 319.938C853.203 331.62 895.847 362.586 903.048 379.301C903.315 379.919 903.392 380.368 903.354 381.035C902.325 381.379 902.763 381.415 902.05 381.228Z"/>
	<path fill="#DF715E" d="M860.551 368.22C886.744 384.471 922.193 418.922 938.482 445.179C942.078 450.976 944.887 457.116 947.218 463.518L942.921 460.225C939.976 443.668 894.609 399.811 881.733 388.007C875.683 382.46 868.909 377.674 863.014 371.976C861.815 370.817 860.846 369.926 860.551 368.22Z"/>
	<path d="M929.425 507.442C935.071 510.939 939.823 515.738 945.404 519.396C943.775 520.078 942.168 520.217 940.424 520.419L939.73 519.925C937.428 515.346 932.882 511.207 929.425 507.442Z"/>
	<path fill="#FCC485" d="M277.403 376.763C274.554 361.962 270.808 347.339 267.42 332.652C265.423 323.992 262.314 314.434 262.477 305.543C262.784 288.757 271.221 263.396 275.979 246.942C279.571 234.518 282.925 216.347 288.73 205.309C290.808 201.358 293.655 199.632 297.809 198.285C301.136 198.926 304.196 199.797 306.975 201.812C313.978 206.891 314.809 215.928 315.865 223.81Q311.367 232.875 307.267 242.128C300.521 257.39 291.19 280.46 290.99 297.07C290.856 308.308 293.425 320.081 295.817 331.033C298.725 344.353 302.179 357.461 307.096 370.187C308.4 370.122 309.531 369.814 310.777 369.463C306.361 353.189 294.405 308.318 295.712 293.938C296.756 282.449 301.633 269.581 305.515 258.734C309.601 247.321 314.099 235.167 320.197 224.661C321.643 222.169 323.454 219.194 326.378 218.335C329.226 217.498 332.59 218.436 335.082 219.883C338.998 222.156 341.065 226.225 341.997 230.525C343.608 237.952 342.783 246.171 341.438 253.568C339.729 262.972 336.838 272.098 334.851 281.435Q334.513 283.104 334.233 284.785Q333.954 286.465 333.733 288.154Q333.513 289.843 333.351 291.539Q333.189 293.234 333.087 294.935Q332.985 296.635 332.942 298.338Q332.899 300.04 332.916 301.744Q332.932 303.447 333.008 305.149Q333.084 306.85 333.22 308.548Q333.355 310.246 333.55 311.938Q333.745 313.63 333.998 315.315Q334.252 316.999 334.564 318.674Q334.876 320.348 335.247 322.011Q335.617 323.673 336.045 325.322Q336.474 326.97 336.959 328.603Q337.445 330.236 337.987 331.85Q338.53 333.465 339.128 335.06C359.528 390.224 423.067 411.134 450.18 461.36C453.443 467.403 456.472 473.891 457.373 480.766C458.161 486.78 457.308 502.667 454.68 507.793L453.923 508.255C454.361 509.63 454.121 510.222 453.843 511.616C449.5 511.097 440.618 510.917 437.698 507.623C441.272 499.137 442.19 489.883 442.904 480.798Q441.19 477.656 439.214 474.671C428.459 458.258 377.564 408.648 359.02 405.064C353.707 404.038 348.047 404.682 342.727 405.31C321.713 407.79 302.929 415.474 285.525 427.404C279.395 431.606 274.305 437.363 268.111 441.4C267.996 441.475 267.88 441.546 267.765 441.619L265.491 440.463C251.858 419.089 240.502 394.062 233.97 369.551Q231.963 361.817 230.753 353.92Q229.543 346.022 229.143 338.042C228.255 322.325 230.147 264.256 237.255 252.528C239.262 249.216 242.412 246.409 246.232 245.479C246.937 245.647 247.435 245.564 247.856 246.224C249.733 249.164 242.012 276.346 240.926 281.243C232.838 317.731 236.116 353.816 247.16 389.296C249.915 398.149 253.128 408.496 258.178 416.258C258.266 416.393 258.357 416.525 258.447 416.659C250.252 379.19 237.109 342.713 241.966 303.731C244.087 286.707 248.532 270.209 251.933 253.434C254.095 242.769 256.502 220.287 260.906 211.539C263.205 206.97 267.833 205.55 272.338 204.108C276.897 205.73 279.185 207.258 281.904 211.296C278.223 220.649 275.828 230.651 272.958 240.287C266.909 260.591 256.067 289.578 258.069 310.72C258.941 319.936 261.334 328.811 263.518 337.773C265.336 345.233 266.71 352.785 268.495 360.249C269.77 365.58 271.576 370.744 272.745 376.108C274.286 376.33 275.855 376.621 277.403 376.763Z"/>
	<path d="M265.491 440.463C269.612 435.68 274.87 431.96 279.961 428.275C299.8 413.916 321.198 404.15 345.895 402.388C352.061 401.948 358.531 401.942 364.503 403.746C375.963 407.208 388.741 420.123 397.851 428.082C409.206 438.002 444.739 468.469 445.703 483.936C446.166 491.355 443.675 499.269 441.7 506.327C445.73 506.886 449.995 507.208 453.923 508.255C454.361 509.63 454.121 510.222 453.843 511.616C449.5 511.097 440.618 510.917 437.698 507.623C441.272 499.137 442.19 489.883 442.904 480.798Q441.19 477.656 439.214 474.671C428.459 458.258 377.564 408.648 359.02 405.064C353.707 404.038 348.047 404.682 342.727 405.31C321.713 407.79 302.929 415.474 285.525 427.404C279.395 431.606 274.305 437.363 268.111 441.4C267.996 441.475 267.88 441.546 267.765 441.619L265.491 440.463Z"/>
	<path d="M272.745 376.108C274.286 376.33 275.855 376.621 277.403 376.763C280.248 386.631 281.815 397.181 283.158 407.352C278.662 397.18 275.472 386.863 272.745 376.108Z"/>
	<path d="M310.777 369.463C312.6 376.816 314.586 384.165 316.164 391.573C312.603 384.585 309.604 377.639 307.096 370.187C308.4 370.122 309.531 369.814 310.777 369.463Z"/>
	<path fill="#FCC485" d="M223.09 493.873Q218.275 492.916 213.61 491.387Q208.944 489.858 204.497 487.779C173.587 473.223 152.045 442.62 140.763 411.148C132.909 389.236 128.031 363.061 138.531 341.169C143.62 330.558 152.017 321.779 163.324 317.96C183.69 311.083 204.784 319.673 222.993 328.587C223.388 344.08 224.666 358.967 228.334 374.058L234.706 393.369C216.648 377.929 195.25 356.998 169.549 358.917C163.095 359.398 157.117 361.494 152.801 366.551C147.583 372.664 148.152 379.554 146.73 386.861C147.435 390.804 148.15 394.641 149.375 398.459C148.308 387.566 149.148 377.379 156.01 368.46C161.375 364.283 167.4 363.079 174.073 363.899C181.841 364.853 189.037 368.131 196.097 371.324L185.597 377.721C178.019 384.881 174.223 393.352 173.972 403.798C173.651 417.208 177.941 433.958 185.357 445.189C183.048 436.917 180.042 427.638 179.447 419.053C177.544 410.282 177.056 399.31 180.797 390.915C184.8 381.931 193.084 377.956 201.79 374.803C212.222 380.682 228.145 393.221 234.668 403.433C235.911 404.05 236.97 404.481 237.797 405.653L237.526 406.43C236.908 406.687 236.317 406.949 235.673 407.131C238.485 407.346 239.906 407.93 241.807 410.067C244.602 413.21 246.058 418.042 246.134 422.19C247.054 431.059 247.489 439.8 247.626 448.712L248.104 449.497C247.871 450.377 247.655 451.172 247.296 452.011C248.623 463.598 243.53 482.831 239.715 493.953C234.149 494.279 228.63 494.785 223.09 493.873Z"/>
	<defs>
		<linearGradient id="gradient_3" gradientUnits="userSpaceOnUse" x1="246.48943" y1="422.06247" x2="216.50804" y2="440.14532">
			<stop offset="0" stop-color="black"/>
			<stop offset="1" stop-color="#31121C"/>
		</linearGradient>
	</defs>
	<path fill="url(#gradient_3)" d="M218.21 409.749C223.527 406.626 228.575 404.475 234.668 403.433C235.911 404.05 236.97 404.481 237.797 405.653L237.526 406.43C236.908 406.687 236.317 406.949 235.673 407.131C238.485 407.346 239.906 407.93 241.807 410.067C244.602 413.21 246.058 418.042 246.134 422.19C247.054 431.059 247.489 439.8 247.626 448.712L248.104 449.497C247.871 450.377 247.655 451.172 247.296 452.011L245.308 452.597C244.027 452.589 242.747 452.558 241.472 452.422C231.209 451.326 220.886 446.062 214.423 437.93C211.028 433.658 208.635 428.297 209.45 422.739C210.264 417.192 213.964 413.078 218.21 409.749Z"/>
	<path fill="#FCC485" d="M234.104 418.724C238.252 419.554 242.225 420.56 246.134 422.19C247.054 431.059 247.489 439.8 247.626 448.712C237.314 446.451 229.883 443.482 221.604 436.857C221.526 433.717 222.55 429.702 223.847 426.873C226.036 422.101 229.43 420.352 234.104 418.724Z"/>
	<path fill="#E1A370" d="M235.673 407.131C238.485 407.346 239.906 407.93 241.807 410.067C244.602 413.21 246.058 418.042 246.134 422.19C242.225 420.56 238.252 419.554 234.104 418.724C229.43 420.352 226.036 422.101 223.847 426.873C222.55 429.702 221.526 433.717 221.604 436.857C219.393 434.494 217.436 431.477 216.521 428.359Q216.333 427.727 216.21 427.079Q216.086 426.431 216.029 425.774Q215.971 425.117 215.98 424.458Q215.99 423.798 216.065 423.143Q216.141 422.488 216.282 421.844Q216.423 421.2 216.629 420.573Q216.835 419.946 217.102 419.343Q217.37 418.741 217.697 418.168C221.461 411.49 228.784 409.123 235.673 407.131Z"/>
	<path fill="#E1A370" d="M201.79 374.803C212.222 380.682 228.145 393.221 234.668 403.433C228.575 404.475 223.527 406.626 218.21 409.749C217.699 404.906 216.661 399.645 212.695 396.366C209.908 394.063 205.661 393.245 202.141 393.741C195.741 394.643 190.325 399.784 186.712 404.875C183.526 409.366 182.191 414.509 179.447 419.053C177.544 410.282 177.056 399.31 180.797 390.915C184.8 381.931 193.084 377.956 201.79 374.803Z"/>
	<path fill="#E1A370" d="M146.73 386.861C146.25 386.009 146.315 383.572 146.134 382.483C144.816 374.564 145.058 365.741 150.043 359.073C154.153 353.576 160.703 350.464 167.374 349.456C183.501 347.019 200.837 355.714 213.701 364.588C217.513 367.217 220.956 370.454 224.783 373.003C226.124 373.896 226.73 374.337 228.334 374.058L234.706 393.369C216.648 377.929 195.25 356.998 169.549 358.917C163.095 359.398 157.117 361.494 152.801 366.551C147.583 372.664 148.152 379.554 146.73 386.861Z"/>
	<path fill="#E1A370" d="M247.296 452.011C248.623 463.598 243.53 482.831 239.715 493.953C234.149 494.279 228.63 494.785 223.09 493.873C225.864 491.484 229.011 489.626 231.662 487.062C241.114 477.916 242.526 464.765 245.308 452.597L247.296 452.011Z"/>
	<path fill="#E1A370" d="M156.01 368.46C161.375 364.283 167.4 363.079 174.073 363.899C181.841 364.853 189.037 368.131 196.097 371.324L185.597 377.721C176.408 369.198 166.163 372.959 156.01 368.46Z"/>
	<path fill="#FCC485" d="M650.97 578.654C656.028 576.431 661.064 574.092 666.193 572.042C675.474 591.079 691.931 621.102 684.566 642.372C680.969 652.762 672.851 663.638 664.035 670.185C640.875 692.696 607.395 703.424 575.475 703.621C521.727 703.952 469.939 677.261 432.35 640.064C434.261 634.276 435.842 628.445 437.378 622.55L446.505 590.759C483.82 631.81 536.501 663.87 593.056 666.592C616.404 667.715 643.687 665.081 661.895 648.716C667.14 644.002 671.351 637.808 671.719 630.562C672.505 615.107 658.297 592.471 650.97 578.654Z"/>
	<path fill="#E1A370" d="M437.378 622.55C448.372 639.835 481.95 661.951 500.563 670.792Q510.847 675.729 521.611 679.505Q532.376 683.281 543.49 685.85C576.431 693.211 609.809 691.395 641.376 679.167C645.903 677.414 660.287 669.969 664.035 670.185C640.875 692.696 607.395 703.424 575.475 703.621C521.727 703.952 469.939 677.261 432.35 640.064C434.261 634.276 435.842 628.445 437.378 622.55Z"/>
	<path fill="#FCC485" d="M473.495 68.4709C475.156 64.8113 476.8 61.5205 480.878 60.1175C489.09 57.2925 501.276 66.2501 508.541 69.4653C522.419 75.6067 537.931 76.9115 552.694 79.6542C566.093 82.1436 579.996 86.5711 592.091 92.9608Q594.321 94.129 596.436 95.4931Q598.551 96.8573 600.535 98.4064Q602.519 99.9554 604.356 101.677Q606.192 103.398 607.866 105.278C615.42 113.745 621.694 123.367 628.167 132.659Q637.197 145.652 646.99 158.081Q664.619 180.518 683.766 201.674C694.812 213.658 706.505 225.002 717.708 236.824C715.334 247.269 713.253 257.882 709.807 268.039C708.943 271.35 707.727 274.55 706.572 277.767C694.734 284.68 681.202 287.441 667.694 288.678C666.106 272.226 663.696 254.954 660.224 238.804C666.627 246.024 672.572 253.093 679.674 259.699C680.413 259.615 680.995 259.432 681.7 259.205L682.494 257.516C667.576 240.674 658.642 231.362 655.19 208.38C649.342 189.281 639.419 175.212 624.777 161.579C620.175 157.294 615.183 153.387 610.774 148.901C605.532 143.566 601.19 137.37 596.063 131.918C584.219 119.323 569.193 108.723 553.979 100.614C531.165 88.4534 505.914 82.4865 480.352 79.8155C477.71 76.1996 475.307 72.5827 473.495 68.4709Z"/>
	<path fill="#E1A370" d="M655.19 208.38C662.509 214.099 667.545 221.886 673.647 228.769C680.881 236.93 689.285 244.062 696.669 252.095C701.159 256.98 705.152 263.604 709.807 268.039C708.943 271.35 707.727 274.55 706.572 277.767C694.734 284.68 681.202 287.441 667.694 288.678C666.106 272.226 663.696 254.954 660.224 238.804C666.627 246.024 672.572 253.093 679.674 259.699C680.413 259.615 680.995 259.432 681.7 259.205L682.494 257.516C667.576 240.674 658.642 231.362 655.19 208.38Z"/>
	<path d="M682.494 257.516Q689.934 265.087 697.258 272.772C691.076 268.884 684.666 265.116 679.674 259.699C680.413 259.615 680.995 259.432 681.7 259.205L682.494 257.516Z"/>
	<path fill="#B24F49" d="M254.522 437.775C255.859 439.813 257.066 441.9 258.263 444.022C274.501 463.634 294.921 478.725 315.344 493.693Q329.997 504.563 344.809 515.216C346.16 516.192 347.52 517.142 348.771 518.248C331.368 547.614 312.682 575.648 293.045 603.561C287.332 577.026 286.994 550.087 297.412 524.602C298.218 521.524 299.062 518.449 299.821 515.359C288.593 535.607 277.929 556.701 258.842 570.772C256.022 574.057 252.905 576.203 249.278 578.475C258.922 561.38 265.442 543.12 270.018 524.064C272.594 513.339 274.475 502.466 277.73 491.909C278.525 489.7 279.377 487.592 280.379 485.468C268.144 502.739 255.296 525.119 234.074 532.43L227.693 536.224C248.289 501.191 254.774 478.787 254.522 437.775Z"/>
	<path fill="#8B3B3A" d="M344.809 515.216C346.16 516.192 347.52 517.142 348.771 518.248C331.368 547.614 312.682 575.648 293.045 603.561C287.332 577.026 286.994 550.087 297.412 524.602C299.668 532.243 298.289 541.656 298.899 549.626C299.485 557.286 301.002 564.987 302.26 572.564C312.639 561.432 322.22 549.911 330.779 537.311C335.68 530.097 340.076 522.542 344.809 515.216Z"/>
	<path fill="#DF715E" d="M254.522 437.775C255.859 439.813 257.066 441.9 258.263 444.022C258.177 468.937 255.87 496.096 244.009 518.462C241.331 523.512 236.652 527.482 234.074 532.43L227.693 536.224C248.289 501.191 254.774 478.787 254.522 437.775Z"/>
	<path fill="#DF715E" d="M277.73 491.909C280.667 496.295 276.699 513.161 275.608 518.672Q274.114 526.49 271.963 534.154Q269.813 541.817 267.02 549.271C264.309 556.384 260.782 563.414 258.842 570.772C256.022 574.057 252.905 576.203 249.278 578.475C258.922 561.38 265.442 543.12 270.018 524.064C272.594 513.339 274.475 502.466 277.73 491.909Z"/>
	<path fill="#B24F49" d="M566.329 606.605Q569.076 606.509 571.824 606.584Q574.571 606.659 577.309 606.905Q580.047 607.151 582.764 607.567Q585.481 607.983 588.167 608.567Q590.853 609.151 593.497 609.901Q596.142 610.65 598.734 611.563Q601.327 612.476 603.858 613.549Q606.389 614.621 608.848 615.849C623.945 623.44 635.618 633.773 640.997 650.029C607.48 662.815 570.013 654.587 537.655 642.494C522.838 636.435 508.4 629.787 495.387 620.377C508.948 610.439 523.553 606.111 540.383 607.089Q542.158 607.185 543.927 607.369Q545.695 607.553 547.452 607.825Q549.209 608.098 550.951 608.458Q552.692 608.817 554.413 609.264Q556.134 609.71 557.831 610.242Q559.527 610.773 561.195 611.389Q562.863 612.005 564.498 612.703Q566.133 613.402 567.732 614.181Q569.33 614.96 570.887 615.818Q572.444 616.676 573.957 617.611Q575.469 618.546 576.933 619.555Q578.397 620.564 579.809 621.645Q581.22 622.726 582.576 623.877Q583.932 625.027 585.229 626.243Q586.526 627.46 587.76 628.739Q588.994 630.019 590.163 631.359C584.329 620.579 576.014 613.766 566.329 606.605Z"/>
	<path fill="#8B3B3A" d="M428.926 650.885C455.531 676.619 470.217 683.227 503.382 698.602C500.437 698.565 497.552 698.381 494.621 698.102C468.681 695.817 444.802 687.972 420.97 677.76Q425.257 664.414 428.926 650.885Z"/>
	<path fill="#FCC485" d="M455.615 67.1244C459.344 67.0269 463.033 67.6098 466.627 68.5666C467.542 72.1688 468.899 75.6124 470.202 79.0873L459.122 78.6034C453.775 78.5344 448.414 78.6745 443.067 78.7324C443.813 76.4769 444.58 74.1019 445.975 72.1493C448.379 68.7834 451.727 67.8389 455.615 67.1244Z"/>
</svg>
