<svg xmlns="http://www.w3.org/2000/svg" viewBox="0 0 1024 1024">
  <path fill="#321018" d="M261 110c4-22 14-42 32-56 7-6 20-15 30-14 2 0 2 1 3 2 1 6-7 13-11 17-9 10-13 25-16 38 6-10 13-19 23-26 10-8 30-17 43-15l4 3-2 6-10 9c-7 6-13 14-18 23l12-4 12-3 12-3 12-3 12-2 13-1 12-1 12-1c2-6 3-11 9-14 7-5 16-4 24-2l2-3c3-4 7-6 12-7 13-1 28 9 41 12 18 5 36 6 53 12l12 4 11 6c22 14 37 35 54 53q16 18 34 34 17 17 35 32l40 31q20 15 41 28c18 12 37 22 54 35 3 2 8 7 8 11l-1 3c-6 3-25-1-31-2h1c22 14 59 40 72 63 3 5 4 9 5 14-9 0-17-4-26-8 20 16 39 34 53 55 4 5 16 25 14 32l-2 2c-5 1-16-8-20-10 12 10 26 31 34 45 4 8 15 32 12 40l-3 1c-5 0-16-11-20-15 18 35 26 76 15 115-1 5-5 19-10 21h-3c-5-5-6-17-7-23-7 13-15 26-26 37-5 5-18 18-27 18l-3-2-1-4 5-19 4-17c-15 16-33 26-51 37l-27 15c-4 2-12 6-17 4l-2-3c-1-6 7-18 11-23-15 9-33 19-50 23-3 1-7 2-10 0l-1-2c-1-7 12-20 17-25-20 8-40 15-59 24l-14 8c-5 4-10 9-16 11h-5l-2-4c-1-7 6-20 10-26l-44 22 31 61 11 22 9 21 9 23 9 22 7 23 7 23 6 23 5 23-10 3-4 1-30 6q-15 4-31 6l-30 5-31 4-30 2-31 2-31 1h-31c-15-1-31-1-46-3-13 0-28-2-41-4l-82-11-10-1-14-1-1-16-7 5c-5 3-14 10-19 8l-2-2c0-6 9-26 12-34l-11 16c-3 4-15 19-22 19l-2-1c-5-5-2-20-1-26l-8 28c-1 3-2 7-5 8h-4l-8-7c-11-12-17-26-23-42l1 13c1 6 5 18 4 22l-2 3-4-2c-17-11-25-34-28-53 0 8 0 18-2 25l-2 4-2-1c-3-1-4-4-6-6-7-11-12-23-15-36 0 4-1 9-3 13l-3 3-4-3c-3-3-4-7-6-11-8-22-6-45-4-68-3 7-5 16-10 21-1 2-2 2-4 2l-3-3-4-14c-3-22 2-36 9-56-8 5-16 8-26 8-2 0-5 0-7-2-1-4 1-7 4-10l11-11c10-12 14-29 18-44l-18 19c-3 2-5 4-9 4l-1-2c-2-3-1-8 0-11 2-17 8-32 15-48l-6 4c-5 2-22 8-27 6l-2-3v-3l9-11 8-13 10-31c2-7 5-15 9-22-3 1-9 3-12 1l-3-2c-1-5 4-12 7-16 12-18 26-33 44-45 13-9 25-16 36-27 11-10 18-22 24-36-21-18-37-38-47-65-9-25-14-56-2-81 7-16 19-25 35-31l6-23c11-38 26-67 46-102-9 1-44 8-49 4-2 0-3-1-3-3l4-8c14-16 45-25 66-27l-1-2c-7-22-4-50 7-70 3-7 8-15 16-17h3l3 6-2 13c-2 10-1 22 1 32v1Zm414 247c45 45 62 80 83 139l-12 17 30-4 15-2-32-69c-20-40-45-83-72-119-5-7-11-16-18-21l6 59Z"/>
  <path fill="#B24F49" d="M418 688c25 11 52 21 80 22 10 0 20-2 30-1l24 4c21 3 43 1 64-4l13 24 13 24 12 24 11 24 11 25 10 25 10 26 8 25c5 15 11 30 14 45 0 2 1 11 3 12l-30 6q-15 4-31 6l-30 5-31 4-30 2-31 2-31 1h-31c-15-1-31-1-46-3-13 0-28-2-41-4l-82-11c-2-10 0-28-5-38l10-14 17-26 31-59 14-30c17-38 30-77 44-116Z"/>
  <path fill="#8B3B3A" d="m374 804 10 23c22 49 39 106 46 159-13 0-28-2-41-4l-82-11c-2-10 0-28-5-38l10-14 17-26 31-59 14-30Z"/>
  <path fill="#321018" d="M588 755c3 3 8 19 11 23l15 24 13 14c6 7 22 19 26 26v3c-5 1-21-6-26-8l14 20c4 6 11 27 8 34 0 2-1 2-2 2-6-1-11-8-15-12 5 10 12 38 8 49l-3 3c-2 0-4-2-5-4l-9-13c-7-10-15-20-23-28l18 15c7 7 12 14 17 21-2-33-8-43-29-69 13 9 26 18 37 30-2-26-20-45-38-61l34 11-3-2c-22-17-44-50-48-78Z"/>
  <path fill="#DF715E" d="m616 709 4-1 14 23 13 23 12 24 11 24 11 24 10 24 10 25 8 25c5 14 8 28 11 42l5 20-4 1c-2-1-3-10-3-12-3-15-9-30-14-45l-8-25-10-26-10-25-11-25-11-24-12-24-13-24-13-24ZM302 933c5 10 3 28 5 38l-10-1c0-9 0-19-2-29l7-8Z"/>
  <path fill="#B24F49" d="M268 442v-1l18-14c17-12 36-19 57-22h16c19 4 69 53 80 70l4 6c-1 9-2 18-5 27 3 3 12 3 16 4 1 6-10 45-12 53l-23 81q-11 37-24 73l-28 71c-19 45-40 89-68 128-11 15-22 29-37 40 7-18 14-36 15-56l-1 1-10 17c-8 13-18 26-30 36l1-7c2-20 1-41 6-61l-4 11-2 7c-3 11-8 20-13 30-4 10-7 21-9 32l-6-6-10-14c-8-14-13-27-13-43l-1-11c-5 25-11 31-6 59-8-11-16-24-19-38-3-11-3-25 0-36l4-16c-10 17-16 38-18 58v3l-2-2a88 88 0 0 1-10-67l2-10c-10 17-15 37-17 56-12-26-10-57-5-85 2-8 3-16 6-23l-3-3-8 16c-4 10-7 20-13 29l-3 6c-8-38 9-62 22-95l5-18c-8 15-16 35-30 45-3 3-7 4-11 6l-11 1c14-14 24-29 29-48 3-17 2-24 13-39l11-14-18 17c-10 12-18 26-30 36l-1 1v-1c-1-5 1-10 2-14l1-5 2-5 1-5 2-5 2-5 2-4 2-5 3-5 2-4 3-4 3-5 3-4 3-4 3-4 4-4 3-3 7-7c-23 13-31 35-58 43-3 2-7 2-10 3l12-15c12-19 15-42 27-61 6-11 16-18 24-27-9 1-26 18-41 21h-1c3-5 9-11 13-15 10-12 22-23 34-32 28-21 46-28 64-61l3-6c20 9 27 14 49 14l-10 23-11 19c21-8 34-14 49-31-7 27-15 53-29 77 17-7 31-16 43-29l1 11c2 13 3 26 8 38-8 11-16 23-26 34-7-13-15-25-24-36l-15-16c-9-8-18-16-29-20l1 2c28 16 49 50 63 77l-14 18-21 23-14 16-4 2h-1l1 1c-1 4-13 15-16 18-14 15-26 31-32 51-2 4-4 10-3 15 4-10 8-20 14-28 13-22 34-37 51-55l54-64q27-36 51-73c11-17 20-34 32-50 2-7 6-13 9-19l10-21c-6 9-12 17-20 25l-19-17c-10-7-65-45-67-53Z"/>
  <path fill="#8B3B3A" d="M271 946c4-10 7-21 8-32 0-7-3-13 0-20 4-11 10-20 16-30l12-22q28-52 50-106 29-72 53-146l16-50c3-11 7-22 12-32 3 3 12 3 16 4h-1l-2 2c-3 6-5 13-6 19l-8 29-17 55-12 37-23 67q-20 55-45 107c-12 26-25 52-39 76-9 15-21 27-30 42Z"/>
  <path fill="#DF715E" d="M153 797c4-10 8-20 14-28 13-22 34-37 51-55l54-64q27-36 51-73c11-17 20-34 32-50 0 6-5 13-8 18-12 25-27 48-43 70l-26 36-41 49-59 64-15 18-8 14-2 2v-1Z"/>
  <path fill="#8B3B3A" d="M279 574c2 13 3 26 8 38-8 11-16 23-26 34-7-13-15-25-24-36l-15-16c9 0 36 26 44 33 4-11 6-23 8-34 1-6 2-14 5-19Zm-85 2c28 16 49 50 63 77l-14 18-4-21c-3-21-14-39-28-55-5-6-13-12-17-19Zm10 370c10-17 15-39 35-47l-2 7c-3 11-8 20-13 30-4 10-7 21-9 32l-6-6 1-2c-1-5-4-10-6-14Z"/>
  <path fill="#B24F49" d="M210 960c2-2 5-13 6-16 3-9 13-32 20-38h1c-3 11-8 20-13 30-4 10-7 21-9 32l-6-6 1-2Z"/>
  <path fill="#DF715E" d="M115 583h3v1l-8 9-10 13c-12 19-18 41-28 61l-10 16c-3 2-7 2-10 3l12-15c12-19 15-42 27-61 6-11 16-18 24-27Zm69-87c1 6-7 17-11 22-16 20-39 33-58 49-11 8-19 19-29 28l-12 9h-1c3-5 9-11 13-15 10-12 22-23 34-32 28-21 46-28 64-61Z"/>
  <path fill="#8B3B3A" d="M286 856c-2 9-4 18-8 27l-12 21c-7 14-12 26-23 38h-1l2-11c5-7 9-16 13-24 10-17 21-33 29-51Z"/>
  <path fill="#DF715E" d="M115 746c3 9-10 35-13 45-4 12-8 31-6 44l-3 6c-8-38 9-62 22-95Z"/>
  <defs>
    <linearGradient id="a" x1="167" x2="157.4" y1="751.3" y2="739.2" gradientUnits="userSpaceOnUse">
      <stop offset="0"/>
      <stop offset="1" stop-color="#230C18"/>
    </linearGradient>
  </defs>
  <path fill="url(#a)" d="m124 791 7-15 9-14c15-22 36-45 63-50l1 1-13 7-7 5-7 5-6 5-7 5-6 6-5 6-6 7-5 6c-6 8-11 18-18 26Z"/>
  <path fill="#DF715E" d="M113 647v3c-5 9-12 16-18 25-7 12-9 26-14 40-3 6-7 11-8 17l-1 1v-1c-1-5 1-10 2-14l1-5 2-5 1-5 2-5 2-5 2-4 2-5 3-5 2-4 3-4 3-5 3-4 3-4 3-4 4-4 3-3Zm-3 46c1 5-4 13-6 18l-6 33-7 15c-3 6-10 13-12 20l-11 1c14-14 24-29 29-48 3-17 2-24 13-39Zm76 212h1c3 3 5 14 7 18 2 8 5 16 10 23 2 4 5 9 6 14l-1 2-10-14c-8-14-13-27-13-43Zm-52-50 1 2v24l4 15c2 6 7 19 7 25v3l-2-2a88 88 0 0 1-10-67Zm109 33 1 3v40l-2 11-4 7h-1c2-20 1-41 6-61Zm-83-9 1 6c0 11 1 20 4 31l-3-5-2 4c-3-11-3-25 0-36Z"/>
  <path d="m117 790 9-12-6 15-3-3Z"/>
  <path fill="#8B3B3A" d="M176 898c0 4-3 27-5 31h-1l-1-1-3-10c6-6 7-12 10-20Z"/>
  <path fill="#FCC485" d="M557 141c18-1 40 10 54 21 12 9 25 23 31 37 7 15 8 32 10 48l13 99c-9-5-18-7-28-6-17 2-33 8-49 15-52 22-94 57-129 101-8-12-17-23-26-33l-58-51-18-21c0-23 2-45 8-67 12-44 39-89 79-112 28-16 46-3 73 5 11-12 24-31 40-36Z"/>
  <path fill="#321018" d="M474 227c9-1 18 1 26 6 22 12 36 36 42 60 7 24 6 53-7 76-8 14-21 24-37 28-13 2-25-1-36-8a88 88 0 0 1-34-58c-6-28-3-58 14-82 7-12 18-20 32-22Z"/>
  <path fill="#F9F5FB" d="M476 235c8-1 16 2 23 6 20 11 32 35 37 56 5 22 4 49-8 69-7 11-18 20-31 23-9 2-19 0-27-5-17-9-28-28-33-45-7-25-6-56 7-79 8-14 17-21 32-25Z"/>
  <path fill="#321018" d="M508 287h5c6 1 9 6 12 10 4 7 5 16 3 24-2 5-6 8-11 11l-5-1c-5-1-9-5-11-9-4-7-6-16-3-24 2-6 5-9 10-11Z"/>
  <path fill="#F9F5FB" d="m507 295 6 2 2 4c0 3-2 5-4 8l-6-2-2-4c0-3 2-5 4-8Z"/>
  <path fill="#321018" d="M580 200c6 0 11 1 17 3 19 10 33 34 39 54 7 19 11 48 2 67-4 8-11 12-19 15-8 2-16-1-23-5-20-12-32-41-37-63-4-18-7-43 3-59 4-6 10-10 18-12Z"/>
  <path fill="#F9F5FB" d="M580 208c5-1 9 0 13 2 17 8 28 27 35 44 7 18 13 46 4 65-3 7-7 10-14 13-5 0-10 0-14-2-16-6-26-24-32-38-8-20-15-49-6-70 3-7 7-11 14-14Z"/>
  <path fill="#321018" d="m607 254 5 1c6 2 10 7 12 13 3 6 4 15 1 21-2 4-5 7-9 9l-7-2c-6-2-9-8-11-14s-3-15 1-21c2-4 4-6 8-7Z"/>
  <path fill="#F9F5FB" d="m606 261 5 2 1 1 1 1v2c0 3-2 5-4 8l-4-2c-2 0-2-2-3-3 0-4 2-6 4-9Z"/>
  <defs>
    <linearGradient id="b" x1="448" x2="437" y1="236" y2="224.7" gradientUnits="userSpaceOnUse">
      <stop offset="0"/>
      <stop offset="1" stop-color="#301919"/>
    </linearGradient>
  </defs>
  <path fill="url(#b)" d="m480 195 12 1-11 2c-6 2-13 6-18 10-23 18-38 43-54 68l-5 9c5-20 17-39 30-56 11-14 27-31 46-34Z"/>
  <defs>
    <linearGradient id="c" x1="582.8" x2="593.2" y1="191" y2="176.9" gradientUnits="userSpaceOnUse">
      <stop offset="0"/>
      <stop offset="1" stop-color="#301216"/>
    </linearGradient>
  </defs>
  <path fill="url(#c)" d="m554 185 4-5c4-5 10-8 17-8 15-1 29 11 39 20l-2 4c-10-8-24-19-38-20-8-1-14 4-20 9Z"/>
  <path d="m612 196 2-4c8 8 17 19 21 30v1c-6-10-14-20-23-27ZM457 401l18 4c5 0 16-4 20-3v1c-6 2-12 4-18 4-7 1-14-1-20-6Z"/>
  <path fill="#FCC485" d="M464 465a317 317 0 0 1 163-115c9-2 21-4 30 2 2 1 4 3 4 5 2 2 3 3 3 6 9 5 16 13 23 21 29 34 45 70 60 111-13 20-30 34-49 47-7 4-13 9-20 12-9 6-21 10-31 15a295 295 0 0 1-78 19l-1-2-21 1c-14 1-30 1-45-1v1c-4 1-15-1-19-3-9-1-22-3-29-7-2 0-2-1-3-2v-1l3-14c6-21 16-56 14-78 0-6-2-11-4-17Z"/>
  <path fill="#E1A370" d="m454 560 21 7a301 301 0 0 0 173-5c9-2 20-8 29-8h1c-9 6-21 10-31 15a295 295 0 0 1-78 19l-1-2-21 1c-14 1-30 1-45-1v1c-4 1-15-1-19-3-9-1-22-3-29-7-2 0-2-1-3-2v-1l3-14Z"/>
  <path d="M568 586c9-1 17-1 25-3 18-3 36-9 54-14a295 295 0 0 1-78 19l-1-2Zm-117-11 33 8-1 1c-9-1-22-3-29-7-2 0-2-1-3-2Z"/>
  <path fill="#1A0002" d="m484 583 18 3v1c-4 1-15-1-19-3l1-1Z"/>
  <path d="m623 388 2-10c2-9 7-17 15-21 7-3 14-2 21 0 2 2 3 3 3 6-6-3-12-5-18-3-7 2-12 7-16 13-2 4-6 12-5 16v2l-19-8a46 46 0 0 0-56 30l-1 6-1-1v-1c0-7 2-13 6-19 6-10 16-18 28-20 15-4 28 2 41 10Z"/>
  <path fill="#321018" d="M577 401c5-3 12-2 17-1 11 3 23 9 31 18l8 10 1 1-1 1c-6 3-50-2-57-4-3-1-6-4-7-7l-1-1v-8c2-5 5-7 9-9Z"/>
  <path d="M576 426c6-3 47 4 57 2l1 1-1 1c-6 3-50-2-57-4Zm-7-7-1-1v-8c2-5 5-7 9-9-1 3-4 4-5 6-2 4-1 9-3 12Zm89-45h3l7 5c2 4 3 9 3 13-3 11-19 19-28 25-2 2-1 7-1 10v-2l-1-1c-4-10-2-22 2-32 3-8 7-14 15-18Z"/>
  <path fill="#321018" d="M658 376h3c2 0 4 2 5 3 2 4 3 8 2 12-2 10-13 16-21 21l-6 4v-3c0-4 0-9 2-13 2-10 6-19 15-24Z"/>
  <path fill="#8B3B3A" d="m684 293 2-1c7-2 22-6 25-13 8 5 14 12 21 19a957 957 0 0 1 167 280c4 14 9 36 17 48 2 3 4 5 8 5l5-5c4-9 2-22 5-28l11 28c2 10-4 19-8 27-10 16-22 28-38 38 3-10 6-20 7-30 2-7 2-15 3-22-6 7-12 15-20 21-16 14-36 24-54 34-8 5-16 10-24 12 7-15 18-28 27-42-23 16-50 35-77 40 7-12 17-22 24-34-12 8-26 11-39 16q-15 5-29 12c-7 3-13 6-20 11l-16 11c3-15 15-30 26-40q-23 8-45 20l-25 13-5-10 8-3 16-11c22-15 36-30 41-56-2-23-12-44-22-65l28-17 27-20 8-6c8-3 19-3 28-4l31-3 3 8c8 13 14 28 23 42l3-1-34-84-31-63q-16-31-34-61c-8-13-16-27-26-39l-9-11c-4-5-9-9-11-14l3-2Z"/>
  <path fill="#B24F49" d="m826 567-34-84-31-63q-16-31-34-61c-8-13-16-27-26-39l-9-11c-4-5-9-9-11-14l3-2a425 425 0 0 1 77 114c35 64 64 130 84 200-4 3-7 6-12 8-24 10-68 12-94 14-14 1-29 4-42 4-2-23-12-44-22-65l28-17 27-20 8-6c8-3 19-3 28-4l31-3 3 8c8 13 14 28 23 42l3-1Z"/>
  <path fill="#DF715E" d="m730 531 8-6c8-3 19-3 28-4l31-3 3 8-17 1c-5 0-51 5-52 4h-1Z"/>
  <path d="m826 567 6 17-9-16 3-1Z"/>
  <path fill="#B24F49" d="M945 626c2 10-4 19-8 27-10 16-22 28-38 38 3-10 6-20 7-30 2-7 2-15 3-22-6 7-12 15-20 21-16 14-36 24-54 34-8 5-16 10-24 12 7-15 18-28 27-42-23 16-50 35-77 40 7-12 17-22 24-34-12 8-26 11-39 16q-15 5-29 12c-7 3-13 6-20 11l-16 11c3-15 15-30 26-40q-23 8-45 20l-25 13-5-10 8-3c9 0 33-13 42-17l20-7c4-2 11-4 14-3 0 6-14 22-18 28l25-13c8-3 56-24 64-22l1 1c0 7-10 20-14 26 17-7 33-17 48-27 4-2 16-13 20-12l1 1c1 8-13 29-18 36l23-12a306 306 0 0 0 47-31l11-9 3-2h2c4 7 0 29-2 38l19-22 16-26 1-1ZM261 135c4-18 7-36 15-53 10-18 24-31 44-37l-7 6c-11 17-20 36-22 56v12l1 1 2-1c4-10 10-21 16-29 14-17 32-25 53-28l-5 3c-15 15-28 30-37 50 47-27 144-34 196-19 30 9 49 23 73 43-15-4-29-10-44-2-12 7-24 18-31 30-23-9-45-17-69-6-39 18-69 60-84 99-8 23-12 46-15 70-5-12-8-24-7-38l5-29c3-16 9-42-11-49-3-2-7-2-10 0l-4 2c-1-8-4-15-11-19-4-3-9-4-14-3-5 2-9 6-12 10-4-3-8-5-13-4s-9 4-12 8c-7 9-6 22-8 33-5 0-9 0-13 4-12 14-13 56-14 74-13-7-29-15-44-14h-3v-1c-1-7 4-19 6-25 13-37 28-77 56-106l-16 3-20 2c-11 1-21 3-32 3l4-4c13-13 38-22 57-24 3-1 7-1 10 1l5 5-2-6c-6-11-8-26-7-39 0-18 5-38 19-51l-1 9c-2 17-3 48 6 63Z"/>
  <path fill="#DF715E" d="m242 169-22 36q-10 18-18 37l-16 38-7 25h-3v-1c-1-7 4-19 6-25a285 285 0 0 1 60-110Zm19-34c4-18 7-36 15-53 10-18 24-31 44-37l-7 6c-2 1-5 1-7 3-8 4-17 19-22 27-5 9-10 19-13 29l-6 20c0 2-1 5-3 6l-1-1Zm-5-72-1 9h-3c-3 4-4 9-5 14q-2 5-2 11l-2 11v24c0 4 3 18 1 21-6-11-8-26-7-39 0-18 5-38 19-51Zm38 56c4-10 10-21 16-29 14-17 32-25 53-28l-5 3c-17 2-31 14-42 27-4 4-17 27-20 27h-2Zm-120 58c13-13 38-22 57-24 3-1 7-1 10 1-3 3-11 3-15 4l-26 8c-9 3-17 9-25 12l-1-1Z"/>
  <path fill="#B24F49" d="m626 120 43 49c31 33 68 63 106 87l32 20c18 10 37 19 53 34l-21-3c-7-1-31-9-36-8l15 7 19 14c16 12 59 43 66 59v2h-1l-49-18 8 5c26 16 61 51 77 77 4 6 7 12 9 19l-4-4-22-12-21-11 10 8c18 13 43 49 52 69 4 7 6 15 8 23l-12-10-13-8-5 1c21 26 31 73 27 105l-3 18-5 15-5-19c-6-17-15-42-24-57l4 16c-3 6-1 19-5 28l-5 5c-4 0-6-2-8-5-8-12-13-34-18-48l-15-39a957 957 0 0 0-151-241c-7-7-13-14-21-19l2-6c11 10 21 21 35 27-12-10-23-21-34-33l8-32c-26-27-51-55-75-85-7-9-16-19-21-30Z"/>
  <path fill="#DF715E" d="M964 643c-2-8 0-20 0-28l-3-24c-3-17-8-33-14-49-2-5-8-17-8-21l1-1c21 26 31 73 27 105l-3 18Zm-54-198c18 13 43 49 52 69 4 7 6 15 8 23l-12-10c0-4 1-7 3-11l-20-28c-6-8-30-35-31-43Zm-8-64c-11-17-53-49-70-61l-33-20v-1h4l15 7 19 14c16 12 59 43 66 59v2h-1Zm-41-13c26 16 61 51 77 77 4 6 7 12 9 19l-4-4c-3-16-48-60-61-72l-19-16-2-4Z"/>
  <path d="m929 507 16 12-5 1-11-13Z"/>
  <path fill="#FCC485" d="M277 377c-2-15-6-30-10-44-2-9-5-19-5-27 1-17 9-43 14-59 4-12 7-31 13-42 2-4 5-5 9-7l9 4c7 5 8 14 9 22l-9 18c-6 15-16 38-16 55a265 265 0 0 0 16 73l4-1c-5-16-17-61-15-75 1-12 6-24 10-35 4-12 8-24 14-34 2-3 3-6 6-7s7 0 9 2c4 2 6 6 7 11 2 7 1 15-1 23l-6 27-1 4v3l-1 4v17l1 3v3l1 4v3l1 3 1 4 1 3 1 3c21 55 84 76 111 126 3 6 6 13 7 20 1 6 0 22-2 27h-1v4c-4-1-13-1-16-4 3-9 4-18 5-27l-4-6c-11-17-61-66-80-70h-16c-21 3-40 10-57 22l-18 14v1l-3-2c-13-21-24-46-31-70l-3-16-2-16c-1-16 1-74 8-85 2-4 5-7 9-8l2 1c2 3-6 30-7 35-8 37-5 73 6 108 3 9 6 19 11 27v1c-8-38-21-74-16-113 2-17 7-34 10-51 2-10 5-33 9-41 2-5 7-6 11-8 5 2 7 3 10 7l-9 29c-6 21-17 50-15 71l6 27 4 22 5 16 4 1Z"/>
  <path d="m265 440 15-12c20-14 41-24 66-26 6 0 13 0 19 2 11 3 24 16 33 24 11 10 47 40 48 56 0 7-2 15-4 22l12 2v4c-4-1-13-1-16-4 3-9 4-18 5-27l-4-6c-11-17-61-66-80-70h-16c-21 3-40 10-57 22l-18 14v1l-3-2Zm8-64 4 1 6 30c-4-10-8-20-10-31Zm38-7 5 23-9-22 4-1Z"/>
  <path fill="#FCC485" d="m223 494-9-3-10-3c-30-15-52-45-63-77-8-22-13-48-2-70 5-10 13-19 24-23 21-7 42 2 60 11 0 15 2 30 5 45l7 19c-18-15-40-36-65-34-7 0-13 2-17 8-5 6-5 13-6 20l2 11c-1-10 0-21 7-30 5-4 11-5 18-4 8 1 15 4 22 7l-10 7c-8 7-12 15-12 26 0 13 4 30 11 41-2-8-5-17-6-26s-2-20 2-28c4-9 12-13 21-16 10 6 26 18 33 28l3 3-2 1 6 3c3 3 4 8 4 12l2 27-1 3c2 12-3 31-7 42h-17Z"/>
  <defs>
    <linearGradient id="d" x1="246.5" x2="216.5" y1="422.1" y2="440.1" gradientUnits="userSpaceOnUse">
      <stop offset="0"/>
      <stop offset="1" stop-color="#31121C"/>
    </linearGradient>
  </defs>
  <path fill="url(#d)" d="M218 410c6-3 11-6 17-7l3 3-2 1 6 3c3 3 4 8 4 12l2 27-1 3-2 1-4-1c-10-1-20-6-27-14-3-4-5-10-5-15 1-6 5-10 9-13Z"/>
  <path fill="#FCC485" d="m234 419 12 3 2 27c-11-3-18-6-26-12l2-10c2-5 5-7 10-8Z"/>
  <path fill="#E1A370" d="m236 407 6 3c3 3 4 8 4 12l-12-3c-5 1-8 3-10 8l-2 10c-3-3-5-6-5-9l-1-1v-5l1-1v-2l1-1c3-7 11-9 18-11Zm-34-32c10 6 26 18 33 28-6 1-11 4-17 7 0-5-1-10-5-14-3-2-7-3-11-2-6 1-12 6-15 11l-8 14c-1-9-2-20 2-28 4-9 12-13 21-16Z"/>
  <path fill="#E1A370" d="m147 387-1-5c-1-7-1-16 4-23 4-5 11-9 17-10 17-2 34 7 47 16l11 8 3 1 7 19c-18-15-40-36-65-34-7 0-13 2-17 8-5 6-5 13-6 20Zm100 65c2 12-3 31-7 42h-17l9-7c9-9 11-22 13-34l2-1Z"/>
  <path fill="#E1A370" d="M156 368c5-4 11-5 18-4 8 1 15 4 22 7l-10 7c-10-9-20-5-30-10Z"/>
  <path fill="#FCC485" d="m651 579 15-7c9 19 26 49 19 70-4 11-12 22-21 28-23 23-57 33-89 34-53 0-105-27-143-64l5-17 10-32c37 41 90 73 146 76 23 1 51-2 69-18 5-5 9-11 10-18 1-16-14-39-21-52Z"/>
  <path fill="#E1A370" d="M437 623c11 17 45 39 64 48l21 9 21 6c33 7 67 5 98-7 5-2 19-9 23-9-23 23-57 33-89 34-53 0-105-27-143-64l5-17Z"/>
  <path fill="#FCC485" d="M473 68c2-3 4-6 8-8 8-3 20 6 28 9 13 7 29 8 44 11 13 2 27 7 39 13l4 2 5 3 3 4 4 3 20 28 19 25q18 23 37 44l34 35-8 31-3 10c-12 7-26 9-39 11-2-17-4-34-8-50l20 21 2-1v-1c-14-17-23-27-27-50-6-19-16-33-30-46l-14-13-15-17a175 175 0 0 0-116-52l-7-12Z"/>
  <path fill="#E1A370" d="M655 208c8 6 13 14 19 21l23 23c4 5 8 12 13 16l-3 10c-12 7-26 9-39 11-2-17-4-34-8-50l20 21 2-1v-1c-14-17-23-27-27-50Z"/>
  <path d="m682 258 15 15-17-13 2-1v-1Z"/>
  <path fill="#B24F49" d="m255 438 3 6c17 20 37 35 57 50l30 21 4 3c-18 30-36 58-56 86-6-27-6-54 4-79l3-10c-11 21-22 42-41 56l-10 7c10-17 16-35 21-54 3-11 4-22 8-32l2-7c-12 18-25 40-46 47l-6 4c20-35 27-57 27-98Z"/>
  <path fill="#8B3B3A" d="m345 515 4 3c-18 30-36 58-56 86-6-27-6-54 4-79 3 7 1 17 2 25l3 23c11-12 20-23 29-36l14-22Z"/>
  <path fill="#DF715E" d="m255 438 3 6c0 25-2 52-14 74-3 6-7 9-10 14l-6 4c20-35 27-57 27-98Zm23 54c3 4-1 21-2 27l-4 15-5 15-8 22-10 7c10-17 16-35 21-54 3-11 4-22 8-32Z"/>
  <path fill="#B24F49" d="M566 607h11l6 1 5 1 5 1 6 2 5 2 5 2c15 7 27 18 32 34-34 13-71 5-103-8-15-6-30-12-43-22 14-10 29-14 45-13h4l3 1h4l3 1 4 1 3 1 3 2 4 1 3 2 3 2 3 2 3 2 3 2 2 2 3 3 2 2c-6-10-14-17-24-24Z"/>
  <path fill="#8B3B3A" d="M429 651c27 26 41 32 74 48l-8-1c-26-2-50-10-74-20l8-27Z"/>
  <path fill="#FCC485" d="m456 67 11 2 3 10h-27l3-7c2-3 6-4 10-5Z"/>
</svg>
